<svg fill="none" height="83" viewBox="0 0 109 83" width="109" xmlns="http://www.w3.org/2000/svg"><g fill="#11131e"><path d="m.083629 67.3394c.066903-.2608.144957-.5795.239736-.9504.09478-.3709.189559-.7765.301065-1.2228.10593-.4404.206285-.8518.301064-1.2285.094776-.3767.172836-.7012.239736-.962.0669-.2607.10036-.3998.10036-.4114l.44044-.0232c-.21186.8693-.32336 1.6168-.32894 2.2485-.00557.6258.0669 1.1474.21744 1.553.15053.4057.37911.707.68575.8983.30664.1912.66346.2839 1.07603.2665.41257 0 .81956-.0695 1.22656-.2202.40699-.1449.78054-.3535 1.1262-.6201.34567-.2665.64116-.6084.88647-1.0141.24531-.4056.4293-.875.54638-1.3966.16168-.7186.15053-1.3328-.0223-1.8544-.17284-.5157-.4293-.9851-.76939-1.4082-.34009-.423-.71921-.8113-1.13736-1.1821-.41814-.3651-.79168-.7476-1.1262-1.1474-.33452-.3999-.57983-.8461-.74709-1.3329-.16725-.4868-.16725-1.0663-.01115-1.7269.16169-.6317.407-1.1822.73594-1.6342.32894-.4578.70806-.8287 1.1262-1.1184.41815-.2898.85859-.5042 1.31577-.6433.45717-.1391.89761-.2086 1.32691-.2086.34567 0 .63558.0348.87532.1043.23973.0696.44602.1507.62443.2376.17841.0927.34009.1854.47947.2782.13938.0927.28433.1796.42933.2492l.3401-.6433.4181-.0232s-.0279.1507-.0892.4057-.1338.5737-.2174.9504c-.0837.3766-.1784.7881-.2788 1.2227s-.1896.8403-.2788 1.2227c-.0892.3825-.16165.6954-.2174.9504-.06133.255-.0892.3883-.0892.4057h-.35682c.10593-.8577.15053-1.5936.13938-2.2137s-.08921-1.1358-.21744-1.5415c-.1338-.4056-.32336-.707-.57982-.8982-.25089-.1912-.56311-.2898-.93665-.2898-.34566 0-.68576.058-1.02585.1681s-.6523.2782-.93664.4984-.53523.4925-.75824.8055c-.21743.3187-.39027.678-.50735 1.0778-.16168.6085-.15053 1.1417.0223 1.6053.17284.4636.4293.8924.76939 1.2807.34009.394.71921.7765 1.13735 1.1474.41815.3708.79727.7823 1.13736 1.2285s.5854.9504.74708 1.5125c.16169.5563.15054 1.2227-.0223 1.9993-.16168.678-.41814 1.2807-.77496 1.808-.35682.5332-.77496.9794-1.24328 1.3445-.46833.365-.98125.6432-1.5332.8286-.55195.1855-1.09833.2782-1.6447.2782-.49063 0-.9478-.0811-1.37152-.2376s-.76939-.3767-1.037-.649l-.395844.6432h-.440446s.0334516-.1507.100355-.4114z"/><path d="m17.5755 57.5857c-.0234-.1938-.082-.3759-.1873-.5462-.1054-.1703-.2635-.3054-.48-.417-.2166-.1116-.5152-.1527-.8898-.1233s-.7258.1292-1.0478.3054c-.3219.1762-.6146.4052-.8897.693-.2693.2877-.521.6107-.7435.9749-.2224.3641-.4273.7399-.6087 1.1334-.1815.3935-.3395.7811-.48 1.1628-.1405.3876-.2576.7459-.3571 1.0806-.2107.7282-.3337 1.4271-.3629 2.1084-.0351.6812.0234 1.2685.1756 1.7618.1522.4992.398.8809.7434 1.1511.3395.2701.7727.3758 1.2878.3054.4039-.0588.8078-.2056 1.2117-.4405s.7902-.5227 1.159-.8516c.3688-.3288.7083-.6871 1.0244-1.0688s.5795-.7517.8078-1.1041l.3571.0646c-.1932.3524-.4508.7576-.7727 1.2274-.322.4698-.7025.9162-1.1473 1.3449-.4449.4287-.9483.7987-1.5161 1.11-.562.3171-1.1824.4933-1.8498.5344-.6848.0411-1.2526-.0822-1.7034-.3641-.4507-.2878-.7902-.7048-1.0009-1.2451-.2108-.5403-.31613-1.2039-.3044-1.9732.0117-.7694.1522-1.6209.4156-2.5606.24-.8692.5502-1.662.9424-2.3785.3922-.7223.8371-1.3331 1.3464-1.844.5092-.511 1.0536-.9103 1.639-1.1981.5853-.2878 1.1824-.4287 1.797-.4287.8195 0 1.4751.1821 1.9551.5462s.7669.7928.8664 1.2802c.0995.4875 0 .9808-.3044 1.4682-.2985.4875-.8254.8575-1.5805 1.11-.5151.1821-.9834.3289-1.4107.4405s-.8488.2173-1.2644.3171-.8429.1879-1.2761.2702c-.4332.0822-.919.182-1.4634.2936l.1698-.3583 3.8692-1.1099c.2224-.0705.439-.1703.6498-.3054.2107-.1351.398-.2995.5619-.4933.1698-.1938.3102-.4111.4273-.6402.1171-.229.1932-.4698.2225-.7223.0292-.141.0292-.3054.0117-.5051z"/><path d="m28.9564 58.1636c-.0671.1687-.1587.2966-.2808.3839-.1221.093-.2624.1454-.415.1687-.1526.0232-.2869 0-.4029-.0524-.3174-.1396-.5066-.3315-.5676-.57-.0611-.2443-.0977-.4827-.1221-.727s-.0794-.4478-.177-.6223c-.0977-.1745-.3296-.2618-.7081-.2618-.5371 0-1.0376.192-1.5015.57-.4639.3839-.8851.8492-1.2513 1.4017-.3723.5526-.6836 1.14-.9461 1.7565-.2624.6165-.4639 1.1574-.6104 1.6285-.1587.5817-.2685 1.204-.3296 1.867-.061.6631-.0244 1.2738.0977 1.8263.1221.5526.3479 1.0062.6775 1.3494.3296.3489.7935.4827 1.4039.4129.409-.0407.8118-.1628 1.2085-.3606.3968-.2036.7752-.4536 1.1231-.7561.348-.3024.6654-.6398.9461-.9946.2808-.3606.5006-.7153.6409-1.0585l.3724.064c-.1282.3199-.3357.6863-.6226 1.1109-.2808.4246-.6348.8259-1.056 1.2039-.4211.3781-.9033.7154-1.4527.9946-.5432.285-1.1475.4478-1.8006.4886-.7691.0581-1.3978-.0815-1.8739-.413-.4822-.3315-.824-.791-1.0376-1.3726s-.2991-1.2505-.2625-2.0124.1709-1.5413.4029-2.3498c.2319-.8026.5493-1.5587.9583-2.2741.4089-.7154.8728-1.3319 1.4038-1.8612.5311-.5234 1.1048-.9422 1.7213-1.2446.6165-.3025 1.2513-.4595 1.9044-.4595.3784 0 .7141.0407 1.001.1221.293.0815.5433.192.763.3316.2197.1395.3967.3024.5371.4885s.232.3897.2747.6107c.0427.2385.0305.4362-.0305.6049z"/><path d="m36.6946 56.4521c.4275.2975.7523.7153.9689 1.2475s.3306 1.1559.3363 1.8712-.1083 1.4879-.3363 2.3176c-.2337.8183-.5471 1.5966-.9461 2.3405s-.8606 1.3906-1.385 1.9514c-.5243.5608-1.0886 1.0014-1.6871 1.3276-.6041.3261-1.2083.4921-1.8238.4921-.6156 0-1.1456-.166-1.5674-.4921-.4217-.3262-.7352-.7668-.9461-1.3276s-.3135-1.2075-.3078-1.9514.1254-1.5222.3534-2.3405c.2166-.8183.5244-1.5851.9233-2.3004.399-.7153.855-1.3391 1.3622-1.8713.5073-.5322 1.0601-.9499 1.6472-1.2589.5927-.309 1.1969-.4578 1.8238-.4578.627 0 1.1513.1488 1.5788.4521zm-.1197 3.5765c.114-.6409.1539-1.2246.114-1.7568s-.1881-.9728-.4503-1.3162c-.2564-.349-.6725-.5207-1.2425-.5207-.5699 0-1.0772.1717-1.516.5207-.4389.3491-.8322.7897-1.1684 1.3277-.342.5379-.627 1.1273-.8664 1.7682s-.4388 1.2532-.5984 1.8369c-.1653.6009-.3078 1.2361-.4275 1.8999-.1197.6695-.1653 1.2818-.1311 1.8369.0342.5608.171 1.0243.4161 1.3905.2451.3663.6497.5494 1.2197.5494.5699 0 1.1-.1889 1.5446-.5608.4502-.372.8435-.8412 1.1798-1.402.3419-.5608.6326-1.1731.8777-1.8369.2451-.6695.4503-1.2933.6098-1.8827.1767-.6009.3249-1.2189.4389-1.8598z"/><path d="m39 66.9891 1.2953-4.3643c.1129-.3655.2258-.7201.3268-1.0693.107-.3491.208-.6928.309-1.0311.2436-.7801.4278-1.4566.5645-2.0239.1367-.5728.1723-.9984.1188-1.2875-.0118-.1582-.0891-.18-.2258-.0655-.1366.1091-.2792.2728-.4337.4856-.1545.2127-.2971.4309-.4219.6437s-.1961.3546-.2139.4201l-.1901-.0764c.1426-.4528.3268-.862.5526-1.2166s.4634-.6491.713-.8783c.2495-.2291.4932-.3819.7427-.4691.2496-.0819.4754-.0764.6893.0272.1545.0764.2436.2619.2674.5456.0237.2837-.006.6383-.0832 1.0529-.0773.4146-.1902.8728-.3268 1.3747-.1426.5019-.2912 1.0038-.4457 1.5112l-1.8657 6.4319h-1.3607zm1.6994-1.833c.1426-.2728.3506-.6874.6239-1.2384s.5882-1.162.9329-1.833c.3446-.671.7308-1.353 1.1468-2.0567.4159-.7038.8437-1.342 1.2834-1.9203s.8853-1.0529 1.3488-1.4239c.4575-.3709.9032-.5564 1.3251-.5564.2555 0 .4991.0436.7308.1255.2318.0872.4219.2236.5704.42.1486.1964.2496.4637.309.7965.0535.3382.0357.7583-.0653 1.2657-.0535.2455-.1545.5782-.2853.9928-.1366.4147-.2852.8675-.4575 1.353s-.3446.9929-.5288 1.5111c-.1842.5183-.3446 1.0093-.4872 1.4621-.1427.4528-.2555.851-.3387 1.1893-.0832.3382-.1129.5728-.0832.7037.0713.1691.1782.1964.3268.0873.1485-.1091.2911-.2728.4337-.4855.1426-.2128.2674-.4365.3803-.6711.1129-.2345.1842-.3764.2139-.4309l.1902.0982c-.1426.4419-.3031.8183-.4873 1.1292-.1842.311-.3802.5619-.5823.7529-.202.1909-.41.3273-.6179.4091-.208.0873-.3981.1201-.5823.1092-.1545-.011-.2912-.0601-.416-.1364-.1188-.0764-.2139-.1801-.2852-.311s-.1129-.2837-.1248-.4582c-.0118-.1746.0119-.371.0832-.5947.1723-.5073.3447-1.0147.5289-1.522.1842-.5074.3684-1.0093.5644-1.5112.1902-.5019.3744-1.0092.5526-1.5221.1783-.5128.3387-1.0256.4754-1.5275.2555-.9219.3922-1.6093.4159-2.0676.0238-.4528-.1426-.6819-.4991-.6819-.3565-.0109-.7487.18-1.1765.5728-.4338.3983-.8794.9111-1.3488 1.5494-.4694.6382-.9329 1.3474-1.3904 2.133s-.8913 1.5657-1.2953 2.3404c-.4041.7747-.7666 1.4948-1.0934 2.1603-.3268.6711-.5823 1.2057-.7665 1.6094l.4694-1.833z"/><path d="m57.5058 59.4972c.1163-.5762.1653-1.0584.153-1.4465-.0122-.394-.0856-.7115-.208-.9526-.1224-.2469-.2999-.4175-.5263-.5233-.2264-.1059-.4896-.1588-.7955-.1588-.612 0-1.1811.1764-1.7073.5234-.5263.3528-1.0036.7879-1.4442 1.3112-.4345.5234-.8139 1.1055-1.1382 1.7406-.3182.635-.5813 1.2407-.7894 1.817-.1897.588-.3488 1.2172-.4834 1.8875-.1347.6703-.1959 1.2936-.1959 1.8699s.0796 1.0526.2387 1.4289.4284.5645.8078.5645c.3365 0 .7771-.2705 1.3217-.8174.5447-.5468 1.1382-1.276 1.7685-2.1815.6365-.9114 1.2729-1.9581 1.9215-3.14.6487-1.182 1.2361-2.4109 1.7624-3.6869l-.3488 1.5935c-.0857.2235-.2448.5939-.4834 1.1114-.2387.5174-.5202 1.0937-.8629 1.7346-.3426.6351-.7343 1.2995-1.1688 1.9934-.4344.6939-.8873 1.3231-1.3523 1.8876-.4651.5645-.9424 1.0349-1.4197 1.3994-.4835.3646-.9485.5469-1.4014.5469-.4956 0-.9118-.1764-1.2483-.5233-.3366-.347-.5814-.8174-.7344-1.3995-.1529-.5822-.2019-1.2466-.1529-1.9934.0489-.7468.2141-1.5289.4895-2.3403.2754-.8233.6364-1.5936 1.0709-2.2992s.9302-1.3171 1.487-1.8287c.5569-.5116 1.1443-.9114 1.7685-1.2055.6242-.294 1.2606-.4292 1.9031-.3998.6548.0294 1.1872.1529 1.5972.3763.41.2235.716.5351.9179.9232l-.7649 2.1816zm.3794 7.1915c-.257.3705-.514.6468-.7771.8291-.2632.1823-.5202.2823-.7649.294-.2509.0118-.4529-.0411-.6242-.1705-.1652-.1235-.2815-.3116-.3488-.5586s-.0429-.5351.0734-.8703l.7221-2.3932 1.946-6.7387c.1468-.5057.2753-.982.3916-1.4407.1163-.4527.2142-.8702.2937-1.2407.0796-.3704.1408-.688.1775-.9467s.0489-.4351.0306-.5351c-.0306-.0823-.0918-.1352-.1836-.147-.0979-.0118-.2019-.0118-.3182.0118-.1163.0235-.2325.0411-.3488.0529-.1163.0117-.2203.0059-.306-.0235l.2203-.2705c.2326-.0294.4712-.0706.7099-.1235.2386-.0588.4834-.1176.7221-.1764.2386-.0647.4834-.1176.7343-.1705.2448-.0471.5018-.0706.7649-.0706-.5997 2.0051-1.1933 3.9926-1.7807 5.9743-.5875 1.9816-1.1566 3.9867-1.6951 6.0154-.104.3234-.1958.6233-.2754.9056-.0795.2822-.153.5351-.208.7644-.0551.2293-.0979.4351-.1224.6174s-.0245.3352-.0123.4645c.0857.1823.2081.2117.3611.0941s.306-.294.4589-.5233c.153-.2293.2815-.4704.3917-.7115.1101-.247.1713-.3999.1836-.4704l.2203.1058c-.1775.5998-.3917 1.0878-.6426 1.4583z"/><path d="m63 66.9944.1046-.2568c.1104 0 .2499-.0167.4243-.0502.1743-.0335.308-.1005.4068-.2121.1511-.1619.3196-.4857.5114-.977.186-.4912.3836-1.0662.5928-1.7249.2092-.6588.4184-1.3622.6335-2.1158.215-.748.4184-1.4738.6102-2.166.1802-.6085.3778-1.2839.5928-2.0208s.4126-1.4459.6044-2.1213c.1918-.6755.3313-1.2784.4243-1.792.0988-.5192.1162-.8597.0639-1.016-.0407-.1061-.1395-.1786-.2906-.2121s-.2848-.0503-.3952-.0503l.064-.2791h3.4463l-.0814.2568c-.1104 0-.2499.0223-.4242.0614-.1744.0391-.3139.1116-.4243.2177-.1511.1619-.3196.4634-.4998.9155-.1801.4522-.3603.977-.5521 1.5743-.186.5973-.3719 1.2337-.5579 1.9148-.186.6754-.372 1.3286-.5521 1.9538-.0581.1731-.1453.4633-.2674.8653-.122.4075-.2615.8653-.4126 1.3844-.1511.5192-.308 1.0663-.4649 1.6357-.157.5694-.3022 1.1109-.4243 1.6133-.122.508-.215.9434-.2673 1.3175-.0581.374-.064.6252-.0233.7592.0407.106.1395.1786.2906.2121s.2906.0502.4126.0502l-.0813.2568h-3.4464zm4.382-8.0945h6.6195l-.1452.4577h-6.6196zm4.1903 6.8273c.1511-.3629.3138-.7927.4765-1.284.1686-.4912.3313-1.016.4998-1.5742.1686-.5582.3255-1.0942.4766-1.6133.1511-.5192.2848-.9881.3952-1.4068s.1976-.7369.2673-.949c.1802-.6141.3662-1.2616.5579-1.9427.1918-.6866.372-1.3286.5289-1.9315s.279-1.1388.3603-1.5966c.0814-.4578.0988-.7592.0407-.9043-.0407-.1061-.1395-.1787-.2906-.2122s-.2906-.0502-.4126-.0502l.1046-.2568h3.4231l-.0814.2568c-.122 0-.2673.0167-.4358.0502-.1686.0335-.3023.1061-.4127.2122-.1511.173-.3312.5135-.5288 1.0271-.2035.5136-.401 1.1053-.6045 1.7864-.2034.6811-.4068 1.39-.6102 2.1325-.2092.7425-.4068 1.4347-.6044 2.0711-.1918.6922-.4068 1.4067-.6335 2.1548-.2266.7425-.43 1.4403-.6044 2.0934-.1743.6531-.3022 1.217-.3952 1.7026-.093.4857-.1046.8151-.0523.9881.0407.1061.1395.1787.2906.2122s.2906.0502.4126.0502l-.0813.2568h-3.4231l.0813-.2568c.1221 0 .2674-.0167.4243-.0502s.2964-.1005.4068-.2122c.1221-.1339.2615-.3796.4126-.748z"/><path d="m76.7403 67.4492c-.3003-.3423-.5122-.7909-.6299-1.3517-.1178-.5548-.1413-1.2041-.0707-1.942.0707-.7378.2296-1.517.4827-2.3315.2649-.8146.6123-1.5819 1.0302-2.308.418-.726.9066-1.3517 1.4599-1.877.5534-.5253 1.1656-.9385 1.8308-1.2337.6652-.2951 1.3775-.4309 2.1309-.4013.1413 0 .3062 0 .5063.0118.1943.0059.418.0413.6711.0944.2531.059.5298.1476.8418.2715.3061.124.6416.3188 1.0066.5667l-.9065 3.4176c-.1708.6198-.3533 1.2396-.5593 1.8535-.206.6197-.3767 1.21-.518 1.7708-.1943.6493-.3532 1.2041-.4709 1.6763-.1178.4722-.159.8323-.1178 1.0861.0295.059.0589.1004.0942.124.0353.0295.0648.0413.0942.0413.1001 0 .2119-.0827.3473-.2538.1354-.1712.2531-.3601.365-.5667.1118-.2125.2119-.4132.2943-.6021.0824-.1888.1354-.3128.1472-.3659l.2119.1062c-.1413.4663-.3002.8618-.4709 1.1924-.1766.3305-.3591.5961-.5475.8027s-.3826.3542-.5769.4545c-.1942.1004-.3826.1476-.5651.1476-.3355 0-.5946-.1535-.7653-.4545-.1766-.3011-.1884-.6906-.0294-1.1687l2.0368-6.7645c.0294-.0708.053-.1417.0706-.2243.0236-.0767.0412-.1535.053-.2243.1413-.5076.2002-.9149.1884-1.2336-.0118-.3188-.0766-.5726-.1884-.7674-.1236-.2243-.2943-.3778-.5063-.4545-.2119-.0767-.4297-.124-.6534-.1358-.6475-.0295-1.2362.1358-1.766.4841-.5357.3541-1.0066.8027-1.4304 1.3517-.418.5489-.783 1.151-1.095 1.8003-.3061.6552-.5533 1.269-.7358 1.8475-.1943.5903-.365 1.2101-.5063 1.8534-.1412.6493-.2236 1.2455-.2413 1.7945-.0236.5489.0353 1.0034.1707 1.3694.1354.3659.3826.5607.7476.5902.4886.0414 1.0184-.2243 1.5894-.7909.5651-.5667 1.142-1.334 1.7248-2.2902.5828-.9563 1.1597-2.0424 1.7366-3.2583.5769-1.216 1.1302-2.4496 1.66-3.701l-.7123 2.5086c-.1707.3365-.3649.7792-.6004 1.3163-.2296.5431-.4945 1.1156-.7888 1.7177s-.6181 1.2101-.9772 1.8239c-.3591.6139-.7417 1.157-1.1538 1.6351s-.8477.8618-1.301 1.1569c-.4532.2951-.9359.4191-1.4422.3778-.4768-.0295-.8653-.2125-1.1655-.5608z"/><path d="m87 66.9891 1.1658-4.3643c.1016-.3655.2032-.7201.2941-1.0693.0963-.3491.1872-.6928.2781-1.0311.2193-.7801.385-1.4566.508-2.0239.123-.5728.1551-.9984.107-1.2875-.0107-.1582-.0802-.18-.2032-.0655-.123.1091-.2514.2728-.3904.4856-.139.2127-.2674.4309-.3797.6437s-.1765.3546-.1925.4201l-.1711-.0764c.1283-.4528.2941-.862.4973-1.2166s.4171-.6491.6417-.8783c.2246-.2291.4439-.3819.6685-.4691.2246-.0819.4278-.0764.6203.0272.1391.0764.2193.2619.2407.5456s-.0054.6383-.0749 1.0529-.1711.8728-.2941 1.3747c-.1284.5019-.2621 1.0038-.4011 1.5112l-1.6792 6.4319h-1.2246zm1.5294-1.833c.1284-.2728.3156-.6874.5616-1.2384s.5294-1.162.8395-1.833c.3102-.671.6578-1.353 1.0322-2.0567.3743-.7038.7593-1.342 1.1551-1.9203.3957-.5783.7968-1.0529 1.2139-1.4239.4118-.3709.8129-.5564 1.1925-.5564.23 0 .4492.0436.6578.1255.2086.0872.3797.2236.5134.42s.2246.4637.2781.7965c.0481.3382.0321.7583-.0589 1.2657-.0481.2455-.139.5782-.2566.9928-.123.4147-.2567.8675-.4118 1.353s-.3102.9929-.476 1.5111c-.1657.5183-.3101 1.0093-.4385 1.4621-.1283.4528-.2299.851-.3048 1.1893-.0749.3382-.1016.5728-.0749.7037.0642.1691.1605.1964.2942.0873.1336-.1091.262-.2728.3903-.4855.1284-.2128.2407-.4365.3423-.6711.1016-.2345.1658-.3764.1925-.4309l.1711.0982c-.1283.4419-.2727.8183-.4385 1.1292-.1658.311-.3422.5619-.5241.7529-.1818.1909-.3689.3273-.5561.4091-.1872.0873-.3583.1201-.5241.1092-.139-.011-.262-.0601-.3743-.1364-.107-.0764-.1925-.1801-.2567-.311s-.1016-.2837-.1123-.4582c-.0107-.1746.0107-.371.0748-.5947.1551-.5073.3102-1.0147.476-1.522.1658-.5074.3315-1.0093.508-1.5112.1711-.5019.3369-1.0092.4974-1.5221.1604-.5128.3048-1.0256.4278-1.5275.2299-.9219.3529-1.6093.3743-2.0676.0214-.4528-.1283-.6819-.4492-.6819-.3208-.0109-.6738.18-1.0588.5728-.3904.3983-.7915.9111-1.214 1.5494-.4224.6382-.8396 1.3474-1.2513 2.133-.4118.7856-.8022 1.5657-1.1658 2.3404-.3637.7747-.6899 1.4948-.984 2.1603-.2941.6711-.5241 1.2057-.6899 1.6094l.4225-1.833z"/><path d="m105.506 59.4972c.116-.5762.165-1.0584.153-1.4465-.012-.394-.086-.7115-.208-.9526-.123-.2469-.3-.4175-.527-.5233-.226-.1059-.489-.1588-.795-.1588-.612 0-1.181.1764-1.707.5234-.527.3528-1.004.7879-1.445 1.3112-.434.5234-.813 1.1055-1.1377 1.7406-.3182.635-.5813 1.2407-.7894 1.817-.1897.588-.3488 1.2172-.4834 1.8875-.1347.6703-.1959 1.2936-.1959 1.8699s.0796 1.0526.2387 1.4289.4284.5645.8078.5645c.3365 0 .7769-.2705 1.3219-.8174.544-.5468 1.138-1.276 1.768-2.1815.637-.9114 1.273-1.9581 1.922-3.14.648-1.182 1.236-2.4109 1.762-3.6869l-.349 1.5935c-.085.2235-.244.5939-.483 1.1114-.239.5174-.52 1.0937-.863 1.7346-.343.6351-.734 1.2995-1.169 1.9934-.434.6939-.887 1.3231-1.352 1.8876s-.942 1.0349-1.42 1.3994c-.483.3646-.9482.5469-1.4011.5469-.4956 0-.9118-.1764-1.2483-.5233-.3366-.347-.5814-.8174-.7344-1.3995-.1529-.5822-.2019-1.2466-.1529-1.9934.0489-.7468.2141-1.5289.4895-2.3403.2754-.8233.6364-1.5936 1.0709-2.2992s.9301-1.3171 1.4873-1.8287c.557-.5116 1.144-.9114 1.768-1.2055.624-.294 1.261-.4292 1.903-.3998.655.0294 1.187.1529 1.597.3763.41.2235.716.5351.918.9232l-.765 2.1816zm.379 7.1915c-.257.3705-.514.6468-.777.8291s-.52.2823-.765.294c-.251.0118-.453-.0411-.624-.1705-.165-.1235-.282-.3116-.349-.5586s-.043-.5351.074-.8703l.722-2.3932 1.946-6.7387c.147-.5057.275-.982.391-1.4407.117-.4527.214-.8702.294-1.2407.08-.3704.141-.688.177-.9467.037-.2587.049-.4351.031-.5351-.031-.0823-.092-.1352-.183-.147-.098-.0118-.202-.0118-.319.0118-.116.0235-.232.0411-.349.0529-.116.0117-.22.0059-.305-.0235l.22-.2705c.232-.0294.471-.0706.71-.1235.238-.0588.483-.1176.722-.1764.238-.0647.483-.1176.734-.1705.245-.0471.502-.0706.765-.0706-.6 2.0051-1.193 3.9926-1.781 5.9743-.587 1.9816-1.156 3.9867-1.695 6.0154-.104.3234-.196.6233-.275.9056-.08.2822-.153.5351-.208.7644s-.098.4351-.123.6174c-.024.1823-.024.3352-.012.4645.086.1823.208.2117.361.0941s.306-.294.459-.5233.282-.4704.392-.7115c.11-.247.171-.3999.183-.4704l.221.1058c-.178.5998-.392 1.0878-.643 1.4583z"/><path d="m71.9942 8.76492h-.6182c-2.6809-7.80446-20.9098-9.99569-24.4862-5.82028v20.06036h15.548c1.2364 0 1.5831-3.2839 1.5831-3.9683h.4795v8.2818h-.4795c0-.6844-.2773-3.6291-1.5831-3.6291h-15.548v21.5673c0 .6153 0 2.1912 3.1662 2.3982v.3451h-17.056v-.3451c3.1662-.207 3.1662-1.7829 3.1662-2.3982v-42.51335c0-.61538 0-2.191229-3.1662-2.398274v-.345076h36.5213l2.4787 8.76492z"/><path d="m67.9976 47.9116c.6435-.0222 1.31.0055 1.965.1055 2.3154-7.976 7.877-14.3412 16.386-14.3412 5.3375 0 10.2613 3.838 12.0366 10.4476h.6148l-2.6027-10.3143-1.2984 1.0608c-2.3269-1.0608-5.3376-1.7829-8.7561-1.8495-14.5762-.4777-23.4299 7.4761-26.3428 16.9795h.0287c2.3154-1.3164 5.3146-1.9884 7.9632-2.0773z"/><path d="m87.5388 82.2177c-8.9474-.1532-14.5468-6.2815-17.0957-14.2177-.2858.4045-.6766.717-1.1373.8273-1.4815.3555-3.068.5025-4.5845.4474-1.2366-.0429-2.6189-.2206-3.7213-.8886 3.7621 8.9289 12.5461 15.6272 26.5446 14.4873 4.4445-.2941 7.6408-1.9672 8.1249-2.1142l1.8723 1.7527 1.4582-10.5775h-.5541c-.6941 2.3349-4.1646 10.4304-10.9013 10.2894z"/></g></svg>