<svg width="186" height="186" viewBox="0 0 186 186" fill="none" xmlns="http://www.w3.org/2000/svg">
<circle cx="93" cy="93" r="93" fill="#10121D"/>
<path d="M22.1145 123.451C22.2061 123.107 22.313 122.687 22.4427 122.199C22.5725 121.711 22.7023 121.176 22.855 120.589C23 120.009 23.1374 119.467 23.2672 118.971C23.3969 118.475 23.5038 118.047 23.5954 117.704C23.687 117.361 23.7328 117.177 23.7328 117.162L24.3359 117.132C24.0458 118.276 23.8931 119.261 23.8855 120.093C23.8779 120.917 23.9771 121.604 24.1832 122.138C24.3893 122.672 24.7023 123.069 25.1221 123.321C25.542 123.573 26.0305 123.695 26.5954 123.672C27.1603 123.672 27.7175 123.58 28.2748 123.382C28.832 123.191 29.3435 122.916 29.8167 122.565C30.29 122.214 30.6946 121.764 31.0305 121.23C31.3663 120.696 31.6183 120.077 31.7786 119.391C31.9999 118.444 31.9847 117.635 31.748 116.948C31.5114 116.269 31.1602 115.651 30.6946 115.094C30.229 114.537 29.7099 114.026 29.1374 113.537C28.5648 113.056 28.0534 112.553 27.5954 112.026C27.1374 111.499 26.8015 110.912 26.5725 110.271C26.3435 109.63 26.3435 108.867 26.5572 107.997C26.7786 107.165 27.1145 106.44 27.5648 105.844C28.0152 105.242 28.5343 104.753 29.1068 104.372C29.6793 103.99 30.2824 103.708 30.9083 103.524C31.5343 103.341 32.1373 103.25 32.7251 103.25C33.1984 103.25 33.5953 103.295 33.9236 103.387C34.2518 103.479 34.5343 103.585 34.7785 103.7C35.0228 103.822 35.2442 103.944 35.435 104.066C35.6259 104.188 35.8243 104.303 36.0228 104.394L36.4885 103.547L37.061 103.517C37.061 103.517 37.0228 103.715 36.9388 104.051C36.8549 104.387 36.7556 104.807 36.6411 105.303C36.5266 105.799 36.3969 106.341 36.2594 106.913C36.122 107.485 35.9999 108.019 35.8778 108.523C35.7556 109.027 35.6564 109.439 35.5801 109.775C35.4961 110.111 35.4579 110.286 35.4579 110.309H34.9694C35.1144 109.179 35.1755 108.21 35.1602 107.394C35.145 106.577 35.0381 105.898 34.8625 105.364C34.6793 104.829 34.4198 104.433 34.0686 104.181C33.7251 103.929 33.2976 103.799 32.7862 103.799C32.3129 103.799 31.8473 103.875 31.3816 104.02C30.916 104.165 30.4885 104.387 30.0992 104.677C29.7099 104.967 29.3664 105.326 29.061 105.738C28.7633 106.157 28.5267 106.631 28.3664 107.157C28.145 107.958 28.1603 108.661 28.3969 109.271C28.6335 109.882 28.9847 110.446 29.4503 110.958C29.916 111.477 30.4351 111.98 31.0076 112.469C31.5801 112.957 32.0992 113.499 32.5648 114.087C33.0305 114.674 33.3663 115.338 33.5877 116.078C33.8091 116.811 33.7938 117.689 33.5572 118.711C33.3358 119.604 32.9847 120.398 32.4961 121.092C32.0076 121.795 31.4351 122.382 30.7938 122.863C30.1526 123.344 29.4503 123.71 28.6946 123.954C27.9389 124.199 27.1908 124.321 26.4427 124.321C25.771 124.321 25.145 124.214 24.5649 124.008C23.9847 123.802 23.5114 123.512 23.145 123.153L22.603 124H22C22 124 22.0458 123.802 22.1374 123.458L22.1145 123.451Z" fill="#F0EFEC"/>
<path d="M45.7098 110.774C45.6792 110.523 45.6029 110.286 45.4655 110.065C45.3281 109.843 45.122 109.668 44.8395 109.523C44.5571 109.378 44.1678 109.324 43.6792 109.363C43.1907 109.401 42.7327 109.531 42.3128 109.759C41.893 109.988 41.5113 110.286 41.1525 110.66C40.8014 111.034 40.4731 111.454 40.1831 111.927C39.893 112.4 39.6258 112.888 39.3892 113.4C39.1525 113.911 38.9464 114.415 38.7632 114.911C38.58 115.415 38.4274 115.88 38.2976 116.315C38.0228 117.261 37.8625 118.17 37.8243 119.055C37.7785 119.94 37.8548 120.703 38.0533 121.344C38.2518 121.993 38.5724 122.489 39.0228 122.84C39.4655 123.191 40.0304 123.329 40.7022 123.237C41.2289 123.161 41.7556 122.97 42.2823 122.665C42.809 122.359 43.3128 121.985 43.7937 121.558C44.2746 121.131 44.7174 120.665 45.1296 120.169C45.5418 119.673 45.8853 119.192 46.183 118.734L46.6487 118.818C46.3968 119.276 46.0609 119.803 45.6411 120.413C45.2212 121.024 44.725 121.604 44.1449 122.161C43.5647 122.718 42.9082 123.199 42.1678 123.603C41.435 124.015 40.6258 124.244 39.7556 124.298C38.8625 124.351 38.122 124.191 37.5342 123.825C36.9465 123.451 36.5037 122.909 36.2289 122.207C35.9541 121.505 35.8167 120.642 35.832 119.642C35.8472 118.643 36.0304 117.536 36.3739 116.315C36.6869 115.186 37.0915 114.155 37.6029 113.224C38.1144 112.286 38.6945 111.492 39.3587 110.828C40.0228 110.164 40.7327 109.645 41.496 109.271C42.2594 108.897 43.038 108.714 43.8395 108.714C44.9082 108.714 45.7632 108.951 46.3891 109.424C47.0151 109.897 47.3891 110.454 47.5189 111.087C47.6487 111.721 47.5189 112.362 47.122 112.995C46.7326 113.629 46.0456 114.11 45.0609 114.438C44.3892 114.674 43.7785 114.865 43.2212 115.01C42.664 115.155 42.1144 115.292 41.5724 115.422C41.0304 115.552 40.4731 115.666 39.9083 115.773C39.3434 115.88 38.7098 116.01 37.9999 116.155L38.2213 115.689L43.267 114.247C43.5571 114.155 43.8395 114.026 44.1143 113.85C44.3892 113.675 44.6334 113.461 44.8472 113.209C45.0685 112.957 45.2517 112.675 45.4044 112.377C45.5571 112.08 45.6563 111.767 45.6945 111.438C45.7327 111.255 45.7327 111.042 45.7098 110.782V110.774Z" fill="#F0EFEC"/>
<path d="M59.6104 111.591C59.5264 111.812 59.4119 111.98 59.2593 112.095C59.1066 112.217 58.931 112.286 58.7402 112.316C58.5493 112.347 58.3814 112.316 58.2364 112.247C57.8394 112.064 57.6028 111.812 57.5265 111.499C57.4501 111.179 57.4043 110.866 57.3738 110.546C57.3432 110.225 57.2745 109.958 57.1524 109.729C57.0303 109.5 56.7402 109.386 56.2669 109.386C55.5952 109.386 54.9692 109.637 54.3891 110.133C53.8089 110.637 53.2822 111.248 52.8242 111.973C52.3585 112.698 51.9692 113.468 51.641 114.277C51.3128 115.086 51.0608 115.796 50.8776 116.414C50.6792 117.177 50.5418 117.994 50.4654 118.864C50.3891 119.734 50.4349 120.535 50.5876 121.26C50.7402 121.985 51.0227 122.581 51.4349 123.031C51.8471 123.489 52.4272 123.664 53.1906 123.573C53.702 123.519 54.2059 123.359 54.702 123.1C55.1982 122.832 55.6715 122.504 56.1066 122.107C56.5417 121.711 56.9387 121.268 57.2898 120.802C57.641 120.329 57.9158 119.864 58.0913 119.414L58.557 119.497C58.3967 119.917 58.1371 120.398 57.7784 120.955C57.4272 121.512 56.9845 122.039 56.4578 122.535C55.931 123.031 55.328 123.474 54.641 123.84C53.9616 124.214 53.2059 124.427 52.3891 124.481C51.4273 124.557 50.641 124.374 50.0456 123.939C49.4425 123.504 49.0151 122.901 48.7479 122.138C48.4807 121.375 48.3738 120.497 48.4196 119.497C48.4654 118.498 48.6334 117.475 48.9235 116.414C49.2135 115.361 49.6105 114.369 50.1219 113.43C50.6334 112.492 51.2135 111.683 51.8776 110.988C52.5418 110.301 53.2593 109.752 54.0303 109.355C54.8013 108.958 55.5952 108.752 56.412 108.752C56.8852 108.752 57.3051 108.806 57.6639 108.912C58.0303 109.019 58.3432 109.164 58.618 109.347C58.8929 109.531 59.1142 109.744 59.2898 109.988C59.4654 110.233 59.5799 110.5 59.6333 110.79C59.6867 111.103 59.6715 111.362 59.5951 111.583L59.6104 111.591Z" fill="#F0EFEC"/>
<path d="M70.6027 109.195C71.1752 109.592 71.6103 110.149 71.9004 110.858C72.1905 111.568 72.3431 112.4 72.3508 113.354C72.3584 114.308 72.2057 115.338 71.9004 116.445C71.5874 117.536 71.1676 118.574 70.6332 119.566C70.0989 120.558 69.4806 121.421 68.7783 122.169C68.076 122.916 67.3203 123.504 66.5188 123.939C65.7096 124.374 64.9004 124.595 64.076 124.595C63.2516 124.595 62.5417 124.374 61.9768 123.939C61.4119 123.504 60.9921 122.916 60.7096 122.169C60.4272 121.421 60.2898 120.558 60.2974 119.566C60.3051 118.574 60.4654 117.536 60.7707 116.445C61.0608 115.353 61.473 114.331 62.0073 113.377C62.5417 112.423 63.1524 111.591 63.8317 110.881C64.5111 110.172 65.2516 109.614 66.0378 109.202C66.8317 108.79 67.6409 108.592 68.4806 108.592C69.3203 108.592 70.0225 108.79 70.5951 109.195H70.6027ZM70.4424 113.965C70.5951 113.11 70.6485 112.331 70.5951 111.622C70.5416 110.912 70.3432 110.324 69.992 109.866C69.6485 109.401 69.0913 109.172 68.3279 109.172C67.5645 109.172 66.8852 109.401 66.2974 109.866C65.7096 110.332 65.1829 110.92 64.7325 111.637C64.2745 112.354 63.8928 113.14 63.5722 113.995C63.2516 114.85 62.9844 115.666 62.7707 116.445C62.5493 117.246 62.3585 118.093 62.1982 118.979C62.0379 119.871 61.9768 120.688 62.0226 121.428C62.0684 122.176 62.2516 122.794 62.5798 123.283C62.9081 123.771 63.4501 124.015 64.2134 124.015C64.9768 124.015 65.6867 123.764 66.2821 123.267C66.8852 122.771 67.4119 122.146 67.8623 121.398C68.3203 120.65 68.7096 119.833 69.0378 118.948C69.3661 118.055 69.6409 117.223 69.8546 116.437C70.0912 115.636 70.2897 114.812 70.4424 113.957V113.965Z" fill="#F0EFEC"/>
<path d="M72.8775 124.054L74.5416 117.948C74.6867 117.437 74.8317 116.941 74.9615 116.452C75.0989 115.964 75.2286 115.483 75.3584 115.01C75.6714 113.919 75.908 112.972 76.0836 112.179C76.2592 111.377 76.305 110.782 76.2363 110.378C76.221 110.156 76.1218 110.126 75.9462 110.286C75.7706 110.439 75.5874 110.668 75.3889 110.965C75.1905 111.263 75.0073 111.568 74.847 111.866C74.6867 112.163 74.595 112.362 74.5721 112.453L74.3279 112.347C74.5111 111.713 74.7477 111.141 75.0378 110.645C75.3279 110.149 75.6332 109.737 75.9538 109.416C76.2744 109.096 76.5874 108.882 76.908 108.76C77.2286 108.645 77.5187 108.653 77.7935 108.798C77.992 108.905 78.1065 109.164 78.137 109.561C78.1675 109.958 78.1294 110.454 78.0301 111.034C77.9309 111.614 77.7859 112.255 77.6103 112.957C77.4271 113.659 77.2362 114.361 77.0378 115.071L74.6408 124.069H72.8928L72.8775 124.054ZM75.0607 121.489C75.2439 121.108 75.5111 120.528 75.8622 119.757C76.2134 118.986 76.6179 118.131 77.0607 117.193C77.5034 116.254 77.9996 115.3 78.5339 114.316C79.0683 113.331 79.6179 112.438 80.1828 111.629C80.7477 110.82 81.3202 110.156 81.9156 109.637C82.5034 109.118 83.0759 108.859 83.6179 108.859C83.9461 108.859 84.2591 108.92 84.5568 109.035C84.8545 109.157 85.0988 109.347 85.2896 109.622C85.4805 109.897 85.6102 110.271 85.6866 110.736C85.7553 111.21 85.7324 111.797 85.6026 112.507C85.5339 112.85 85.4041 113.316 85.2362 113.896C85.0606 114.476 84.8698 115.109 84.6484 115.789C84.427 116.468 84.2057 117.177 83.969 117.902C83.7324 118.627 83.5263 119.314 83.3431 119.948C83.1599 120.581 83.0148 121.138 82.908 121.611C82.8011 122.085 82.7629 122.413 82.8011 122.596C82.8927 122.833 83.0301 122.871 83.2209 122.718C83.4118 122.565 83.595 122.336 83.7782 122.039C83.9614 121.741 84.1217 121.428 84.2667 121.1C84.4118 120.772 84.5034 120.574 84.5415 120.497L84.7858 120.635C84.6026 121.253 84.3965 121.779 84.1599 122.214C83.9232 122.649 83.6713 123 83.4118 123.268C83.1522 123.535 82.8851 123.725 82.6179 123.84C82.3507 123.962 82.1064 124.008 81.8698 123.993C81.6713 123.977 81.4958 123.909 81.3355 123.802C81.1828 123.695 81.0607 123.55 80.969 123.367C80.8774 123.184 80.824 122.97 80.8087 122.726C80.7935 122.481 80.824 122.207 80.9156 121.894C81.137 121.184 81.3584 120.474 81.595 119.765C81.8316 119.055 82.0683 118.353 82.3202 117.651C82.5645 116.949 82.8011 116.239 83.0301 115.521C83.2591 114.804 83.4652 114.087 83.6408 113.385C83.969 112.095 84.1446 111.133 84.1751 110.492C84.2057 109.859 83.9919 109.538 83.5339 109.538C83.0759 109.523 82.5721 109.79 82.0225 110.34C81.4652 110.897 80.8927 111.614 80.2897 112.507C79.6866 113.4 79.0912 114.392 78.5034 115.491C77.9156 116.59 77.3584 117.681 76.8393 118.765C76.3202 119.849 75.8546 120.856 75.4347 121.787C75.0149 122.726 74.6866 123.474 74.45 124.038L75.0531 121.474L75.0607 121.489Z" fill="#F0EFEC"/>
<path d="M97.5186 113.285C97.6636 112.537 97.7247 111.912 97.7094 111.408C97.6942 110.897 97.6026 110.485 97.4499 110.172C97.2972 109.851 97.0758 109.63 96.7934 109.492C96.511 109.355 96.1827 109.286 95.801 109.286C95.0377 109.286 94.3278 109.515 93.6713 109.966C93.0148 110.423 92.4194 110.988 91.8698 111.667C91.3278 112.347 90.8545 113.102 90.4499 113.926C90.053 114.751 89.7247 115.537 89.4652 116.285C89.2286 117.048 89.0301 117.864 88.8622 118.734C88.6942 119.604 88.6179 120.413 88.6179 121.161C88.6179 121.909 88.7171 122.527 88.9156 123.016C89.1141 123.504 89.4499 123.748 89.9232 123.748C90.3431 123.748 90.8927 123.397 91.5721 122.688C92.2514 121.978 92.9919 121.031 93.7781 119.856C94.572 118.673 95.3659 117.315 96.1751 115.781C96.9842 114.247 97.7171 112.652 98.3735 110.996L97.9384 113.064C97.8316 113.354 97.6331 113.835 97.3354 114.506C97.0377 115.178 96.6865 115.926 96.259 116.758C95.8316 117.582 95.343 118.444 94.801 119.345C94.2591 120.245 93.6942 121.062 93.114 121.795C92.5339 122.527 91.9385 123.138 91.3431 123.611C90.74 124.084 90.1599 124.321 89.595 124.321C88.9767 124.321 88.4576 124.092 88.0377 123.641C87.6179 123.191 87.3125 122.581 87.1217 121.825C86.9309 121.07 86.8698 120.207 86.9309 119.238C86.9919 118.269 87.198 117.254 87.5415 116.201C87.8851 115.132 88.3354 114.132 88.8774 113.217C89.4194 112.301 90.0377 111.507 90.7324 110.843C91.427 110.179 92.1598 109.66 92.9385 109.279C93.7171 108.897 94.511 108.722 95.3125 108.76C96.1293 108.798 96.7934 108.958 97.3048 109.248C97.8163 109.538 98.198 109.943 98.4499 110.446L97.4957 113.278L97.5186 113.285ZM97.9919 122.619C97.6713 123.1 97.3506 123.458 97.0224 123.695C96.6942 123.931 96.3735 124.061 96.0682 124.076C95.7552 124.092 95.5033 124.023 95.2896 123.855C95.0835 123.695 94.9384 123.451 94.8545 123.13C94.7705 122.81 94.801 122.436 94.9461 122.001L95.8468 118.895L98.2743 110.149C98.4575 109.492 98.6178 108.874 98.7628 108.279C98.9079 107.691 99.03 107.149 99.1293 106.669C99.2285 106.188 99.3048 105.776 99.3506 105.44C99.3964 105.104 99.4117 104.875 99.3888 104.746C99.3506 104.639 99.2743 104.57 99.1598 104.555C99.0377 104.539 98.9079 104.539 98.7628 104.57C98.6178 104.601 98.4728 104.623 98.3277 104.639C98.1827 104.654 98.0529 104.646 97.9461 104.608L98.2209 104.257C98.5109 104.219 98.8086 104.166 99.1064 104.097C99.4041 104.021 99.7094 103.944 100.007 103.868C100.305 103.784 100.61 103.715 100.923 103.647C101.228 103.586 101.549 103.555 101.877 103.555C101.129 106.157 100.389 108.737 99.656 111.309C98.9232 113.881 98.2132 116.483 97.5415 119.116C97.4117 119.536 97.2972 119.925 97.198 120.291C97.0987 120.657 97.0071 120.986 96.9384 121.283C96.8697 121.581 96.8163 121.848 96.7858 122.085C96.7552 122.321 96.7552 122.52 96.7705 122.688C96.8774 122.924 97.03 122.962 97.2209 122.81C97.4117 122.657 97.6026 122.428 97.7934 122.13C97.9842 121.833 98.1445 121.52 98.2819 121.207C98.4193 120.886 98.4957 120.688 98.5109 120.596L98.7858 120.734C98.5644 121.512 98.2972 122.146 97.9842 122.626L97.9919 122.619Z" fill="#F0EFEC"/>
<path d="M105.206 124.054L105.343 123.703C105.488 123.703 105.671 123.68 105.9 123.634C106.129 123.588 106.305 123.496 106.435 123.344C106.633 123.123 106.854 122.68 107.106 122.008C107.351 121.337 107.61 120.551 107.885 119.65C108.16 118.75 108.434 117.788 108.717 116.758C108.999 115.735 109.267 114.743 109.518 113.797C109.755 112.965 110.015 112.041 110.297 111.034C110.58 110.027 110.839 109.057 111.091 108.134C111.343 107.211 111.526 106.386 111.648 105.684C111.778 104.974 111.801 104.509 111.732 104.295C111.679 104.15 111.549 104.051 111.351 104.005C111.152 103.959 110.976 103.937 110.831 103.937L110.915 103.555H115.442L115.335 103.906C115.19 103.906 115.007 103.937 114.778 103.99C114.549 104.043 114.366 104.143 114.221 104.288C114.022 104.509 113.801 104.921 113.564 105.539C113.328 106.157 113.091 106.875 112.839 107.691C112.595 108.508 112.35 109.378 112.106 110.309C111.862 111.232 111.618 112.125 111.381 112.98C111.305 113.217 111.19 113.613 111.03 114.163C110.87 114.72 110.686 115.346 110.488 116.056C110.289 116.765 110.083 117.513 109.877 118.292C109.671 119.07 109.48 119.81 109.32 120.497C109.16 121.192 109.038 121.787 108.969 122.298C108.893 122.81 108.885 123.153 108.938 123.336C108.992 123.481 109.122 123.58 109.32 123.626C109.518 123.672 109.702 123.695 109.862 123.695L109.755 124.046H105.228L105.206 124.054ZM110.961 112.988H119.656L119.465 113.613H110.77L110.961 112.988ZM116.465 122.321C116.663 121.825 116.877 121.237 117.091 120.566C117.312 119.894 117.526 119.177 117.747 118.414C117.969 117.651 118.175 116.918 118.373 116.208C118.572 115.499 118.747 114.857 118.892 114.285C119.037 113.713 119.152 113.278 119.244 112.988C119.48 112.148 119.724 111.263 119.976 110.332C120.228 109.393 120.465 108.516 120.671 107.691C120.877 106.867 121.037 106.134 121.144 105.509C121.251 104.883 121.274 104.471 121.198 104.272C121.144 104.127 121.015 104.028 120.816 103.982C120.618 103.937 120.434 103.914 120.274 103.914L120.412 103.563H124.908L124.801 103.914C124.64 103.914 124.45 103.937 124.228 103.982C124.007 104.028 123.831 104.127 123.686 104.272C123.488 104.509 123.251 104.974 122.992 105.677C122.724 106.379 122.465 107.188 122.198 108.119C121.931 109.05 121.663 110.019 121.396 111.034C121.121 112.049 120.862 112.995 120.602 113.865C120.35 114.812 120.068 115.789 119.77 116.811C119.473 117.826 119.205 118.78 118.976 119.673C118.747 120.566 118.579 121.337 118.457 122.001C118.335 122.665 118.32 123.115 118.389 123.351C118.442 123.496 118.572 123.596 118.77 123.641C118.969 123.687 119.152 123.71 119.312 123.71L119.205 124.061H114.709L114.816 123.71C114.976 123.71 115.167 123.687 115.373 123.641C115.579 123.596 115.763 123.504 115.908 123.351C116.068 123.168 116.251 122.833 116.45 122.329L116.465 122.321Z" fill="#F0EFEC"/>
<path d="M122.999 123.573C122.61 123.13 122.335 122.55 122.182 121.825C122.03 121.108 121.999 120.268 122.091 119.314C122.182 118.36 122.389 117.353 122.717 116.3C123.06 115.247 123.511 114.255 124.053 113.316C124.595 112.377 125.228 111.568 125.946 110.889C126.663 110.21 127.457 109.676 128.32 109.294C129.182 108.912 130.106 108.737 131.083 108.775C131.266 108.775 131.48 108.775 131.74 108.79C131.992 108.798 132.282 108.844 132.61 108.912C132.938 108.989 133.297 109.103 133.701 109.263C134.098 109.424 134.533 109.676 135.007 109.996L133.831 114.415C133.61 115.216 133.373 116.017 133.106 116.811C132.839 117.612 132.617 118.376 132.434 119.101C132.182 119.94 131.976 120.657 131.824 121.268C131.671 121.879 131.617 122.344 131.671 122.672C131.709 122.749 131.747 122.802 131.793 122.832C131.839 122.871 131.877 122.886 131.915 122.886C132.045 122.886 132.19 122.779 132.366 122.558C132.541 122.336 132.694 122.092 132.839 121.825C132.984 121.55 133.114 121.291 133.221 121.047C133.327 120.802 133.396 120.642 133.411 120.574L133.686 120.711C133.503 121.314 133.297 121.825 133.075 122.252C132.846 122.68 132.61 123.023 132.366 123.29C132.121 123.557 131.869 123.748 131.617 123.878C131.366 124.008 131.121 124.069 130.885 124.069C130.45 124.069 130.114 123.87 129.892 123.481C129.663 123.092 129.648 122.588 129.854 121.97L132.495 113.224C132.534 113.133 132.564 113.041 132.587 112.934C132.617 112.835 132.64 112.736 132.656 112.644C132.839 111.988 132.915 111.461 132.9 111.049C132.885 110.637 132.801 110.309 132.656 110.057C132.495 109.767 132.274 109.569 131.999 109.469C131.724 109.37 131.442 109.309 131.152 109.294C130.312 109.256 129.549 109.469 128.862 109.92C128.167 110.378 127.556 110.958 127.007 111.667C126.465 112.377 125.992 113.156 125.587 113.995C125.19 114.842 124.869 115.636 124.633 116.384C124.381 117.147 124.16 117.948 123.976 118.78C123.793 119.62 123.686 120.39 123.663 121.1C123.633 121.81 123.709 122.397 123.885 122.871C124.06 123.344 124.381 123.596 124.854 123.634C125.488 123.687 126.175 123.344 126.915 122.611C127.648 121.879 128.396 120.886 129.152 119.65C129.908 118.414 130.656 117.01 131.404 115.437C132.152 113.865 132.869 112.27 133.556 110.652L132.633 113.896C132.411 114.331 132.159 114.903 131.854 115.598C131.556 116.3 131.213 117.04 130.831 117.819C130.45 118.597 130.03 119.383 129.564 120.177C129.098 120.97 128.602 121.672 128.068 122.291C127.534 122.909 126.969 123.405 126.381 123.786C125.793 124.168 125.167 124.328 124.511 124.275C123.892 124.237 123.389 124 122.999 123.55V123.573Z" fill="#F0EFEC"/>
<path d="M135.77 124.054L137.434 117.948C137.579 117.437 137.724 116.941 137.854 116.452C137.992 115.964 138.121 115.483 138.251 115.01C138.564 113.919 138.801 112.972 138.976 112.179C139.152 111.377 139.198 110.782 139.129 110.378C139.114 110.156 139.015 110.126 138.839 110.286C138.663 110.439 138.48 110.668 138.282 110.965C138.083 111.263 137.9 111.568 137.74 111.866C137.579 112.163 137.488 112.362 137.465 112.453L137.221 112.347C137.404 111.713 137.64 111.141 137.931 110.645C138.221 110.149 138.526 109.737 138.847 109.416C139.167 109.096 139.48 108.882 139.801 108.76C140.121 108.645 140.411 108.653 140.686 108.798C140.885 108.905 140.999 109.164 141.03 109.561C141.06 109.958 141.022 110.454 140.923 111.034C140.824 111.614 140.679 112.255 140.503 112.957C140.32 113.659 140.129 114.361 139.931 115.071L137.534 124.069H135.786L135.77 124.054ZM137.953 121.489C138.137 121.108 138.404 120.528 138.755 119.757C139.106 118.986 139.511 118.131 139.953 117.193C140.396 116.254 140.892 115.3 141.427 114.316C141.961 113.331 142.511 112.438 143.076 111.629C143.64 110.82 144.213 110.156 144.808 109.637C145.396 109.118 145.969 108.859 146.511 108.859C146.839 108.859 147.152 108.92 147.45 109.035C147.747 109.157 147.992 109.347 148.182 109.622C148.373 109.897 148.503 110.271 148.579 110.736C148.648 111.21 148.625 111.797 148.495 112.507C148.427 112.85 148.297 113.316 148.129 113.896C147.953 114.476 147.763 115.109 147.541 115.789C147.32 116.468 147.098 117.177 146.862 117.902C146.625 118.627 146.419 119.314 146.236 119.948C146.053 120.581 145.908 121.138 145.801 121.611C145.694 122.085 145.656 122.413 145.694 122.596C145.785 122.833 145.923 122.871 146.114 122.718C146.305 122.565 146.488 122.336 146.671 122.039C146.854 121.741 147.014 121.428 147.159 121.1C147.305 120.772 147.396 120.574 147.434 120.497L147.679 120.635C147.495 121.253 147.289 121.779 147.053 122.214C146.816 122.649 146.564 123 146.305 123.268C146.045 123.535 145.778 123.725 145.511 123.84C145.243 123.962 144.999 124.008 144.763 123.993C144.564 123.977 144.389 123.909 144.228 123.802C144.076 123.695 143.953 123.55 143.862 123.367C143.77 123.184 143.717 122.97 143.702 122.726C143.686 122.481 143.717 122.207 143.808 121.894C144.03 121.184 144.251 120.474 144.488 119.765C144.724 119.055 144.961 118.353 145.213 117.651C145.457 116.949 145.694 116.239 145.923 115.521C146.152 114.804 146.358 114.087 146.534 113.385C146.862 112.095 147.037 111.133 147.068 110.492C147.098 109.859 146.885 109.538 146.427 109.538C145.969 109.523 145.465 109.79 144.915 110.34C144.358 110.897 143.785 111.614 143.182 112.507C142.579 113.4 141.984 114.392 141.396 115.491C140.808 116.59 140.251 117.681 139.732 118.765C139.213 119.849 138.747 120.856 138.328 121.787C137.908 122.726 137.579 123.474 137.343 124.038L137.946 121.474L137.953 121.489Z" fill="#F0EFEC"/>
<path d="M160.419 113.285C160.564 112.537 160.625 111.912 160.61 111.408C160.594 110.897 160.503 110.485 160.35 110.172C160.197 109.851 159.976 109.63 159.694 109.492C159.411 109.355 159.083 109.286 158.701 109.286C157.938 109.286 157.228 109.515 156.572 109.966C155.915 110.423 155.32 110.988 154.77 111.667C154.228 112.347 153.755 113.102 153.35 113.926C152.953 114.751 152.625 115.537 152.365 116.285C152.129 117.048 151.93 117.864 151.762 118.734C151.594 119.604 151.518 120.413 151.518 121.161C151.518 121.909 151.617 122.527 151.816 123.016C152.014 123.504 152.35 123.748 152.823 123.748C153.243 123.748 153.793 123.397 154.472 122.688C155.152 121.978 155.892 121.031 156.678 119.856C157.472 118.673 158.266 117.315 159.075 115.781C159.885 114.247 160.617 112.652 161.274 110.996L160.839 113.064C160.732 113.354 160.533 113.835 160.236 114.506C159.938 115.178 159.587 115.926 159.159 116.758C158.732 117.582 158.243 118.444 157.701 119.345C157.159 120.245 156.594 121.062 156.014 121.795C155.434 122.527 154.839 123.138 154.243 123.611C153.64 124.084 153.06 124.321 152.495 124.321C151.877 124.321 151.358 124.092 150.938 123.641C150.518 123.191 150.213 122.581 150.022 121.825C149.831 121.07 149.77 120.207 149.831 119.238C149.892 118.269 150.098 117.254 150.442 116.201C150.785 115.132 151.236 114.132 151.778 113.217C152.32 112.301 152.938 111.507 153.633 110.843C154.327 110.179 155.06 109.66 155.839 109.279C156.617 108.897 157.411 108.722 158.213 108.76C159.03 108.798 159.694 108.958 160.205 109.248C160.717 109.538 161.098 109.943 161.35 110.446L160.396 113.278L160.419 113.285ZM160.892 122.619C160.572 123.1 160.251 123.458 159.923 123.695C159.594 123.931 159.274 124.061 158.968 124.076C158.656 124.092 158.404 124.023 158.19 123.855C157.984 123.695 157.839 123.451 157.755 123.13C157.671 122.81 157.701 122.436 157.846 122.001L158.747 118.895L161.175 110.149C161.358 109.492 161.518 108.874 161.663 108.279C161.808 107.691 161.93 107.149 162.03 106.669C162.129 106.188 162.205 105.776 162.251 105.44C162.297 105.104 162.312 104.875 162.289 104.746C162.251 104.639 162.175 104.57 162.06 104.555C161.938 104.539 161.808 104.539 161.663 104.57C161.518 104.601 161.373 104.623 161.228 104.639C161.083 104.654 160.953 104.646 160.846 104.608L161.121 104.257C161.411 104.219 161.709 104.166 162.007 104.097C162.304 104.021 162.61 103.944 162.907 103.868C163.205 103.784 163.51 103.715 163.823 103.647C164.129 103.586 164.449 103.555 164.778 103.555C164.03 106.157 163.289 108.737 162.556 111.309C161.823 113.881 161.114 116.483 160.442 119.116C160.312 119.536 160.197 119.925 160.098 120.291C159.999 120.657 159.907 120.986 159.839 121.283C159.77 121.581 159.717 121.848 159.686 122.085C159.655 122.321 159.655 122.52 159.671 122.688C159.778 122.924 159.93 122.962 160.121 122.81C160.312 122.657 160.503 122.428 160.694 122.13C160.884 121.833 161.045 121.52 161.182 121.207C161.32 120.886 161.396 120.688 161.411 120.596L161.686 120.734C161.465 121.512 161.197 122.146 160.884 122.626L160.892 122.619Z" fill="#F0EFEC"/>
<path d="M116.557 46.6306H115.74C112.198 36.2745 88.114 33.3668 83.3889 38.9074V65.5265H103.931C105.564 65.5265 106.022 61.1689 106.022 60.2607H106.656V71.2503H106.022C106.022 70.3421 105.656 66.4347 103.931 66.4347H83.3889V95.0533C83.3889 95.8699 83.3889 97.961 87.572 98.2357V98.6936H65.0378V98.2357C69.221 97.961 69.221 95.8699 69.221 95.0533V38.6403C69.221 37.8237 69.221 35.7326 65.0378 35.4579V35H113.289L116.564 46.6306H116.557Z" fill="#F0EFEC"/>
<path d="M110.954 98.6631C111.809 98.6326 112.694 98.6707 113.564 98.8081C116.641 87.8491 124.03 79.1032 135.335 79.1032C142.427 79.1032 148.969 84.3767 151.327 93.4583H152.144L148.686 79.2864L146.961 80.744C143.869 79.2864 139.869 78.2943 135.327 78.2027C115.961 77.5464 104.198 88.4749 100.328 101.533C100.343 101.533 100.358 101.533 100.366 101.533C103.442 99.7239 107.427 98.8005 110.946 98.6784L110.954 98.6631Z" fill="#F0EFEC"/>
<path d="M136.427 143.026C124.717 142.835 117.389 135.203 114.053 125.32C113.679 125.824 113.167 126.213 112.564 126.351C110.625 126.793 108.549 126.976 106.564 126.908C104.946 126.854 103.137 126.633 101.694 125.801C106.618 136.92 118.114 145.262 136.434 143.842C142.251 143.476 146.434 141.393 147.068 141.209L149.518 143.392L151.427 130.22H150.701C149.793 133.128 145.251 143.209 136.434 143.033L136.427 143.026Z" fill="#F0EFEC"/>
</svg>
