<svg fill="none" height="114" viewBox="0 0 150 114" width="150" xmlns="http://www.w3.org/2000/svg"><g fill="#10121d"><path d="m.119522 92.3276c.095617-.3585.207171-.7966.342629-1.3064.135459-.5099.270917-1.0675.430279-1.6809.15139-.6054.29482-1.171.43028-1.6888s.24701-.9639.34263-1.3224.14343-.5497.14343-.5656l.62948-.0319c-.30279 1.195-.46215 2.2226-.47012 3.0909-.00797.8603.09562 1.5773.31075 2.1349.21514.5577.54184.9719.98008 1.2348.43825.2629.94821.3903 1.53785.3664.58964 0 1.17132-.0956 1.75299-.3027.58167-.1991 1.11554-.4859 1.60956-.8524.49403-.3664.91634-.8364 1.26694-1.394.35059-.5577.6135-1.2029.7809-1.9199.231-.9878.2151-1.8322-.0319-2.5491-.24701-.709-.61355-1.3543-1.0996-1.9358-.48606-.5816-1.02789-1.1153-1.6255-1.6251-.59761-.5019-1.13147-1.0277-1.60956-1.5773-.47809-.5497-.82869-1.1631-1.06773-1.8322-.23905-.6692-.23905-1.4658-.01594-2.3739.23108-.8683.58168-1.6251 1.0518-2.2465.47011-.6293 1.01195-1.1392 1.60956-1.5375s1.22709-.693 1.88048-.8842c.65338-.1912 1.28289-.2868 1.89639-.2868.494 0 .9084.0478 1.251.1434s.6375.2071.8924.3266c.255.1275.4861.2549.6853.3824s.4064.2469.6136.3425l.486-.8842.5976-.0319s-.0398.2072-.1275.5577c-.0876.3505-.1912.7886-.3107 1.3064-.1196.5178-.255 1.0834-.3984 1.6809-.1435.5974-.271 1.1551-.3984 1.6808-.1275.5258-.2311.956-.3108 1.3065-.0876.3505-.1275.5337-.1275.5576h-.5099c.1513-1.179.2151-2.1907.1992-3.0431-.016-.8523-.1275-1.5613-.3108-2.119-.1912-.5576-.4622-.9718-.8287-1.2347-.3586-.2629-.8048-.3983-1.3386-.3983-.4941 0-.9801.0796-1.46617.231-.48606.1514-.93227.3824-1.33865.6851-.40637.3027-.76494.6771-1.08366 1.1073-.31076.4381-.55777.932-.7251 1.4817-.23108.8364-.21514 1.5693.03187 2.2066s.61355 1.2268 1.0996 1.7605c.48606.5417 1.02789 1.0675 1.6255 1.5773.59761.5099 1.13941 1.0755 1.62551 1.6888.486.6134.8366 1.3065 1.0677 2.0792.2311.7648.2152 1.6809-.0319 2.7483-.231.9321-.5976 1.7605-1.1075 2.4855-.51.7329-1.10759 1.3462-1.77692 1.8481-.66932.5019-1.40239.8843-2.19123 1.1392-.78885.2549-1.56972.3823-2.3506.3823-.70119 0-1.35458-.1115-1.96016-.3266s-1.0996-.5178-1.48207-.8922l-.565738.8843h-.629482s.0478087-.2072.143426-.5656z"/><path d="m24.749 79.0958c-.0319-.2628-.1116-.5098-.255-.7408s-.3586-.4142-.6534-.5656-.7012-.2071-1.2112-.1673c-.5099.0398-.988.1753-1.4263.4142-.4382.239-.8366.5497-1.2111.94-.3665.3904-.7092.8285-1.012 1.3224-.3027.4939-.5816 1.0038-.8286 1.5375-.2471.5337-.4622 1.0595-.6534 1.5773-.1913.5258-.3506 1.0117-.4861 1.4658-.2868.9878-.4542 1.9357-.494 2.8598-.0478.9241.0319 1.7207.239 2.3899.2072.6771.5419 1.1949 1.012 1.5613.4621.3665 1.0518.5098 1.753.4143.5498-.0797 1.0996-.2789 1.6494-.5975.5498-.3187 1.0757-.709 1.5777-1.1551s.9641-.932 1.3944-1.4498.7888-1.0197 1.0996-1.4977l.486.0877c-.2629.4779-.6135 1.0276-1.0517 1.6649-.4383.6373-.9562 1.2427-1.5618 1.8242-.6056.5816-1.2908 1.0834-2.0637 1.5056-.765.4302-1.6096.6692-2.518.7249-.9322.0558-1.7052-.1115-2.3187-.4938-.6135-.3904-1.0757-.956-1.3625-1.6889-.2869-.7329-.4303-1.633-.4144-2.6766s.2072-2.1987.5657-3.4732c.3267-1.179.749-2.2545 1.2829-3.2263.5339-.9799 1.1395-1.8083 1.8327-2.5014s1.4342-1.2347 2.2311-1.6251c.7968-.3903 1.6095-.5815 2.4462-.5815 1.1155 0 2.0079.2469 2.6613.7408s1.0439 1.0755 1.1793 1.7367c.1355.6611 0 1.3303-.4143 1.9915-.4064.6612-1.1235 1.163-2.1514 1.5056-.7012.2469-1.3387.4461-1.9203.5975-.5817.1513-1.1554.2947-1.7212.4301-.5657.1355-1.1474.2549-1.737.3665-.5897.1115-1.251.2469-1.992.3983l.231-.486 5.267-1.5056c.3028-.0956.5976-.231.8844-.4142.2869-.1832.5419-.4063.765-.6692.231-.2628.4223-.5576.5816-.8683.1594-.3106.263-.6373.3028-.9798.0399-.1912.0399-.4142.016-.6851z"/><path d="m39.2589 79.9482c-.0876.231-.2072.4063-.3665.5258-.1594.1274-.3427.1991-.5419.231s-.3745 0-.5259-.0717c-.4143-.1912-.6613-.4541-.741-.7807-.0797-.3346-.1275-.6612-.1594-.9957-.0318-.3346-.1035-.6134-.231-.8524s-.4303-.3585-.9243-.3585c-.7012 0-1.3546.2629-1.9602.7807-.6056.5258-1.1554 1.163-1.6335 1.9198-.486.7568-.8924 1.5614-1.235 2.4058-.3427.8444-.6056 1.5853-.7968 2.2305-.2072.7966-.3506 1.649-.4303 2.5572-.0797.9081-.0319 1.7445.1275 2.5013.1593.7568.4542 1.3782.8844 1.8482.4303.4779 1.0359.6612 1.8327.5656.5339-.0558 1.0598-.2231 1.5777-.4939.5179-.2789 1.0119-.6214 1.4661-1.0356.4542-.4143.8686-.8763 1.2351-1.3622.3665-.4939.6534-.9799.8366-1.4499l.4861.0876c-.1673.4382-.4382.94-.8127 1.5216-.3666.5815-.8287 1.1312-1.3785 1.649s-1.1793.9798-1.8964 1.3622c-.7092.3903-1.4981.6134-2.3506.6691-1.004.0797-1.8247-.1115-2.4463-.5656-.6294-.454-1.0757-1.0834-1.3545-1.88-.2789-.7966-.3905-1.7127-.3427-2.7563.0478-1.0435.2231-2.111.5259-3.2183.3028-1.0993.7172-2.1349 1.251-3.1147.5339-.9799 1.1395-1.8243 1.8327-2.5492.6932-.717 1.4422-1.2905 2.247-1.7048.8048-.4142 1.6335-.6293 2.4861-.6293.494 0 .9322.0558 1.3067.1673.3825.1115.7092.2629.996.4541.2869.1912.518.4142.7012.6691.1833.2549.3028.5338.3586.8365.0558.3266.0398.5974-.0398.8284z"/><path d="m50.7329 77.4469c.5976.4142 1.0518.9957 1.3546 1.7366.3027.7408.4621 1.6091.4701 2.6049.0079.9958-.1514 2.0712-.4701 3.2263-.3267 1.1391-.765 2.2225-1.3228 3.2581-.5577 1.0356-1.2031 1.9358-1.9362 2.7165s-1.5219 1.3941-2.3586 1.8481c-.8446.4541-1.6892.6851-2.5498.6851-.8605 0-1.6016-.231-2.1912-.6851-.5897-.454-1.0279-1.0674-1.3227-1.8481s-.4383-1.6809-.4303-2.7165.1753-2.119.494-3.2581c.3028-1.1392.7331-2.2066 1.2909-3.2024.5577-.9958 1.1952-1.8641 1.9043-2.6049.7092-.7409 1.4821-1.3224 2.3028-1.7526.8287-.4302 1.6733-.6373 2.5498-.6373s1.6096.2071 2.2072.6294zm-.1674 4.9788c.1594-.8922.2152-1.7048.1594-2.4456-.0558-.7409-.2629-1.3543-.6295-1.8322-.3585-.486-.9402-.7249-1.737-.7249s-1.506.2389-2.1196.7249c-.6135.4859-1.1633 1.0993-1.6334 1.8481-.4781.7488-.8765 1.5694-1.2112 2.4616-.3346.8922-.6135 1.7445-.8366 2.5571-.2311.8364-.4303 1.7207-.5976 2.6448-.1674.932-.2311 1.7844-.1833 2.5571.0478.7807.239 1.4259.5817 1.9358.3426.5098.9083.7647 1.7051.7647.7969 0 1.5379-.2629 2.1594-.7807.6295-.5178 1.1793-1.171 1.6494-1.9517.4781-.7807.8845-1.633 1.2271-2.5571.3426-.9321.6295-1.8004.8526-2.6209.247-.8364.4542-1.6968.6135-2.589z"/><path d="m53.1074 92.9569 1.7371-6.3729c.1514-.5337.3028-1.0515.4382-1.5613.1434-.5099.2789-1.0117.4144-1.5056.3267-1.1392.5737-2.127.7569-2.9555.1833-.8364.2311-1.4578.1594-1.88-.0159-.231-.1195-.2629-.3028-.0956-.1833.1593-.3745.3983-.5817.709-.2071.3107-.3984.6293-.5657.94s-.2629.5178-.2869.6134l-.2549-.1115c.1912-.6612.4382-1.2587.741-1.7765s.6215-.9479.9562-1.2825c.3346-.3346.6613-.5577.996-.6851.3347-.1195.6374-.1115.9243.0398.2072.1116.3267.3824.3586.7966.0318.4143-.008.9321-.1116 1.5375s-.255 1.2746-.4382 2.0075c-.1913.7329-.3905 1.4657-.5977 2.2066l-2.5019 9.3921h-1.8247zm2.2789-2.6766c.1912-.3983.4701-1.0037.8367-1.8083.3665-.8046.7888-1.6968 1.251-2.6766.4621-.9799.98-1.9756 1.5378-3.0033.5578-1.0276 1.1315-1.9596 1.7211-2.804.5897-.8444 1.1873-1.5375 1.8088-2.0792.6135-.5417 1.2111-.8126 1.7769-.8126.3426 0 .6693.0638.9801.1833.3107.1274.5657.3266.7649.6134.1992.2867.3347.6771.4143 1.163.0718.4939.0478 1.1073-.0876 1.8482-.0717.3584-.2072.8444-.3825 1.4498-.1832.6054-.3825 1.2666-.6135 1.9756-.2311.709-.4622 1.4498-.7092 2.2066s-.4621 1.4738-.6534 2.135c-.1912.6611-.3426 1.2427-.4542 1.7366-.1115.4939-.1514.8364-.1115 1.0276.0956.247.239.2868.4382.1275.1992-.1594.3905-.3983.5817-.709s.3586-.6373.51-.9799c.1514-.3425.247-.5496.2868-.6293l.255.1434c-.1912.6453-.4064 1.1949-.6534 1.649s-.5099.8205-.7809 1.0993c-.2709.2788-.5498.478-.8286.5975-.2789.1274-.5339.1752-.7809.1593-.2072-.0159-.3905-.0876-.5578-.1991-.1594-.1116-.2868-.2629-.3825-.4541-.0956-.1912-.1514-.4142-.1673-.6692-.0159-.2549.0159-.5417.1116-.8683.231-.7408.4621-1.4817.7091-2.2225.247-.7409.494-1.4738.757-2.2067.255-.7328.502-1.4737.741-2.2225.2391-.7488.4542-1.4976.6375-2.2305.3426-1.3463.5259-2.35.5578-3.0192.0318-.6612-.1913-.9958-.6694-.9958-.4781-.0159-1.004.2629-1.5777.8365-.5816.5815-1.1792 1.3303-1.8087 2.2624-.6295.932-1.251 1.9676-1.8646 3.1147-.6135 1.1472-1.1952 2.2863-1.737 3.4175-.5419 1.1312-1.0279 2.1827-1.4662 3.1546-.4382.9798-.7808 1.7605-1.0278 2.35l.6294-2.6766z"/><path d="m78.8285 81.7167c.1514-.7807.2151-1.4339.1992-1.9597-.0159-.5337-.1115-.9639-.2709-1.2905-.1594-.3345-.3904-.5656-.6853-.709-.2948-.1433-.6374-.215-1.0358-.215-.7968 0-1.5379.2389-2.2231.7089-.6853.478-1.3068 1.0675-1.8805 1.7765-.5657.709-1.0598 1.4976-1.4821 2.358-.4143.8603-.757 1.6808-1.0279 2.4615-.247.7966-.4541 1.649-.6294 2.5571-.1753.9082-.255 1.7526-.255 2.5333s.1036 1.4259.3107 1.9357c.2072.5099.5578.7648 1.0518.7648.4383 0 1.012-.3664 1.7211-1.1073.7092-.7408 1.4821-1.7287 2.3028-2.9554.8287-1.2348 1.6574-2.6528 2.502-4.254s1.6096-3.2661 2.2948-4.9947l-.4541 2.1588c-.1116.3027-.3188.8046-.6295 1.5056-.3108.701-.6773 1.4817-1.1235 2.35-.4463.8604-.9562 1.7605-1.5219 2.7005-.5658.94-1.1554 1.7924-1.761 2.5572-.6056.7647-1.2271 1.402-1.8486 1.8959-.6295.4939-1.2351.7409-1.8247.7409-.6454 0-1.1873-.239-1.6255-.709-.4383-.47-.757-1.1073-.9562-1.896-.1992-.7886-.2629-1.6888-.1992-2.7005.0638-1.0117.2789-2.0712.6375-3.1705.3585-1.1153.8286-2.1588 1.3944-3.1148.5657-.9559 1.2111-1.7844 1.9362-2.4774.7251-.6931 1.4901-1.2348 2.3028-1.6331.8128-.3983 1.6415-.5815 2.4781-.5417.8526.0398 1.5458.2071 2.0797.5098s.9323.7249 1.1952 1.2507l-.996 2.9554zm.494 9.7426c-.3346.5019-.6693.8763-1.0119 1.1232-.3427.247-.6773.3824-.996.3984-.3267.0159-.5897-.0558-.8128-.2311-.2151-.1673-.3665-.4222-.4542-.7568-.0876-.3345-.0557-.7249.0956-1.1789l.9403-3.2423 2.5338-9.1292c.1913-.6851.3586-1.3303.51-1.9517.1514-.6134.2789-1.179.3825-1.6808.1036-.5019.1833-.9321.2311-1.2826s.0637-.5895.0398-.7249c-.0398-.1115-.1195-.1832-.239-.1992-.1275-.0159-.263-.0159-.4144.016-.1514.0318-.3028.0557-.4542.0717-.1514.0159-.2868.0079-.3984-.0319l.2869-.3664c.3028-.0399.6135-.0956.9243-.1673.3107-.0797.6295-.1593.9402-.239.3108-.0876.6295-.1593.9562-.231.3187-.0638.6534-.0956.996-.0956-.7809 2.7164-1.5538 5.409-2.3187 8.0936-.765 2.6846-1.506 5.401-2.2072 8.1494-.1354.4381-.255.8444-.3586 1.2267-.1035.3824-.1992.725-.2709 1.0356-.0717.3107-.1275.5895-.1593.8365-.0319.2469-.0319.4541-.016.6293.1116.247.2709.2868.4701.1275.1993-.1594.3985-.3983.5977-.709s.3665-.6373.5099-.9639c.1434-.3346.2231-.5417.2391-.6373l.2868.1434c-.2311.8125-.5099 1.4737-.8366 1.9756z"/><path d="m86.8525 92.9569.1435-.3664c.1514 0 .3426-.0239.5816-.0717.2391-.0478.4223-.1434.5578-.3027.2072-.231.4383-.6931.7012-1.3941.255-.701.5259-1.5215.8128-2.4615.2868-.94.5737-1.9438.8685-3.0192.2948-1.0674.5737-2.1031.8366-3.0909.247-.8683.518-1.8322.8128-2.8837s.5657-2.0632.8287-3.0271c.2629-.9639.4542-1.8243.5816-2.5572.1355-.7408.1594-1.2267.0877-1.4498-.0558-.1514-.1912-.2549-.3984-.3027s-.3905-.0717-.5418-.0717l.0876-.3983h4.7251l-.1116.3664c-.1513 0-.3426.0319-.5816.0877-.2391.0557-.4303.1593-.5817.3106-.2072.2311-.4382.6612-.6853 1.3065-.247.6452-.494 1.3941-.7569 2.2464-.255.8524-.51 1.7605-.765 2.7324-.255.9639-.5099 1.896-.7569 2.7882-.0797.2469-.1993.6612-.3666 1.2347-.1673.5816-.3585 1.2348-.5657 1.9756-.2072.7409-.4223 1.5216-.6375 2.3341-.2151.8126-.4143 1.5853-.5816 2.3022-.1674.7249-.2949 1.3463-.3666 1.88-.0797.5338-.0876.8922-.0318 1.0834.0557.1514.1912.2549.3984.3027.2071.0478.3984.0717.5657.0717l-.1116.3665h-4.7251zm6.008-11.5509h9.0755l-.199.6533h-9.0757zm5.745 9.7426c.2072-.5178.4303-1.1312.6534-1.8322.2311-.701.4542-1.4498.6853-2.2464.2308-.7966.4458-1.5614.6538-2.3022.207-.7409.39-1.4101.541-2.0075.152-.5975.271-1.0515.367-1.3543.247-.8762.502-1.8003.765-2.7722.263-.9798.51-1.8959.725-2.7563.215-.8603.382-1.6251.494-2.2783s.135-1.0834.056-1.2905c-.056-.1514-.191-.2549-.399-.3027-.207-.0478-.398-.0717-.565-.0717l.143-.3664h4.693l-.111.3664c-.168 0-.367.0239-.598.0717s-.414.1513-.566.3027c-.207.247-.454.7329-.725 1.4658-.279.7329-.55 1.5773-.828 2.5491-.279.9719-.558 1.9836-.837 3.0431-.287 1.0595-.558 2.0473-.829 2.9554-.263.9878-.558 2.0075-.868 3.075-.311 1.0595-.59 2.0552-.829 2.9873-.239.932-.414 1.7366-.542 2.4297-.127.693-.143 1.163-.072 1.41.056.1513.192.2549.399.3027s.398.0717.566.0717l-.112.3664h-4.6931l.1115-.3664c.1673 0 .3665-.0239.5817-.0717.2151-.0478.4064-.1434.5578-.3027.1673-.1912.3585-.5417.5657-1.0675z"/><path d="m105.426 92.4551c-.406-.4621-.693-1.0675-.852-1.8243-.16-.7488-.192-1.6251-.096-2.6208.096-.9958.311-2.0473.653-3.1467.359-1.0993.829-2.1349 1.395-3.1147.566-.9799 1.227-1.8243 1.976-2.5333s1.578-1.2666 2.478-1.6649 1.865-.5815 2.885-.5417c.191 0 .414 0 .685.0159.263.008.566.0558.908.1275.343.0797.717.1992 1.14.3664.414.1673.868.4302 1.362.7648l-1.227 4.6124c-.231.8364-.478 1.6729-.757 2.5014-.279.8364-.51 1.633-.701 2.3898-.263.8763-.478 1.6251-.638 2.2624-.159.6373-.215 1.1232-.159 1.4658.04.0796.08.1354.128.1672.047.0399.087.0558.127.0558.136 0 .287-.1115.47-.3425.183-.2311.343-.486.494-.7648.152-.2868.287-.5576.399-.8125.111-.2549.183-.4222.199-.4939l.287.1434c-.192.6293-.407 1.163-.638 1.6091-.239.4461-.486.8046-.741 1.0834s-.518.478-.781.6134-.518.1992-.765.1992c-.454 0-.804-.2072-1.035-.6134-.24-.4063-.255-.9321-.04-1.5773l2.757-9.1292c.04-.0956.071-.1912.095-.3027.032-.1036.056-.2072.072-.3028.191-.685.271-1.2347.255-1.6649s-.104-.7727-.255-1.0356c-.167-.3027-.398-.5098-.685-.6134-.287-.1035-.582-.1673-.885-.1832-.876-.0398-1.673.1832-2.39.6532-.725.478-1.363 1.0834-1.936 1.8243-.566.7408-1.06 1.5534-1.482 2.4297-.415.8842-.749 1.7127-.997 2.4934-.262.7966-.494 1.633-.685 2.5013-.191.8763-.303 1.6809-.326 2.4217-.032.7409.047 1.3543.231 1.8482.183.4939.518.7568 1.012.7966.661.0558 1.378-.3027 2.151-1.0675.765-.7647 1.546-1.8003 2.335-3.0908.788-1.2905 1.569-2.7563 2.35-4.3973.781-1.6411 1.53-3.306 2.247-4.9948l-.964 3.3856c-.231.4541-.494 1.0515-.813 1.7764-.31.7329-.669 1.5056-1.067 2.3182-.399.8125-.837 1.6331-1.323 2.4615-.486.8285-1.004 1.5614-1.562 2.2066-.558.6453-1.147 1.1631-1.761 1.5614-.613.3983-1.267.5656-1.952.5099-.645-.0399-1.171-.2868-1.578-.7568z"/><path d="m118.757 92.9569 1.737-6.3729c.151-.5337.303-1.0515.438-1.5613.144-.5099.279-1.0117.414-1.5056.327-1.1392.574-2.127.757-2.9555.184-.8364.232-1.4578.16-1.88-.016-.231-.12-.2629-.303-.0956-.183.1593-.374.3983-.582.709-.207.3107-.398.6293-.565.94-.168.3107-.263.5178-.287.6134l-.255-.1115c.191-.6612.438-1.2587.741-1.7765s.621-.9479.956-1.2825.661-.5577.996-.6851c.335-.1195.637-.1115.924.0398.207.1116.327.3824.359.7966.032.4143-.008.9321-.112 1.5375-.103.6054-.255 1.2746-.438 2.0075-.191.7329-.39 1.4657-.598 2.2066l-2.502 9.3921h-1.824zm2.279-2.6766c.191-.3983.47-1.0037.836-1.8083.367-.8046.789-1.6968 1.251-2.6766.463-.9799.98-1.9756 1.538-3.0033.558-1.0276 1.132-1.9596 1.721-2.804.59-.8444 1.188-1.5375 1.809-2.0792.614-.5417 1.211-.8126 1.777-.8126.343 0 .669.0638.98.1833.311.1274.566.3266.765.6134.199.2867.335.6771.414 1.163.072.4939.048 1.1073-.087 1.8482-.072.3584-.207.8444-.383 1.4498-.183.6054-.382 1.2666-.613 1.9756s-.462 1.4498-.709 2.2066-.463 1.4738-.654 2.135c-.191.6611-.342 1.2427-.454 1.7366s-.151.8364-.112 1.0276c.096.247.239.2868.439.1275.199-.1594.39-.3983.581-.709.192-.3107.359-.6373.51-.9799.152-.3425.247-.5496.287-.6293l.255.1434c-.191.6453-.406 1.1949-.653 1.649s-.51.8205-.781 1.0993-.55.478-.829.5975c-.279.1274-.534.1752-.781.1593-.207-.0159-.39-.0876-.557-.1991-.16-.1116-.287-.2629-.383-.4541s-.151-.4142-.167-.6692c-.016-.2549.016-.5417.111-.8683.231-.7408.462-1.4817.709-2.2225.247-.7409.494-1.4738.757-2.2067.255-.7328.502-1.4737.741-2.2225s.455-1.4976.638-2.2305c.343-1.3463.526-2.35.558-3.0192.032-.6612-.192-.9958-.67-.9958-.478-.0159-1.004.2629-1.577.8365-.582.5815-1.18 1.3303-1.809 2.2624-.63.932-1.251 1.9676-1.865 3.1147-.613 1.1472-1.195 2.2863-1.737 3.4175s-1.028 2.1827-1.466 3.1546c-.438.9798-.781 1.7605-1.028 2.35l.63-2.6766z"/><path d="m144.486 81.7167c.152-.7807.215-1.4339.199-1.9597-.016-.5337-.111-.9639-.27-1.2905-.16-.3345-.391-.5656-.686-.709-.295-.1433-.637-.215-1.036-.215-.796 0-1.537.2389-2.223.7089-.685.478-1.306 1.0675-1.88 1.7765-.566.709-1.06 1.4976-1.482 2.358-.415.8603-.757 1.6808-1.028 2.4615-.247.7966-.454 1.649-.63 2.5571-.175.9082-.255 1.7526-.255 2.5333s.104 1.4259.311 1.9357c.207.5099.558.7648 1.052.7648.438 0 1.012-.3664 1.721-1.1073.709-.7408 1.482-1.7287 2.303-2.9554.829-1.2348 1.657-2.6528 2.502-4.254.844-1.6012 1.609-3.2661 2.295-4.9947l-.455 2.1588c-.111.3027-.318.8046-.629 1.5056s-.677 1.4817-1.124 2.35c-.446.8604-.956 1.7605-1.521 2.7005-.566.94-1.156 1.7924-1.761 2.5572-.606.7647-1.227 1.402-1.849 1.8959-.629.4939-1.235.7409-1.825.7409-.645 0-1.187-.239-1.625-.709s-.757-1.1073-.956-1.896c-.2-.7886-.263-1.6888-.2-2.7005.064-1.0117.279-2.0712.638-3.1705.358-1.1153.829-2.1588 1.394-3.1148.566-.9559 1.211-1.7844 1.937-2.4774.725-.6931 1.49-1.2348 2.302-1.6331.813-.3983 1.642-.5815 2.478-.5417.853.0398 1.546.2071 2.08.5098s.932.7249 1.195 1.2507l-.996 2.9554zm.494 9.7426c-.334.5019-.669.8763-1.012 1.1232-.342.247-.677.3824-.996.3984-.326.0159-.589-.0558-.812-.2311-.216-.1673-.367-.4222-.455-.7568-.087-.3345-.055-.7249.096-1.1789l.94-3.2423 2.534-9.1292c.191-.6851.359-1.3303.51-1.9517.151-.6134.279-1.179.382-1.6808.104-.5019.184-.9321.232-1.2826.047-.3505.063-.5895.039-.7249-.039-.1115-.119-.1832-.239-.1992-.127-.0159-.263-.0159-.414.016-.151.0318-.303.0557-.454.0717-.152.0159-.287.0079-.399-.0319l.287-.3664c.303-.0399.614-.0956.925-.1673.31-.0797.629-.1593.94-.239.311-.0876.629-.1593.956-.231.319-.0638.653-.0956.996-.0956-.781 2.7164-1.554 5.409-2.319 8.0936s-1.506 5.401-2.207 8.1494c-.135.4381-.255.8444-.358 1.2267-.104.3824-.2.725-.271 1.0356-.072.3107-.128.5895-.16.8365-.032.2469-.032.4541-.016.6293.112.247.271.2868.47.1275.2-.1594.399-.3983.598-.709s.367-.6373.51-.9639c.143-.3346.223-.5417.239-.6373l.287.1434c-.231.8125-.51 1.4737-.837 1.9756z"/><path d="m98.7012 12.1404h-.8526c-3.6972-10.81005-28.8366-13.84516-33.7689-8.06174v27.78594h21.4422c1.7052 0 2.1833-4.5487 2.1833-5.4967h.6614v11.4713h-.6614c0-.948-.3825-5.0267-2.1833-5.0267h-21.4422v29.8731c0 .8524 0 3.0351 4.3665 3.3219v.4779h-23.5219v-.4779c4.3666-.2868 4.3666-2.4695 4.3666-3.3219v-58.88575c0-.85238 0-3.0351-4.3666-3.321881v-.477969h50.3666l3.4183 12.1404z"/><path d="m92.8524 66.4536c.8924-.0319 1.8167.0079 2.7251.1513 3.2111-11.4393 10.9245-20.5685 22.7255-20.5685 7.402 0 14.231 5.5046 16.693 14.9843h.852l-3.609-14.7932-1.801 1.5216c-3.227-1.5216-7.402-2.5572-12.143-2.6528-20.2155-.685-32.4944 10.7225-36.5343 24.3525h.0399c3.2111-1.8879 7.3705-2.8518 11.0438-2.9793z"/><path d="m119.442 112.761c-12.223-.199-19.8725-8.166-23.3546-18.4817-.3904.5258-.9243.932-1.5538 1.0754-2.0239.4621-4.1912.6533-6.2629.5816-1.6893-.0558-3.5777-.2868-5.0837-1.1551 5.1395 11.6068 17.139 20.3138 36.263 18.8318 6.072-.382 10.438-2.557 11.1-2.748l2.557 2.278 1.992-13.7494h-.757c-.948 3.0354-5.689 13.5584-14.892 13.3754z"/></g></svg>