<?xml version="1.0" encoding="UTF-8"?><svg xmlns="http://www.w3.org/2000/svg" width="250" height="147.77" viewBox="0 0 250 147.77"><defs><style>.cls-1{fill:#eeece9;stroke-width:0px;}</style></defs><g id="Layer_1"><path class="cls-1" d="m47.5,97.16c.08-.3.18-.67.29-1.1.11-.43.23-.9.36-1.42.13-.51.25-.99.36-1.43.11-.44.21-.81.29-1.12s.12-.46.12-.48l.53-.02c-.26,1.01-.39,1.88-.4,2.6,0,.73.08,1.33.26,1.8.18.47.46.82.83,1.04s.8.33,1.3.31c.5,0,.99-.08,1.48-.25.49-.17.94-.41,1.36-.72.42-.31.77-.7,1.07-1.18.3-.47.52-1.01.66-1.62.19-.83.18-1.55-.02-2.15s-.52-1.14-.92-1.63-.86-.94-1.37-1.37c-.5-.42-.96-.87-1.36-1.33-.4-.46-.7-.98-.9-1.55s-.2-1.24-.01-2c.19-.74.49-1.37.89-1.9.4-.53.85-.96,1.36-1.3s1.03-.58,1.58-.74c.55-.16,1.08-.24,1.6-.24.42,0,.77.04,1.06.12.29.08.54.17.76.28.22.1.41.21.58.32s.34.21.52.29l.41-.74.5-.02s-.04.17-.11.47c-.07.3-.16.66-.26,1.1-.1.44-.22.91-.34,1.42-.12.5-.23.98-.34,1.42-.11.44-.19.81-.26,1.1-.07.3-.11.45-.11.47h-.43c.13-.99.18-1.85.17-2.57-.02-.72-.1-1.32-.26-1.79-.16-.47-.39-.82-.7-1.04-.3-.22-.68-.34-1.13-.34-.42,0-.83.06-1.24.19-.41.13-.78.32-1.13.58-.34.26-.65.57-.91.94-.26.37-.47.78-.61,1.25-.19.7-.18,1.32.02,1.86.21.54.52,1.03.92,1.49.41.46.86.9,1.37,1.33.5.43.96.91,1.37,1.43.41.52.71,1.1.9,1.75s.18,1.42-.02,2.32c-.19.78-.5,1.48-.94,2.1-.43.62-.93,1.14-1.5,1.56-.57.42-1.18.74-1.85.96-.66.22-1.32.32-1.98.32-.59,0-1.14-.09-1.66-.28-.51-.18-.93-.44-1.25-.76l-.48.74h-.53s.04-.18.12-.48Z"/><path class="cls-1" d="m68.27,86c-.02-.22-.1-.43-.22-.62-.12-.19-.3-.35-.55-.48-.25-.13-.59-.18-1.02-.14-.43.03-.83.15-1.2.35-.37.2-.71.46-1.02.79-.31.33-.6.7-.85,1.12-.26.42-.49.85-.7,1.3-.21.45-.39.89-.55,1.33s-.3.85-.41,1.24c-.24.83-.38,1.64-.42,2.41-.04.78.03,1.45.21,2.02.18.57.46,1.01.85,1.32.39.31.88.43,1.48.35.46-.06.93-.23,1.39-.5.46-.27.91-.6,1.33-.97s.82-.78,1.18-1.22.67-.86.92-1.26l.41.07c-.22.4-.52.87-.89,1.4-.37.54-.81,1.05-1.32,1.54-.51.49-1.09.91-1.74,1.27s-1.36.56-2.12.61c-.78.05-1.44-.09-1.96-.42s-.9-.8-1.15-1.43-.36-1.38-.35-2.26c.02-.88.18-1.86.48-2.93.27-.99.63-1.9,1.08-2.72.45-.82.96-1.53,1.55-2.11.58-.58,1.21-1.04,1.88-1.37.67-.33,1.36-.49,2.06-.49.94,0,1.69.21,2.24.62.55.42.88.9,1,1.46.11.56,0,1.12-.35,1.68-.34.56-.95.98-1.81,1.27-.59.21-1.13.38-1.62.5s-.97.25-1.45.36-.97.22-1.46.31c-.5.1-1.05.21-1.68.34l.19-.41,4.44-1.27c.26-.08.5-.2.74-.35.24-.15.46-.34.65-.56s.36-.47.49-.73c.14-.26.22-.54.25-.83.03-.16.04-.35.01-.58Z"/><path class="cls-1" d="m80.51,86.72c-.07.19-.18.34-.31.44s-.29.17-.46.19-.32,0-.44-.06c-.35-.16-.56-.38-.62-.66-.06-.28-.11-.56-.13-.84-.02-.28-.09-.52-.19-.72-.1-.2-.36-.3-.78-.3-.59,0-1.14.22-1.66.66-.51.44-.97.98-1.38,1.62-.41.64-.76,1.32-1.04,2.03-.29.71-.51,1.34-.67,1.88-.18.67-.3,1.39-.36,2.16-.06.77-.03,1.47.11,2.11.14.64.38,1.16.74,1.56.36.4.88.56,1.55.48.45-.05.89-.19,1.33-.42.44-.23.85-.52,1.24-.88.38-.35.73-.74,1.04-1.15.31-.42.55-.82.71-1.22l.41.07c-.14.37-.37.8-.68,1.28-.31.49-.7.95-1.16,1.39-.46.44-1,.82-1.6,1.15-.6.33-1.26.52-1.98.56-.85.06-1.54-.1-2.06-.48-.53-.38-.91-.91-1.14-1.58-.23-.67-.33-1.45-.29-2.33.04-.88.19-1.78.44-2.71.26-.93.61-1.8,1.06-2.63.45-.82.96-1.54,1.55-2.15.58-.61,1.21-1.09,1.9-1.44.68-.35,1.38-.53,2.1-.53.42,0,.78.05,1.1.14.32.1.6.22.84.38.24.16.44.35.59.56.15.22.25.45.3.71.05.27.04.5-.04.7Z"/><path class="cls-1" d="m90.19,84.61c.5.35.88.84,1.14,1.46s.39,1.36.4,2.2c0,.84-.12,1.75-.4,2.72-.27.96-.64,1.88-1.12,2.75-.47.87-1.02,1.64-1.63,2.29-.62.66-1.28,1.18-1.99,1.56-.71.38-1.43.58-2.15.58s-1.35-.19-1.85-.58c-.5-.38-.87-.9-1.12-1.56s-.37-1.42-.36-2.29c0-.87.15-1.79.42-2.75.26-.96.62-1.86,1.09-2.7.47-.84,1.01-1.57,1.61-2.2s1.25-1.12,1.94-1.48c.7-.36,1.41-.54,2.15-.54s1.36.18,1.86.53Zm-.14,4.2c.13-.75.18-1.44.13-2.06-.05-.62-.22-1.14-.53-1.55-.3-.41-.79-.61-1.46-.61s-1.27.2-1.79.61c-.52.41-.98.93-1.38,1.56-.4.63-.74,1.32-1.02,2.08-.28.75-.52,1.47-.71,2.16-.19.7-.36,1.45-.5,2.23-.14.78-.2,1.5-.16,2.16.04.66.2,1.2.49,1.63.29.43.77.65,1.44.65s1.3-.22,1.82-.66c.53-.44.99-.99,1.39-1.64.4-.66.74-1.38,1.03-2.16.29-.78.53-1.52.72-2.21.21-.7.38-1.43.52-2.18Z"/><path class="cls-1" d="m92.19,97.69l1.46-5.38c.13-.45.25-.89.37-1.32.12-.43.24-.86.35-1.27.27-.96.48-1.79.64-2.5.15-.7.2-1.23.13-1.58-.02-.19-.1-.22-.25-.08s-.32.34-.49.6c-.18.26-.34.53-.48.79-.14.26-.22.44-.24.52l-.22-.1c.16-.56.37-1.06.62-1.5s.52-.8.8-1.08c.28-.28.56-.47.84-.58.28-.1.54-.09.78.04.18.1.28.32.3.67.02.35,0,.78-.1,1.3-.09.51-.21,1.08-.37,1.69-.16.62-.33,1.24-.5,1.86l-2.11,7.92h-1.54Zm1.92-2.26c.16-.34.4-.84.71-1.52s.66-1.43,1.06-2.26c.39-.82.82-1.67,1.29-2.53.47-.86.96-1.65,1.45-2.36.5-.71,1-1.3,1.52-1.75s1.02-.68,1.5-.68c.29,0,.56.05.83.16s.48.28.65.52c.17.24.28.57.35.98.06.42.04.94-.07,1.56-.06.3-.17.71-.32,1.22-.15.51-.32,1.07-.52,1.67-.19.6-.39,1.22-.6,1.86-.21.64-.39,1.24-.55,1.8-.16.56-.29,1.05-.38,1.46-.1.42-.13.7-.1.86.08.21.2.24.37.11.17-.14.33-.34.49-.6.16-.26.3-.54.43-.83.13-.29.21-.46.24-.53l.22.12c-.16.54-.34,1.01-.55,1.39-.21.38-.43.69-.66.92s-.46.4-.7.5c-.23.1-.45.15-.66.13-.18-.02-.33-.07-.47-.17-.14-.1-.24-.22-.32-.38-.08-.16-.13-.35-.14-.56-.02-.22.02-.46.1-.73.19-.62.39-1.25.6-1.87.21-.62.42-1.24.63-1.86.22-.62.42-1.24.62-1.87.2-.63.38-1.26.54-1.88.29-1.14.45-1.98.47-2.54.02-.56-.16-.84-.56-.84-.4-.02-.84.22-1.33.71-.49.49-1,1.12-1.52,1.91-.53.78-1.05,1.66-1.57,2.63-.52.97-1.01,1.93-1.46,2.88-.46.95-.87,1.84-1.24,2.66-.37.82-.66,1.48-.87,1.98l.53-2.26Z"/><path class="cls-1" d="m113.89,88.21c.13-.66.18-1.21.17-1.66-.02-.45-.09-.81-.23-1.09-.14-.28-.33-.48-.58-.6s-.54-.18-.88-.18c-.67,0-1.3.2-1.87.6-.58.4-1.1.9-1.58,1.5-.48.6-.9,1.26-1.25,1.99s-.64,1.42-.86,2.08c-.21.67-.38,1.39-.53,2.16s-.22,1.48-.22,2.14.09,1.2.26,1.63.47.65.89.65c.37,0,.85-.31,1.45-.94.6-.62,1.25-1.46,1.94-2.5.7-1.04,1.4-2.24,2.11-3.59.71-1.35,1.36-2.76,1.93-4.21l-.38,1.82c-.1.26-.27.68-.53,1.27-.26.59-.57,1.25-.95,1.98-.38.73-.8,1.49-1.28,2.28s-.98,1.51-1.49,2.16c-.51.65-1.03,1.18-1.56,1.6-.53.42-1.04.62-1.54.62-.54,0-1-.2-1.37-.6-.37-.4-.64-.93-.8-1.6-.17-.66-.22-1.42-.17-2.28.06-.86.24-1.75.54-2.68.3-.94.7-1.82,1.18-2.63.48-.81,1.02-1.5,1.63-2.09s1.26-1.04,1.94-1.38c.69-.34,1.38-.49,2.09-.46.72.03,1.3.18,1.75.43.45.26.79.61,1.01,1.06l-.84,2.5Zm.42,8.22c-.28.42-.56.74-.85.95-.29.21-.57.32-.84.34-.27.02-.5-.05-.68-.19s-.31-.36-.38-.64c-.07-.28-.04-.61.08-1l.79-2.74,2.13-7.7c.16-.58.3-1.12.43-1.64.13-.52.23-.99.32-1.42s.15-.78.19-1.08c.04-.3.05-.5.04-.61-.03-.1-.1-.15-.2-.17-.11-.02-.22-.01-.35.01-.13.02-.26.04-.38.06-.13.02-.24,0-.34-.02l.24-.31c.26-.03.52-.08.78-.14s.53-.13.79-.2c.26-.07.53-.14.8-.19.27-.06.55-.08.84-.08-.66,2.29-1.31,4.56-1.96,6.83-.65,2.26-1.27,4.56-1.86,6.88-.11.37-.21.71-.3,1.03-.09.32-.16.61-.23.88s-.11.5-.13.71c-.03.21-.03.38-.01.53.1.21.23.24.39.11s.34-.34.5-.6c.17-.26.31-.54.43-.82.12-.28.19-.46.2-.54l.24.12c-.19.69-.43,1.24-.71,1.67Z"/><path class="cls-1" d="m120.65,97.69l.12-.31c.13,0,.29-.02.49-.06.2-.04.36-.12.47-.25.18-.19.37-.58.59-1.18s.44-1.28.68-2.08.48-1.64.73-2.54.48-1.77.71-2.6c.21-.74.44-1.55.68-2.44s.48-1.74.7-2.56.38-1.54.49-2.16c.11-.62.14-1.03.07-1.22-.05-.13-.16-.21-.34-.25s-.33-.06-.46-.06l.07-.34h3.98l-.1.31c-.13,0-.29.02-.49.07-.2.05-.36.14-.49.26-.18.19-.37.56-.58,1.1s-.42,1.18-.64,1.9c-.22.72-.43,1.49-.65,2.3-.22.82-.43,1.6-.64,2.35-.06.21-.17.56-.31,1.04-.14.49-.3,1.04-.48,1.67-.18.62-.36,1.28-.54,1.97-.18.69-.35,1.34-.49,1.94-.14.61-.25,1.14-.31,1.58-.06.45-.07.75-.02.91.05.13.16.21.34.25.18.04.34.06.48.06l-.1.31h-3.98Zm5.06-9.74h7.66l-.17.55h-7.66l.17-.55Zm4.85,8.22c.18-.44.36-.96.55-1.55s.38-1.22.58-1.9c.19-.67.38-1.32.55-1.94s.33-1.19.46-1.69.23-.88.31-1.14c.21-.74.42-1.52.65-2.34.22-.82.43-1.6.61-2.33.18-.73.32-1.37.42-1.92.1-.55.11-.92.05-1.09-.05-.13-.16-.21-.34-.25-.18-.04-.34-.06-.48-.06l.12-.31h3.96l-.1.31c-.14,0-.31.02-.5.06-.19.04-.35.12-.48.25-.18.21-.38.62-.61,1.24-.23.62-.46,1.33-.7,2.15-.23.82-.47,1.67-.71,2.57-.24.9-.47,1.73-.7,2.5-.22.83-.47,1.7-.73,2.59-.26.9-.5,1.74-.7,2.52-.2.78-.35,1.47-.46,2.05-.1.58-.12.98-.06,1.19.05.13.16.21.34.25.18.04.34.06.48.06l-.1.31h-3.96l.1-.31c.14,0,.31-.02.49-.06.18-.04.34-.12.47-.25.14-.16.3-.46.48-.9Z"/><path class="cls-1" d="m136.31,97.27c-.34-.39-.58-.9-.72-1.54-.14-.63-.17-1.37-.08-2.21.08-.84.26-1.72.55-2.65.3-.93.7-1.8,1.18-2.63.48-.82,1.04-1.54,1.67-2.14s1.33-1.07,2.09-1.4,1.57-.49,2.44-.46c.16,0,.35,0,.58.01.22,0,.48.04.77.11s.61.17.96.31c.35.14.74.36,1.15.65l-1.03,3.89c-.19.7-.4,1.41-.64,2.11-.23.7-.43,1.38-.59,2.02-.22.74-.4,1.37-.54,1.91-.14.54-.18.95-.13,1.24.03.06.07.11.11.14.04.03.08.05.11.05.11,0,.24-.1.4-.29.15-.19.29-.41.42-.65.13-.24.24-.47.34-.68.1-.22.15-.36.17-.42l.24.12c-.16.53-.34.98-.54,1.36s-.41.68-.62.91c-.22.23-.44.4-.66.52s-.44.17-.65.17c-.38,0-.68-.17-.88-.52-.2-.34-.21-.79-.04-1.33l2.33-7.7c.03-.08.06-.16.08-.25.02-.09.04-.17.06-.25.16-.58.23-1.04.22-1.4s-.09-.65-.22-.88c-.14-.26-.34-.43-.58-.52-.24-.09-.49-.14-.74-.16-.74-.03-1.41.15-2.02.55-.61.4-1.15.91-1.63,1.54-.48.62-.9,1.31-1.25,2.05-.35.74-.63,1.44-.84,2.1-.22.67-.42,1.38-.58,2.11-.16.74-.25,1.42-.28,2.04-.02.62.04,1.14.19,1.56.15.42.44.64.85.67.56.05,1.16-.25,1.81-.9.65-.65,1.3-1.52,1.97-2.6s1.32-2.32,1.98-3.71,1.29-2.79,1.9-4.21l-.82,2.86c-.19.38-.42.88-.68,1.5-.26.62-.56,1.27-.9,1.96-.34.69-.71,1.38-1.12,2.08-.41.7-.85,1.32-1.32,1.86-.47.54-.97.98-1.49,1.32s-1.07.48-1.64.43c-.54-.03-.99-.24-1.33-.64Z"/><path class="cls-1" d="m147.56,97.69l1.46-5.38c.13-.45.25-.89.37-1.32.12-.43.24-.86.35-1.27.27-.96.48-1.79.64-2.5s.2-1.23.13-1.58c-.02-.19-.1-.22-.25-.08-.15.14-.32.34-.49.6-.18.26-.34.53-.48.79-.14.26-.22.44-.24.52l-.22-.1c.16-.56.37-1.06.62-1.5s.52-.8.8-1.08c.28-.28.56-.47.84-.58.28-.1.54-.09.78.04.18.1.28.32.3.67.02.35,0,.78-.1,1.3-.09.51-.21,1.08-.37,1.69s-.33,1.24-.5,1.86l-2.11,7.92h-1.54Zm1.92-2.26c.16-.34.4-.84.71-1.52.31-.68.66-1.43,1.06-2.26.39-.82.82-1.67,1.3-2.53.47-.86.96-1.65,1.45-2.36.5-.71,1-1.3,1.52-1.75.52-.46,1.02-.68,1.5-.68.29,0,.56.05.83.16.26.1.48.28.65.52.17.24.28.57.35.98.06.42.04.94-.07,1.56-.06.3-.17.71-.32,1.22-.15.51-.32,1.07-.52,1.67-.19.6-.39,1.22-.6,1.86-.21.64-.39,1.24-.55,1.8-.16.56-.29,1.05-.38,1.46-.1.42-.13.7-.1.86.08.21.2.24.37.11.17-.14.33-.34.49-.6.16-.26.3-.54.43-.83.13-.29.21-.46.24-.53l.22.12c-.16.54-.34,1.01-.55,1.39-.21.38-.43.69-.66.92-.23.23-.46.4-.7.5-.23.1-.45.15-.66.13-.18-.02-.33-.07-.47-.17-.14-.1-.24-.22-.32-.38-.08-.16-.13-.35-.14-.56s.02-.46.1-.73c.19-.62.39-1.25.6-1.87s.42-1.24.64-1.86c.22-.62.42-1.24.62-1.87.2-.63.38-1.26.54-1.88.29-1.14.44-1.98.47-2.54.02-.56-.16-.84-.56-.84-.4-.02-.84.22-1.33.71-.49.49-1,1.12-1.52,1.91-.53.78-1.05,1.66-1.57,2.63-.52.97-1.01,1.93-1.46,2.88-.46.95-.87,1.84-1.24,2.66-.37.82-.66,1.48-.86,1.98l.53-2.26Z"/><path class="cls-1" d="m169.25,88.21c.13-.66.18-1.21.17-1.66-.02-.45-.09-.81-.23-1.09-.14-.28-.33-.48-.58-.6s-.54-.18-.88-.18c-.67,0-1.3.2-1.87.6-.58.4-1.1.9-1.58,1.5-.48.6-.9,1.26-1.25,1.99-.35.73-.64,1.42-.86,2.08-.21.67-.38,1.39-.53,2.16-.14.77-.22,1.48-.22,2.14s.09,1.2.26,1.63c.18.43.47.65.89.65.37,0,.85-.31,1.45-.94.6-.62,1.25-1.46,1.94-2.5.7-1.04,1.4-2.24,2.11-3.59.71-1.35,1.36-2.76,1.93-4.21l-.38,1.82c-.1.26-.27.68-.53,1.27-.26.59-.57,1.25-.95,1.98s-.8,1.49-1.28,2.28c-.48.79-.98,1.51-1.49,2.16-.51.65-1.03,1.18-1.56,1.6-.53.42-1.04.62-1.54.62-.54,0-1-.2-1.37-.6-.37-.4-.64-.93-.8-1.6-.17-.66-.22-1.42-.17-2.28.06-.86.24-1.75.54-2.68.3-.94.7-1.82,1.18-2.63.48-.81,1.02-1.5,1.63-2.09s1.26-1.04,1.94-1.38c.69-.34,1.38-.49,2.09-.46.72.03,1.3.18,1.75.43.45.26.78.61,1.01,1.06l-.84,2.5Zm.42,8.22c-.28.42-.56.74-.85.95-.29.21-.57.32-.84.34-.27.02-.5-.05-.68-.19s-.31-.36-.38-.64c-.07-.28-.04-.61.08-1l.79-2.74,2.14-7.7c.16-.58.3-1.12.43-1.64.13-.52.24-.99.32-1.42s.15-.78.19-1.08.05-.5.04-.61c-.03-.1-.1-.15-.2-.17-.1-.02-.22-.01-.35.01-.13.02-.26.04-.38.06-.13.02-.24,0-.34-.02l.24-.31c.26-.03.52-.08.78-.14s.53-.13.79-.2c.26-.07.53-.14.8-.19s.55-.08.84-.08c-.66,2.29-1.31,4.56-1.96,6.83-.65,2.26-1.27,4.56-1.86,6.88-.11.37-.21.71-.3,1.03-.09.32-.17.61-.23.88-.06.26-.11.5-.13.71-.02.21-.03.38-.01.53.1.21.23.24.4.11s.34-.34.5-.6c.17-.26.31-.54.43-.82.12-.28.19-.46.2-.54l.24.12c-.19.69-.43,1.24-.71,1.67Z"/></g><g id="Layer_2"><path class="cls-1" d="m130.64,29.52h-.72c-3.12-9.12-24.32-11.68-28.48-6.8v23.44h18.08c1.44,0,1.84-3.84,1.84-4.64h.56v9.68h-.56c0-.8-.32-4.24-1.84-4.24h-18.08v25.2c0,.72,0,2.56,3.68,2.8v.4h-19.84v-.4c3.68-.24,3.68-2.08,3.68-2.8V22.48c0-.72,0-2.56-3.68-2.8v-.4h42.48l2.88,10.24Z"/><path class="cls-1" d="m125.71,75.33c.75-.03,1.53,0,2.3.13,2.71-9.65,9.21-17.35,19.16-17.35,6.24,0,12,4.64,14.08,12.64h.72l-3.04-12.48-1.52,1.28c-2.72-1.28-6.24-2.16-10.24-2.24-17.05-.58-27.4,9.05-30.81,20.54.01,0,.02,0,.04,0,2.71-1.59,6.22-2.41,9.31-2.52Z"/><path class="cls-1" d="m148.13,114.39c-10.31-.17-16.76-6.89-19.7-15.59-.33.44-.78.78-1.31.9-1.71.39-3.54.55-5.29.49-1.42-.05-3.02-.25-4.29-.98,4.33,9.79,14.45,17.14,30.58,15.89,5.12-.32,8.8-2.16,9.36-2.32l2.16,1.92,1.68-11.6h-.64c-.8,2.56-4.8,11.44-12.56,11.28Z"/></g></svg>