<?xml version="1.0" encoding="UTF-8"?><svg id="Layer_2" xmlns="http://www.w3.org/2000/svg" width="250" height="65.03" viewBox="0 0 250 65.03"><defs><style>.cls-1{fill:#eeece9;stroke-width:0px;}</style></defs><path class="cls-1" d="m37.42,17.7h-.32c-1.36-3.99-10.64-5.11-12.46-2.98v10.26h7.91c.63,0,.8-1.68.8-2.03h.25v4.24h-.25c0-.35-.14-1.85-.8-1.85h-7.91v11.03c0,.31,0,1.12,1.61,1.23v.18h-8.68v-.18c1.61-.1,1.61-.91,1.61-1.23V14.62c0-.31,0-1.12-1.61-1.23v-.17h18.59l1.26,4.48Z"/><path class="cls-1" d="m45.19,36.36c0,.31,0,1.12,1.61,1.23v.18h-8.68v-.18c1.61-.1,1.61-.91,1.61-1.23V14.62c0-.31,0-1.12-1.61-1.23v-.17h8.68v.17c-1.61.1-1.61.91-1.61,1.23v21.74Z"/><path class="cls-1" d="m64.48,37.58v.14h2.26c-.22-1.38.57-2.96,2.38-2.96.04,0,.08.01.12.01.04,0,.07-.01.1-.01.22,0,.41.03.6.07l-6.13-7.57c9.42-2.62,7.84-14.04-4.2-14.07l-5.64.04h-6.48v.17c1.61.1,1.61.91,1.61,1.23v21.67c0,.31,0,1.12-1.61,1.23v.17h8.68v-.17c-1.61-.1-1.61-.91-1.61-1.23v-8.51h4.06l6.23,7.98c.49.63,1.08,1.68-.39,1.82Zm-4.09-10.33l-1.3.1c-.98.04-3.08.04-4.51.04v-12.95c1.15-.74,4.3-.91,5.04-.88,7.14.24,7.28,12.46.77,13.69Z"/><path class="cls-1" d="m92.72,29.11c-1.89-4.8-9.8-6.13-11.59-9.84-1.23-2.52.67-5.74,4.97-5.74,2.77,0,5.04,1.5,5.67,4.45h.31l-.8-4.66-1.12.81c-1.82-1.09-5.71-1.09-7.63-.91-3.64.28-7.91,2.45-7.91,6.06,0,6.06,7.84,6.97,11.06,10.61,2.24,2.63.25,7.53-3.89,7.53-2.03,0-3.75-.49-5.06-1.48.18.37.27.78.27,1.2,2.45.96,5.67.96,8.44.63,6.44-.77,8.79-4.8,7.28-8.65Z"/><path class="cls-1" d="m114.98,17.67h-.31c-.84-2.59-4.1-3.96-6.83-4.13-.7.31-.7.81-.7,1.05v21.74c0,.32,0,1.12,1.61,1.23v.17h-8.65v-.17c1.61-.11,1.61-.91,1.61-1.23V14.59c0-.25,0-.81-.8-1.09-2.8.1-6.2,1.47-7.07,4.13h-.31l1.26-4.48,18.94.04,1.26,4.48Z"/><path class="cls-1" d="m142.56,13.47l-.67.56c-1.19-.56-2.73-.95-4.48-.98-15.07-.51-18.19,17.18-8.42,23.04.07-1.01.66-1.97,1.79-2.23-4.82-6.78-2.15-20.47,6.63-20.47,2.73,0,5.25,2.03,6.16,5.53h.31l-1.33-5.46Z"/><path class="cls-1" d="m139.96,37.26c0-.07.02-.14.03-.21-.63.34-1.34.56-2.15.54-1.49-.02-2.8-.37-3.93-.96.01.38-.05.77-.19,1.12,1.26.2,2.62.27,4.12.15.82-.05,1.55-.19,2.16-.35-.01-.1-.03-.19-.04-.29Z"/><path class="cls-1" d="m150.93,34c.59,0,1.06.17,1.43.44V14.62c0-.31,0-1.12,1.61-1.23v-.17h-8.68v.17c1.61.1,1.61.91,1.61,1.23v21.74c0,.3-.01,1.06-1.46,1.2.03.07.05.13.08.2h3.29c-.76-1.48-.06-3.76,2.11-3.76Z"/><path class="cls-1" d="m165.07,33.28c-1.23,3.86-8.95,4.95-11.75,3.52-.03.34-.13.66-.28.96h11.08l1.26-4.48h-.31Z"/><path class="cls-1" d="m189.81,35.55l-8.89-22.33h-5.5l.25.59-8.05,22.02c-.28.81-.88,1.54-2.24,1.72v.17h4.13v-.14c-1.12-.21-1.75-.84-1.5-1.61l2.7-7.39h10.82l2.8,7.11c.07.18.11.34.13.5.07-.57.31-1.11.72-1.52.4-.53,1.02-.91,1.89-.91.94,0,1.6.43,1.99,1.04.5.7.59,1.64.31,2.45-.03.09-.07.18-.11.27-.03.06-.04.13-.07.19h3.22v-.17c-1.37-.18-2.03-.6-2.59-2Zm-18.97-7.32l5.08-13.79,5.46,13.79h-10.54Z"/><path class="cls-1" d="m193.41,37.76l-.67-5.46h.31c.98,3.5,3.71,5.11,7.46,5.11,4.13,0,6.13-4.9,3.89-7.53-3.22-3.64-11.06-4.55-11.06-10.61,0-3.61,4.27-5.78,7.91-6.06,1.92-.18,5.81-.18,7.63.91l1.12-.81.8,4.66h-.31c-.63-2.94-2.91-4.45-5.67-4.45-4.31,0-6.2,3.22-4.97,5.74,1.79,3.71,9.7,5.04,11.59,9.84,1.51,3.85-.84,7.88-7.28,8.65-3.22.38-7.07.35-9.59-1.16l-1.16,1.16Z"/><path class="cls-1" d="m213.96,37.76l-.67-5.46h.31c.98,3.5,3.71,5.11,7.46,5.11,4.13,0,6.13-4.9,3.89-7.53-3.22-3.64-11.06-4.55-11.06-10.61,0-3.61,4.27-5.78,7.91-6.06,1.92-.18,5.81-.18,7.63.91l1.12-.81.8,4.66h-.31c-.63-2.94-2.91-4.45-5.67-4.45-4.31,0-6.2,3.22-4.97,5.74,1.79,3.71,9.7,5.04,11.59,9.84,1.51,3.85-.84,7.88-7.28,8.65-3.22.38-7.07.35-9.59-1.16l-1.16,1.16Z"/><path class="cls-1" d="m62.67,53.36c.08-.3.18-.67.29-1.1.11-.43.23-.9.36-1.42s.25-.99.36-1.43c.11-.44.21-.81.29-1.12s.12-.46.12-.48l.53-.02c-.26,1.01-.39,1.88-.4,2.6,0,.73.08,1.33.26,1.8.18.47.46.82.83,1.04s.8.33,1.3.31c.5,0,.99-.08,1.48-.25.49-.17.94-.41,1.36-.72s.77-.7,1.07-1.18c.3-.47.52-1.01.66-1.62.19-.83.18-1.55-.02-2.15s-.52-1.14-.92-1.63-.86-.94-1.37-1.37c-.5-.42-.96-.87-1.36-1.33-.4-.46-.7-.98-.9-1.55-.2-.57-.2-1.24-.01-2,.19-.74.49-1.37.89-1.9.4-.53.85-.96,1.36-1.3s1.03-.58,1.58-.74c.55-.16,1.08-.24,1.6-.24.42,0,.77.04,1.06.12s.54.17.76.28c.22.1.41.21.58.32s.34.21.52.29l.41-.74.5-.02s-.04.17-.11.47c-.07.3-.16.66-.26,1.1-.1.44-.22.91-.34,1.42s-.23.98-.34,1.42c-.1.44-.19.81-.26,1.1-.07.3-.11.45-.11.47h-.43c.13-.99.18-1.85.17-2.57-.02-.72-.1-1.32-.26-1.79-.16-.47-.39-.82-.7-1.04-.3-.22-.68-.34-1.13-.34-.42,0-.83.06-1.24.19-.41.13-.78.32-1.13.58s-.65.57-.91.94c-.26.37-.47.78-.61,1.25-.19.7-.18,1.32.02,1.86.21.54.52,1.03.92,1.49.41.46.86.9,1.37,1.33.5.43.96.91,1.37,1.43s.71,1.1.9,1.75c.19.65.18,1.42-.02,2.32-.19.78-.5,1.48-.94,2.1-.43.62-.93,1.14-1.5,1.56-.57.42-1.18.74-1.85.96s-1.32.32-1.98.32c-.59,0-1.14-.09-1.66-.28-.51-.18-.93-.44-1.25-.76l-.48.74h-.53s.04-.18.12-.48Z"/><path class="cls-1" d="m83.44,42.19c-.02-.22-.1-.43-.22-.62-.12-.19-.3-.35-.55-.48-.25-.13-.59-.18-1.02-.14-.43.03-.83.15-1.2.35s-.71.46-1.02.79c-.31.33-.6.7-.85,1.12-.26.42-.49.85-.7,1.3s-.39.89-.55,1.33-.3.85-.41,1.24c-.24.83-.38,1.64-.42,2.41s.03,1.45.2,2.02c.18.57.46,1.01.85,1.32.39.31.88.43,1.48.35.46-.06.93-.23,1.39-.5.46-.27.91-.6,1.33-.97s.82-.78,1.18-1.22c.36-.44.67-.86.92-1.26l.41.07c-.22.4-.52.87-.89,1.4-.37.54-.81,1.05-1.32,1.54-.51.49-1.09.91-1.74,1.27-.65.36-1.36.56-2.12.61-.78.05-1.44-.09-1.96-.42-.52-.33-.9-.8-1.15-1.43s-.36-1.38-.35-2.26c.02-.88.18-1.86.48-2.93.27-.99.63-1.9,1.08-2.72.45-.82.96-1.53,1.55-2.11.58-.58,1.21-1.04,1.88-1.37.67-.33,1.36-.49,2.06-.49.94,0,1.69.21,2.24.62.55.42.88.9,1,1.46s0,1.12-.35,1.68c-.34.56-.95.98-1.81,1.27-.59.21-1.13.38-1.62.5s-.97.25-1.45.36c-.48.11-.97.22-1.46.31-.5.1-1.06.21-1.68.34l.19-.41,4.44-1.27c.26-.08.5-.2.74-.35s.46-.34.65-.56c.19-.22.36-.47.49-.73.14-.26.22-.54.25-.83.03-.16.04-.35.01-.58Z"/><path class="cls-1" d="m95.68,42.92c-.07.19-.18.34-.31.44s-.29.17-.46.19-.32,0-.44-.06c-.35-.16-.56-.38-.62-.66-.06-.28-.11-.56-.13-.84-.02-.28-.09-.52-.19-.72-.1-.2-.36-.3-.78-.3-.59,0-1.14.22-1.66.66-.51.44-.97.98-1.38,1.62s-.76,1.32-1.04,2.03-.51,1.34-.67,1.88c-.18.67-.3,1.39-.36,2.16s-.03,1.47.11,2.11c.14.64.38,1.16.74,1.56.36.4.88.56,1.55.48.45-.05.89-.19,1.33-.42.44-.23.85-.52,1.24-.88.38-.35.73-.74,1.04-1.15.31-.42.55-.82.71-1.22l.41.07c-.14.37-.37.8-.68,1.28-.31.49-.7.95-1.16,1.39-.46.44-1,.82-1.6,1.15-.6.33-1.26.52-1.98.56-.85.06-1.54-.1-2.06-.48-.53-.38-.91-.91-1.14-1.58-.23-.67-.33-1.45-.29-2.33s.19-1.78.44-2.71c.26-.93.61-1.8,1.06-2.63.45-.82.96-1.54,1.55-2.15.58-.61,1.22-1.09,1.9-1.44.68-.35,1.38-.53,2.1-.53.42,0,.78.05,1.1.14.32.1.6.22.84.38.24.16.44.35.59.56.15.22.25.45.3.71.05.27.04.5-.04.7Z"/><path class="cls-1" d="m105.35,40.8c.5.35.88.84,1.14,1.46s.39,1.36.4,2.2c0,.84-.12,1.75-.4,2.72-.27.96-.64,1.88-1.12,2.75-.47.87-1.02,1.64-1.63,2.29s-1.28,1.18-1.99,1.56c-.71.38-1.43.58-2.15.58s-1.35-.19-1.85-.58c-.5-.38-.87-.9-1.12-1.56s-.37-1.42-.36-2.29c0-.87.15-1.79.42-2.75.26-.96.62-1.86,1.09-2.7s1.01-1.57,1.61-2.2c.6-.62,1.25-1.12,1.94-1.48.7-.36,1.41-.54,2.15-.54s1.36.18,1.86.53Zm-.14,4.2c.14-.75.18-1.44.13-2.06s-.22-1.14-.53-1.55c-.3-.41-.79-.61-1.46-.61s-1.27.2-1.79.61c-.52.41-.98.93-1.38,1.56-.4.63-.74,1.32-1.02,2.08-.28.75-.52,1.47-.71,2.16-.19.7-.36,1.45-.5,2.23-.14.78-.2,1.5-.16,2.16.04.66.2,1.2.49,1.63.29.43.77.65,1.44.65s1.3-.22,1.82-.66c.53-.44.99-.99,1.39-1.64.4-.66.74-1.38,1.03-2.16.29-.78.53-1.52.72-2.21.21-.7.38-1.43.52-2.18Z"/><path class="cls-1" d="m107.35,53.88l1.46-5.38c.13-.45.25-.89.37-1.32.12-.43.24-.86.35-1.27.27-.96.48-1.79.64-2.5.15-.7.2-1.23.13-1.58-.02-.19-.1-.22-.25-.08-.15.14-.32.34-.49.6-.18.26-.34.53-.48.79-.14.26-.22.44-.24.52l-.22-.1c.16-.56.37-1.06.62-1.5s.52-.8.8-1.08c.28-.28.56-.47.84-.58.28-.1.54-.09.78.04.18.1.28.32.3.67.02.35,0,.78-.1,1.3-.09.51-.21,1.08-.37,1.69-.16.62-.33,1.24-.5,1.86l-2.11,7.92h-1.54Zm1.92-2.26c.16-.34.4-.84.71-1.52.31-.68.66-1.43,1.06-2.26.39-.82.82-1.67,1.3-2.53.47-.86.96-1.65,1.45-2.36.5-.71,1-1.3,1.52-1.75.52-.46,1.02-.68,1.5-.68.29,0,.56.05.83.16.26.1.48.28.65.52.17.24.28.57.35.98.06.42.04.94-.07,1.56-.06.3-.17.71-.32,1.22-.15.51-.32,1.07-.52,1.67-.19.6-.39,1.22-.6,1.86-.21.64-.39,1.24-.55,1.8-.16.56-.29,1.05-.38,1.46-.1.42-.13.7-.1.86.08.21.2.24.37.11.17-.14.33-.34.49-.6.16-.26.3-.54.43-.83.13-.29.21-.46.24-.53l.22.12c-.16.54-.34,1.01-.55,1.39-.21.38-.43.69-.66.92s-.46.4-.7.5c-.23.1-.45.15-.66.13-.18-.02-.33-.07-.47-.17-.14-.1-.24-.22-.32-.38-.08-.16-.13-.35-.14-.56-.02-.22.02-.46.1-.73.19-.62.39-1.25.6-1.87s.42-1.24.64-1.86c.22-.62.42-1.24.62-1.87.2-.63.38-1.26.54-1.88.29-1.14.44-1.98.47-2.54.02-.56-.17-.84-.56-.84-.4-.02-.84.22-1.33.71-.49.49-1,1.12-1.52,1.91-.53.78-1.05,1.66-1.57,2.63-.52.97-1.01,1.93-1.46,2.88-.46.95-.87,1.84-1.24,2.66-.37.82-.66,1.48-.86,1.98l.53-2.26Z"/><path class="cls-1" d="m129.05,44.4c.13-.66.18-1.21.17-1.66-.02-.45-.09-.81-.23-1.09-.14-.28-.33-.48-.58-.6s-.54-.18-.88-.18c-.67,0-1.3.2-1.87.6-.58.4-1.1.9-1.58,1.5-.48.6-.9,1.26-1.25,1.99s-.64,1.42-.86,2.08c-.21.67-.38,1.39-.53,2.16-.14.77-.22,1.48-.22,2.14s.09,1.2.26,1.63c.18.43.47.65.89.65.37,0,.85-.31,1.45-.94.6-.62,1.25-1.46,1.94-2.5.7-1.04,1.4-2.24,2.11-3.59.71-1.35,1.36-2.76,1.93-4.21l-.38,1.82c-.1.26-.27.68-.53,1.27-.26.59-.57,1.25-.95,1.98-.38.73-.8,1.49-1.28,2.28s-.98,1.51-1.49,2.16c-.51.65-1.03,1.18-1.56,1.6-.53.42-1.04.62-1.54.62-.54,0-1-.2-1.37-.6-.37-.4-.64-.93-.8-1.6-.17-.66-.22-1.42-.17-2.28s.24-1.75.54-2.68c.3-.94.7-1.82,1.18-2.63.48-.81,1.02-1.5,1.63-2.09.61-.58,1.26-1.04,1.94-1.38.69-.34,1.38-.49,2.09-.46.72.03,1.3.18,1.75.43.45.26.79.61,1.01,1.06l-.84,2.5Zm.42,8.22c-.28.42-.56.74-.85.95-.29.21-.57.32-.84.34-.27.02-.5-.05-.68-.19s-.31-.36-.38-.64c-.07-.28-.04-.61.08-1l.79-2.74,2.13-7.7c.16-.58.3-1.12.43-1.64.13-.52.23-.99.32-1.42s.15-.78.19-1.08c.04-.3.05-.5.04-.61-.03-.1-.1-.15-.2-.17-.11-.02-.22-.01-.35.01-.13.02-.26.04-.38.06-.13.02-.24,0-.34-.02l.24-.31c.26-.03.52-.08.78-.14s.53-.13.79-.2c.26-.07.53-.14.8-.19.27-.06.55-.08.84-.08-.66,2.29-1.31,4.56-1.96,6.83-.65,2.26-1.27,4.56-1.86,6.88-.11.37-.21.71-.3,1.03-.09.32-.16.61-.23.88s-.11.5-.13.71c-.03.21-.03.38-.01.53.1.21.23.24.39.11s.34-.34.5-.6c.17-.26.31-.54.43-.82.12-.28.19-.46.2-.54l.24.12c-.19.69-.43,1.24-.71,1.67Z"/><path class="cls-1" d="m135.82,53.88l.12-.31c.13,0,.29-.02.49-.06.2-.04.36-.12.47-.25.18-.19.37-.58.59-1.18s.44-1.28.68-2.08.48-1.64.73-2.54.48-1.77.71-2.6c.21-.74.44-1.55.68-2.44s.48-1.74.7-2.56.38-1.54.49-2.16c.11-.62.14-1.03.07-1.22-.05-.13-.16-.21-.34-.25s-.33-.06-.46-.06l.07-.34h3.98l-.1.31c-.13,0-.29.02-.49.07-.2.05-.36.14-.49.26-.18.19-.37.56-.58,1.1s-.42,1.18-.64,1.9c-.22.72-.43,1.49-.65,2.3-.22.82-.43,1.6-.64,2.35-.06.21-.17.56-.31,1.04-.14.49-.3,1.04-.48,1.67-.18.62-.36,1.28-.54,1.97-.18.69-.35,1.34-.49,1.94-.14.61-.25,1.14-.31,1.58-.06.45-.07.75-.02.91.05.13.16.21.34.25.18.04.34.06.48.06l-.1.31h-3.98Zm5.06-9.74h7.66l-.17.55h-7.66l.17-.55Zm4.85,8.22c.18-.44.36-.96.55-1.55s.38-1.22.58-1.9c.19-.67.38-1.32.55-1.94s.33-1.19.46-1.69.23-.88.31-1.14c.21-.74.42-1.52.65-2.34.22-.82.43-1.6.61-2.33.18-.73.32-1.37.42-1.92.1-.55.11-.92.05-1.09-.05-.13-.16-.21-.34-.25-.18-.04-.34-.06-.48-.06l.12-.31h3.96l-.1.31c-.14,0-.31.02-.5.06-.19.04-.35.12-.48.25-.18.21-.38.62-.61,1.24-.23.62-.46,1.33-.7,2.15-.23.82-.47,1.67-.71,2.57-.24.9-.47,1.73-.7,2.5-.22.83-.47,1.7-.73,2.59-.26.9-.5,1.74-.7,2.52-.2.78-.35,1.47-.46,2.05-.1.58-.12.98-.06,1.19.05.13.16.21.34.25.18.04.34.06.48.06l-.1.31h-3.96l.1-.31c.14,0,.31-.02.49-.06.18-.04.34-.12.47-.25.14-.16.3-.46.48-.9Z"/><path class="cls-1" d="m151.48,53.46c-.34-.39-.58-.9-.72-1.54-.14-.63-.17-1.37-.08-2.21.08-.84.26-1.72.55-2.65.3-.93.7-1.8,1.18-2.63.48-.82,1.04-1.54,1.67-2.14s1.33-1.07,2.09-1.4,1.57-.49,2.44-.46c.16,0,.35,0,.58.01.22,0,.48.04.77.11s.61.17.96.31c.35.14.74.36,1.15.65l-1.03,3.89c-.19.7-.4,1.41-.64,2.11-.23.7-.43,1.38-.59,2.02-.22.74-.4,1.37-.54,1.91-.14.54-.18.95-.13,1.24.03.06.07.11.11.14.04.03.08.05.11.05.11,0,.24-.1.4-.29.15-.19.29-.41.42-.65.13-.24.24-.47.34-.68.1-.22.15-.36.17-.42l.24.12c-.16.53-.34.98-.54,1.36s-.41.68-.62.91c-.22.23-.44.4-.66.52s-.44.17-.65.17c-.38,0-.68-.17-.88-.52-.2-.34-.21-.79-.04-1.33l2.33-7.7c.03-.08.06-.16.08-.25.02-.09.04-.17.06-.25.16-.58.23-1.04.22-1.4s-.09-.65-.22-.88c-.14-.26-.34-.43-.58-.52-.24-.09-.49-.14-.74-.16-.74-.03-1.41.15-2.02.55-.61.4-1.15.91-1.63,1.54-.48.62-.9,1.31-1.25,2.05-.35.74-.63,1.44-.84,2.1-.22.67-.42,1.38-.58,2.11-.16.74-.25,1.42-.28,2.04-.02.62.04,1.14.19,1.56.15.42.44.64.85.67.56.05,1.16-.25,1.81-.9.65-.65,1.3-1.52,1.97-2.6s1.32-2.32,1.98-3.71,1.29-2.79,1.9-4.21l-.82,2.86c-.19.38-.42.88-.68,1.5-.26.62-.56,1.27-.9,1.96-.34.69-.71,1.38-1.12,2.08-.41.7-.85,1.32-1.32,1.86-.47.54-.97.98-1.49,1.32s-1.07.48-1.64.43c-.54-.03-.99-.24-1.33-.64Z"/><path class="cls-1" d="m162.72,53.88l1.46-5.38c.13-.45.25-.89.37-1.32.12-.43.24-.86.35-1.27.27-.96.48-1.79.64-2.5s.2-1.23.13-1.58c-.02-.19-.1-.22-.25-.08-.15.14-.32.34-.49.6-.18.26-.34.53-.48.79-.14.26-.22.44-.24.52l-.22-.1c.16-.56.37-1.06.62-1.5s.52-.8.8-1.08c.28-.28.56-.47.84-.58.28-.1.54-.09.78.04.18.1.28.32.3.67.02.35,0,.78-.1,1.3-.09.51-.21,1.08-.37,1.69s-.33,1.24-.5,1.86l-2.11,7.92h-1.54Zm1.92-2.26c.16-.34.4-.84.71-1.52.31-.68.66-1.43,1.06-2.26.39-.82.82-1.67,1.3-2.53.47-.86.96-1.65,1.45-2.36.5-.71,1-1.3,1.52-1.75.52-.46,1.02-.68,1.5-.68.29,0,.56.05.83.16.26.1.48.28.65.52.17.24.28.57.35.98.06.42.04.94-.07,1.56-.06.3-.17.71-.32,1.22-.15.51-.32,1.07-.52,1.67-.19.6-.39,1.22-.6,1.86-.21.64-.39,1.24-.55,1.8-.16.56-.29,1.05-.38,1.46-.1.42-.13.7-.1.86.08.21.2.24.37.11.17-.14.33-.34.49-.6.16-.26.3-.54.43-.83.13-.29.21-.46.24-.53l.22.12c-.16.54-.34,1.01-.55,1.39-.21.38-.43.69-.66.92-.23.23-.46.4-.7.5-.23.1-.45.15-.66.13-.18-.02-.33-.07-.47-.17-.14-.1-.24-.22-.32-.38-.08-.16-.13-.35-.14-.56s.02-.46.1-.73c.19-.62.39-1.25.6-1.87s.42-1.24.64-1.86c.22-.62.42-1.24.62-1.87.2-.63.38-1.26.54-1.88.29-1.14.44-1.98.47-2.54.02-.56-.16-.84-.56-.84-.4-.02-.84.22-1.33.71-.49.49-1,1.12-1.52,1.91-.53.78-1.05,1.66-1.57,2.63-.52.97-1.01,1.93-1.46,2.88-.46.95-.87,1.84-1.24,2.66-.37.82-.66,1.48-.86,1.98l.53-2.26Z"/><path class="cls-1" d="m184.42,44.4c.13-.66.18-1.21.17-1.66-.02-.45-.09-.81-.23-1.09-.14-.28-.33-.48-.58-.6s-.54-.18-.88-.18c-.67,0-1.3.2-1.87.6-.58.4-1.1.9-1.58,1.5-.48.6-.9,1.26-1.25,1.99-.35.73-.64,1.42-.86,2.08-.21.67-.38,1.39-.53,2.16-.14.77-.22,1.48-.22,2.14s.09,1.2.26,1.63c.18.43.47.65.89.65.37,0,.85-.31,1.45-.94.6-.62,1.25-1.46,1.94-2.5.7-1.04,1.4-2.24,2.11-3.59.71-1.35,1.36-2.76,1.93-4.21l-.38,1.82c-.1.26-.27.68-.53,1.27-.26.59-.57,1.25-.95,1.98s-.8,1.49-1.28,2.28c-.48.79-.98,1.51-1.49,2.16-.51.65-1.03,1.18-1.56,1.6-.53.42-1.04.62-1.54.62-.54,0-1-.2-1.37-.6-.37-.4-.64-.93-.8-1.6-.17-.66-.22-1.42-.17-2.28.06-.86.24-1.75.54-2.68.3-.94.7-1.82,1.18-2.63.48-.81,1.02-1.5,1.63-2.09s1.26-1.04,1.94-1.38c.69-.34,1.38-.49,2.09-.46.72.03,1.3.18,1.75.43.45.26.78.61,1.01,1.06l-.84,2.5Zm.42,8.22c-.28.42-.56.74-.85.95-.29.21-.57.32-.84.34-.27.02-.5-.05-.68-.19s-.31-.36-.38-.64c-.07-.28-.04-.61.08-1l.79-2.74,2.14-7.7c.16-.58.3-1.12.43-1.64.13-.52.24-.99.32-1.42s.15-.78.19-1.08.05-.5.04-.61c-.03-.1-.1-.15-.2-.17-.1-.02-.22-.01-.35.01-.13.02-.26.04-.38.06-.13.02-.24,0-.34-.02l.24-.31c.26-.03.52-.08.78-.14s.53-.13.79-.2c.26-.07.53-.14.8-.19s.55-.08.84-.08c-.66,2.29-1.31,4.56-1.96,6.83-.65,2.26-1.27,4.56-1.86,6.88-.11.37-.21.71-.3,1.03-.09.32-.17.61-.23.88-.06.26-.11.5-.13.71-.02.21-.03.38-.01.53.1.21.23.24.4.11s.34-.34.5-.6c.17-.26.31-.54.43-.82.12-.28.19-.46.2-.54l.24.12c-.19.69-.43,1.24-.71,1.67Z"/></svg>