<svg fill="none" height="267" viewBox="0 0 349 267" width="349" xmlns="http://www.w3.org/2000/svg"><g fill="#10121d"><path d="m.279887 216.205c.223909-.839.485137-1.865.802343-3.059.3172-1.194.63441-2.5 1.00759-3.936.35452-1.418.69039-2.742 1.00759-3.955.31721-1.212.57844-2.257.80234-3.097.22391-.839.33587-1.287.33587-1.324l1.47407-.075c-.70905 2.799-1.08223 5.205-1.10089 7.238-.01866 2.015.22391 3.694.72771 5 .50379 1.306 1.26882 2.276 2.29507 2.891 1.02625.616 2.22043.914 3.60122.858 1.3808 0 2.7429-.224 4.105-.709 1.3621-.466 2.6123-1.138 3.7691-1.996 1.1569-.858 2.1458-1.958 2.9668-3.264s1.4368-2.817 1.8286-4.496c.5411-2.313.5038-4.29-.0746-5.969-.5784-1.661-1.4368-3.172-2.575-4.533-1.1382-1.362-2.407-2.612-3.8064-3.806-1.3995-1.175-2.6496-2.406-3.7692-3.693-1.1195-1.288-1.9405-2.724-2.5003-4.291s-.5598-3.432-.0373-5.559c.5411-2.033 1.3621-3.806 2.463-5.261 1.1009-1.473 2.3697-2.667 3.7691-3.6 1.3995-.933 2.8735-1.623 4.4036-2.071 1.53-.447 3.0041-.671 4.4409-.671 1.1568 0 2.1271.112 2.9294.336.8024.224 1.4928.485 2.0899.765.5971.298 1.1382.596 1.6046.895.4665.298.9517.578 1.4368.802l1.1382-2.071 1.3994-.074s-.0933.485-.2985 1.306c-.2053.82-.4478 1.846-.7277 3.059s-.5971 2.537-.933 3.936c-.3358 1.399-.6344 2.705-.9329 3.936-.2986 1.231-.5411 2.239-.7277 3.059-.2053.821-.2986 1.25-.2986 1.306h-1.1942c.3546-2.761.5038-5.13.4665-7.126s-.2985-3.656-.7277-4.962c-.4478-1.306-1.0822-2.276-1.9405-2.891-.8397-.616-1.8846-.933-3.1348-.933-1.1568 0-2.295.187-3.4332.541-1.1383.354-2.1832.895-3.1348 1.604s-1.7913 1.586-2.5376 2.593c-.7277 1.026-1.3062 2.183-1.698 3.47-.5411 1.959-.5038 3.675.0746 5.167.5785 1.493 1.4368 2.873 2.575 4.123 1.1382 1.268 2.407 2.5 3.8065 3.694 1.3994 1.193 2.6682 2.518 3.8064 3.954 1.1382 1.437 1.9592 3.06 2.5003 4.869.5411 1.791.5038 3.936-.0746 6.436-.5411 2.182-1.3994 4.123-2.5936 5.82-1.1942 1.716-2.5936 3.153-4.161 4.328s-3.284 2.071-5.1313 2.667c-1.8472.597-3.6758.896-5.5044.896-1.642 0-3.17204-.261-4.59014-.765-1.41809-.504-2.57496-1.212-3.47059-2.089l-1.3248 2.07h-1.47407s.111955-.485.335864-1.324z"/><path d="m57.9551 185.22c-.0746-.615-.2612-1.194-.5971-1.735-.3358-.541-.8396-.97-1.53-1.324-.6904-.355-1.642-.485-2.8362-.392s-2.3137.411-3.34.97c-1.0262.56-1.9592 1.287-2.8362 2.201-.8583.914-1.6606 1.94-2.3697 3.097-.709 1.157-1.3621 2.351-1.9405 3.6-.5784 1.25-1.0822 2.481-1.5301 3.694-.4478 1.231-.821 2.369-1.1382 3.432-.6717 2.314-1.0635 4.533-1.1568 6.697-.112 2.164.0746 4.03.5597 5.597.4852 1.585 1.2689 2.798 2.3697 3.656 1.0823.858 2.463 1.194 4.105.97 1.2875-.187 2.575-.653 3.8625-1.399s2.519-1.66 3.6945-2.705 2.2577-2.183 3.2653-3.395c1.0076-1.213 1.8473-2.388 2.575-3.507l1.1382.205c-.6158 1.119-1.4368 2.406-2.463 3.899-1.0263 1.492-2.2391 2.91-3.6572 4.272-1.4181 1.361-3.0228 2.537-4.8327 3.525-1.7913 1.008-3.7691 1.567-5.8963 1.698-2.1831.131-3.993-.261-5.4298-1.157-1.4367-.914-2.519-2.238-3.1907-3.954-.6717-1.717-1.0076-3.825-.9703-6.268.0374-2.444.4852-5.149 1.3248-8.134.7651-2.76 1.754-5.279 3.0042-7.555 1.2501-2.294 2.6682-4.234 4.2915-5.857 1.6234-1.623 3.3587-2.892 5.2246-3.806s3.7691-1.361 5.7283-1.361c2.6123 0 4.7021.578 6.2322 1.734 1.53 1.157 2.4443 2.519 2.7615 4.067s0 3.115-.9702 4.664c-.9517 1.548-2.631 2.723-5.038 3.525-1.642.579-3.1347 1.045-4.4968 1.399-1.3622.355-2.7056.691-4.0304 1.008s-2.6869.597-4.0677.858-2.9295.578-4.6648.933l.5411-1.138 12.3337-3.526c.7091-.224 1.3994-.541 2.0712-.97.6717-.429 1.2688-.951 1.7912-1.567.5412-.616.989-1.306 1.3622-2.033.3731-.728.6157-1.493.709-2.295.0933-.448.0933-.97.0373-1.604z"/><path d="m91.9335 187.216c-.2053.541-.4852.952-.8584 1.231-.3731.299-.8023.467-1.2688.541-.4665.075-.877 0-1.2315-.168-.9702-.447-1.5487-1.063-1.7353-1.828-.1866-.783-.2985-1.548-.3732-2.331-.0746-.784-.2425-1.437-.5411-1.996-.2985-.56-1.0076-.84-2.1644-.84-1.642 0-3.1721.616-4.5902 1.828-1.4181 1.231-2.7055 2.724-3.8251 4.496-1.1382 1.772-2.0898 3.656-2.8921 5.634-.8024 1.977-1.4181 3.712-1.866 5.223-.4851 1.865-.821 3.861-1.0076 5.988-.1865 2.127-.0746 4.085.2986 5.857.3732 1.773 1.0636 3.228 2.0712 4.328 1.0075 1.12 2.4256 1.549 4.2916 1.325 1.2501-.131 2.4816-.523 3.6945-1.157 1.2128-.653 2.3697-1.455 3.4332-2.425 1.0636-.97 2.0339-2.052 2.8922-3.19.8583-1.156 1.53-2.294 1.9592-3.395l1.1382.205c-.3918 1.026-1.0262 2.201-1.9032 3.563-.8583 1.362-1.9406 2.649-3.2281 3.862-1.2874 1.212-2.7615 2.294-4.4408 3.19-1.6607.914-3.5079 1.436-5.5045 1.567-2.351.186-4.2729-.262-5.7283-1.325-1.4741-1.063-2.519-2.537-3.1721-4.402-.653-1.866-.9143-4.011-.8023-6.455.112-2.443.5225-4.943 1.2315-7.536.7091-2.574 1.6793-5 2.9295-7.294 1.2501-2.295 2.6682-4.272 4.2916-5.97 1.6233-1.678 3.3773-3.022 5.2618-3.992 1.8846-.97 3.8252-1.473 5.8217-1.473 1.1569 0 2.1831.13 3.0601.391.8956.262 1.6607.616 2.3324 1.064.6717.447 1.2128.97 1.642 1.567.4291.597.709 1.25.8396 1.958.1307.765.0933 1.4-.0933 1.941z"/><path d="m118.803 181.359c1.399.97 2.463 2.332 3.172 4.066.709 1.735 1.082 3.769 1.1 6.1.019 2.332-.354 4.851-1.1 7.555-.765 2.668-1.792 5.205-3.098 7.63s-2.817 4.533-4.534 6.361-3.564 3.265-5.523 4.328c-1.978 1.063-3.956 1.604-5.971 1.604s-3.7505-.541-5.1313-1.604c-1.3807-1.063-2.407-2.5-3.0974-4.328s-1.0262-3.936-1.0076-6.361c.0187-2.425.4105-4.962 1.1569-7.63.709-2.667 1.7166-5.167 3.0228-7.499 1.3061-2.331 2.7986-4.365 4.4596-6.1s3.471-3.096 5.392-4.104c1.941-1.007 3.919-1.492 5.971-1.492 2.053 0 3.769.485 5.169 1.474zm-.392 11.659c.373-2.09.503-3.992.373-5.727-.131-1.735-.616-3.171-1.474-4.291-.84-1.138-2.202-1.697-4.068-1.697s-3.526.559-4.963 1.697-2.724 2.575-3.825 4.328c-1.12 1.754-2.053 3.675-2.837 5.764-.783 2.09-1.436 4.086-1.9587 5.988-.5411 1.959-1.0076 4.03-1.3994 6.194-.3919 2.182-.5412 4.178-.4292 5.988.1119 1.828.5598 3.339 1.3621 4.533s2.1272 1.791 3.9932 1.791 3.601-.616 5.056-1.828c1.475-1.213 2.762-2.743 3.863-4.571 1.119-1.828 2.071-3.824 2.873-5.988.803-2.182 1.474-4.216 1.997-6.137.578-1.959 1.064-3.974 1.437-6.063z"/><path d="m124.363 217.679 4.068-14.924c.354-1.249.709-2.462 1.026-3.656.336-1.194.653-2.369.97-3.526.765-2.667 1.344-4.98 1.773-6.92.429-1.959.541-3.414.373-4.403-.037-.541-.28-.615-.709-.224-.429.373-.877.933-1.362 1.661-.485.727-.933 1.473-1.325 2.201-.392.727-.616 1.212-.672 1.436l-.597-.261c.448-1.548 1.026-2.947 1.735-4.16.709-1.212 1.456-2.22 2.24-3.003.783-.784 1.548-1.306 2.332-1.605.784-.279 1.493-.261 2.164.094.486.261.765.895.84 1.865s-.019 2.183-.261 3.6c-.243 1.418-.597 2.985-1.026 4.701-.448 1.717-.915 3.433-1.4 5.168l-5.859 21.993h-4.273zm5.336-6.268c.448-.933 1.101-2.35 1.96-4.234.858-1.885 1.847-3.974 2.929-6.268 1.082-2.295 2.295-4.627 3.601-7.033 1.306-2.407 2.65-4.589 4.031-6.567 1.38-1.977 2.78-3.6 4.235-4.868 1.437-1.269 2.836-1.903 4.161-1.903.803 0 1.568.149 2.295.429.728.298 1.325.765 1.792 1.436.466.672.783 1.586.97 2.724.168 1.156.112 2.593-.205 4.328-.168.839-.485 1.977-.896 3.395-.429 1.418-.896 2.966-1.437 4.626s-1.082 3.395-1.66 5.167c-.579 1.773-1.083 3.452-1.53 5-.448 1.548-.803 2.91-1.064 4.067-.261 1.156-.355 1.958-.261 2.406.224.578.56.672 1.026.298.466-.373.914-.932 1.362-1.66.448-.727.84-1.492 1.194-2.294.355-.802.579-1.287.672-1.474l.597.336c-.448 1.511-.951 2.798-1.53 3.861-.578 1.064-1.194 1.922-1.829 2.575-.634.652-1.287 1.119-1.94 1.399-.653.298-1.25.41-1.829.373-.485-.038-.914-.205-1.306-.467-.373-.261-.672-.615-.895-1.063-.224-.448-.355-.97-.392-1.567-.038-.597.037-1.268.261-2.033.541-1.735 1.082-3.47 1.661-5.205.578-1.735 1.156-3.451 1.772-5.167.597-1.716 1.176-3.451 1.736-5.205.559-1.753 1.063-3.507 1.492-5.223.803-3.153 1.232-5.503 1.306-7.07.075-1.548-.447-2.332-1.567-2.332-1.12-.037-2.351.616-3.694 1.959-1.363 1.362-2.762 3.115-4.236 5.298-1.474 2.182-2.93 4.607-4.366 7.294-1.437 2.686-2.799 5.353-4.068 8.002s-2.407 5.112-3.433 7.388c-1.027 2.294-1.829 4.122-2.407 5.503l1.474-6.268z"/><path d="m184.595 191.358c.354-1.829.503-3.358.466-4.589-.037-1.25-.261-2.258-.634-3.022-.374-.784-.915-1.325-1.605-1.661-.69-.335-1.493-.503-2.426-.503-1.866 0-3.601.559-5.206 1.66-1.604 1.119-3.06 2.5-4.403 4.16-1.325 1.66-2.482 3.507-3.471 5.522-.97 2.014-1.772 3.936-2.407 5.764-.578 1.865-1.063 3.861-1.474 5.988-.41 2.126-.597 4.104-.597 5.932s.243 3.339.728 4.533 1.306 1.791 2.463 1.791c1.026 0 2.369-.858 4.03-2.593s3.471-4.048 5.393-6.921c1.94-2.891 3.881-6.212 5.859-9.961 1.977-3.75 3.769-7.649 5.373-11.697l-1.063 5.056c-.261.708-.747 1.884-1.474 3.525-.728 1.642-1.586 3.47-2.631 5.503-1.045 2.015-2.239 4.123-3.564 6.324s-2.706 4.197-4.124 5.988-2.873 3.283-4.329 4.44c-1.474 1.157-2.892 1.735-4.273 1.735-1.511 0-2.78-.56-3.806-1.66-1.026-1.101-1.773-2.593-2.239-4.44-.467-1.847-.616-3.955-.467-6.324.15-2.369.653-4.85 1.493-7.424.84-2.612 1.941-5.056 3.265-7.294 1.325-2.239 2.837-4.179 4.535-5.802s3.489-2.891 5.392-3.824 3.844-1.362 5.803-1.269c1.997.094 3.62.485 4.87 1.194s2.183 1.698 2.799 2.929l-2.332 6.921zm1.156 22.814c-.783 1.175-1.567 2.052-2.369 2.63-.803.579-1.586.896-2.333.933-.765.037-1.38-.131-1.903-.541-.504-.392-.858-.989-1.063-1.772-.206-.784-.131-1.698.223-2.761l2.202-7.592 5.934-21.378c.448-1.605.839-3.116 1.194-4.571.355-1.436.653-2.761.896-3.936.242-1.175.429-2.182.541-3.003s.149-1.381.093-1.698c-.093-.261-.28-.429-.56-.466-.298-.037-.615-.037-.97.037-.355.075-.709.131-1.064.168-.354.037-.671.019-.933-.075l.672-.858c.709-.093 1.437-.224 2.165-.391.727-.187 1.474-.374 2.201-.56.728-.205 1.475-.373 2.24-.541.746-.149 1.53-.224 2.332-.224-1.829 6.361-3.639 12.666-5.43 18.953s-3.526 12.648-5.168 19.084c-.318 1.026-.598 1.977-.84 2.872-.243.896-.467 1.698-.635 2.425-.167.728-.298 1.381-.373 1.959-.074.578-.074 1.063-.037 1.474.261.578.634.671 1.101.298.466-.373.933-.932 1.399-1.66.467-.727.859-1.492 1.194-2.257.336-.784.523-1.269.56-1.492l.672.335c-.541 1.903-1.194 3.451-1.959 4.627z"/><path d="m203.384 217.679.336-.858c.355 0 .802-.056 1.362-.168s.989-.336 1.306-.709c.485-.541 1.027-1.623 1.642-3.264.597-1.642 1.232-3.563 1.904-5.765.671-2.201 1.343-4.551 2.033-7.07.691-2.499 1.344-4.924 1.96-7.238.578-2.033 1.212-4.29 1.903-6.752.69-2.463 1.325-4.832 1.94-7.089.616-2.257 1.064-4.272 1.363-5.988.317-1.735.373-2.873.205-3.395-.131-.355-.448-.597-.933-.709s-.914-.168-1.269-.168l.205-.933h11.065l-.261.858c-.355 0-.802.075-1.362.205-.56.131-1.008.374-1.362.728-.486.541-1.027 1.548-1.605 3.059s-1.157 3.265-1.773 5.261c-.597 1.996-1.194 4.122-1.791 6.398-.597 2.258-1.194 4.44-1.773 6.529-.186.579-.466 1.549-.858 2.892-.392 1.362-.84 2.891-1.325 4.626s-.989 3.563-1.492 5.466c-.504 1.903-.971 3.712-1.363 5.391-.391 1.698-.69 3.153-.858 4.403-.186 1.249-.205 2.089-.074 2.537.13.354.447.596.932.708.486.112.933.168 1.325.168l-.261.858h-11.065zm14.069-27.049h21.253l-.467 1.53h-21.252zm13.453 22.814c.486-1.212 1.008-2.648 1.53-4.29.542-1.642 1.064-3.395 1.605-5.261.541-1.865 1.045-3.656 1.53-5.391s.914-3.302 1.269-4.701.634-2.462.858-3.171c.579-2.052 1.176-4.216 1.792-6.492.615-2.294 1.194-4.439 1.698-6.454.503-2.015.895-3.806 1.156-5.335.262-1.53.318-2.537.131-3.022-.131-.355-.448-.597-.933-.709s-.933-.168-1.325-.168l.336-.858h10.99l-.261.858c-.392 0-.858.056-1.399.168s-.971.354-1.325.709c-.485.578-1.064 1.716-1.698 3.432-.653 1.716-1.288 3.694-1.941 5.969-.653 2.276-1.306 4.645-1.959 7.127-.672 2.481-1.306 4.794-1.94 6.92-.616 2.313-1.307 4.701-2.034 7.201-.728 2.481-1.381 4.813-1.941 6.995-.56 2.183-.97 4.067-1.269 5.69-.298 1.623-.335 2.724-.167 3.302.13.354.447.597.932.709.486.112.933.168 1.325.168l-.261.858h-10.99l.261-.858c.392 0 .858-.056 1.362-.168s.952-.336 1.306-.709c.392-.448.84-1.269 1.325-2.5z"/><path d="m246.879 216.504c-.952-1.082-1.624-2.5-1.997-4.272-.373-1.754-.448-3.806-.224-6.137.224-2.332.728-4.795 1.53-7.369.84-2.574 1.941-4.999 3.266-7.294 1.324-2.294 2.873-4.272 4.627-5.932s3.695-2.966 5.803-3.899 4.366-1.362 6.755-1.268c.447 0 .97 0 1.604.037.616.019 1.325.131 2.127.298.803.187 1.68.467 2.669.859.97.391 2.034 1.007 3.19 1.79l-2.873 10.801c-.541 1.959-1.12 3.918-1.773 5.858-.653 1.959-1.194 3.824-1.642 5.596-.615 2.052-1.119 3.806-1.492 5.298-.374 1.492-.504 2.63-.374 3.432.094.187.187.318.299.392.112.094.205.131.298.131.318 0 .672-.261 1.101-.802s.803-1.138 1.157-1.791c.355-.672.672-1.306.933-1.903s.429-.989.467-1.156l.671.335c-.447 1.474-.951 2.724-1.492 3.768-.56 1.045-1.139 1.885-1.736 2.537-.597.653-1.213 1.12-1.828 1.437-.616.317-1.213.466-1.792.466-1.063 0-1.884-.485-2.425-1.436-.56-.952-.597-2.183-.094-3.694l6.457-21.378c.093-.224.167-.447.223-.709.075-.242.131-.485.168-.708.448-1.605.635-2.892.597-3.899-.037-1.008-.242-1.81-.597-2.425-.391-.709-.933-1.194-1.604-1.437-.672-.242-1.362-.391-2.071-.429-2.053-.093-3.919.429-5.598 1.53-1.698 1.119-3.191 2.537-4.534 4.272-1.325 1.735-2.482 3.637-3.471 5.689-.97 2.071-1.754 4.011-2.332 5.839-.616 1.866-1.157 3.824-1.605 5.858-.448 2.052-.709 3.936-.765 5.671-.075 1.735.112 3.171.541 4.328.429 1.156 1.213 1.772 2.37 1.865 1.548.131 3.228-.709 5.038-2.5 1.791-1.791 3.62-4.216 5.467-7.238s3.676-6.454 5.504-10.297c1.829-3.843 3.583-7.742 5.262-11.696l-2.258 7.928c-.541 1.063-1.156 2.462-1.903 4.16-.728 1.716-1.567 3.525-2.5 5.428s-1.959 3.824-3.098 5.764c-1.138 1.941-2.351 3.657-3.657 5.168s-2.687 2.723-4.123 3.656c-1.437.933-2.967 1.325-4.572 1.194-1.511-.093-2.743-.672-3.694-1.772z"/><path d="m278.095 217.679 4.068-14.924c.355-1.249.709-2.462 1.026-3.656.336-1.194.653-2.369.971-3.526.765-2.667 1.343-4.98 1.772-6.92.429-1.959.541-3.414.373-4.403-.037-.541-.28-.615-.709-.224-.429.373-.877.933-1.362 1.661-.485.727-.933 1.473-1.325 2.201-.391.727-.615 1.212-.671 1.436l-.597-.261c.447-1.548 1.026-2.947 1.735-4.16.709-1.212 1.455-2.22 2.239-3.003.784-.784 1.549-1.306 2.332-1.605.784-.279 1.493-.261 2.165.094.485.261.765.895.839 1.865.075.97-.018 2.183-.261 3.6-.242 1.418-.597 2.985-1.026 4.701-.448 1.717-.914 3.433-1.399 5.168l-5.859 21.993h-4.273zm5.337-6.268c.448-.933 1.101-2.35 1.959-4.234.858-1.885 1.847-3.974 2.93-6.268 1.082-2.295 2.295-4.627 3.601-7.033 1.306-2.407 2.649-4.589 4.03-6.567 1.381-1.977 2.78-3.6 4.236-4.868 1.436-1.269 2.836-1.903 4.161-1.903.802 0 1.567.149 2.295.429.727.298 1.325.765 1.791 1.436.467.672.784 1.586.97 2.724.168 1.156.112 2.593-.205 4.328-.168.839-.485 1.977-.896 3.395-.429 1.418-.895 2.966-1.436 4.626s-1.083 3.395-1.661 5.167c-.578 1.773-1.082 3.452-1.53 5s-.802 2.91-1.064 4.067c-.261 1.156-.354 1.958-.261 2.406.224.578.56.672 1.026.298.467-.373.915-.932 1.363-1.66.447-.727.839-1.492 1.194-2.294.354-.802.578-1.287.671-1.474l.598.336c-.448 1.511-.952 2.798-1.531 3.861-.578 1.064-1.194 1.922-1.828 2.575-.634.652-1.288 1.119-1.941 1.399-.653.298-1.25.41-1.828.373-.485-.038-.915-.205-1.306-.467-.374-.261-.672-.615-.896-1.063s-.355-.97-.392-1.567.037-1.268.261-2.033c.541-1.735 1.083-3.47 1.661-5.205s1.157-3.451 1.773-5.167c.597-1.716 1.175-3.451 1.735-5.205.56-1.753 1.064-3.507 1.493-5.223.802-3.153 1.231-5.503 1.306-7.07.074-1.548-.448-2.332-1.568-2.332-1.119-.037-2.351.616-3.694 1.959-1.362 1.362-2.762 3.115-4.236 5.298-1.474 2.182-2.929 4.607-4.366 7.294-1.437 2.686-2.799 5.353-4.068 8.002-1.268 2.649-2.407 5.112-3.433 7.388-1.026 2.294-1.828 4.122-2.407 5.503l1.474-6.268z"/><path d="m338.346 191.358c.354-1.829.503-3.358.466-4.589-.037-1.25-.261-2.258-.634-3.022-.373-.784-.915-1.325-1.605-1.661-.69-.335-1.493-.503-2.426-.503-1.866 0-3.601.559-5.206 1.66-1.604 1.119-3.06 2.5-4.403 4.16-1.325 1.66-2.482 3.507-3.471 5.522-.97 2.014-1.772 3.936-2.407 5.764-.578 1.865-1.063 3.861-1.474 5.988-.41 2.126-.597 4.104-.597 5.932s.243 3.339.728 4.533 1.306 1.791 2.463 1.791c1.026 0 2.37-.858 4.03-2.593 1.661-1.735 3.471-4.048 5.393-6.921 1.94-2.891 3.881-6.212 5.859-9.961 1.978-3.75 3.769-7.649 5.373-11.697l-1.063 5.056c-.261.708-.746 1.884-1.474 3.525-.728 1.642-1.586 3.47-2.631 5.503-1.045 2.015-2.239 4.123-3.564 6.324s-2.706 4.197-4.124 5.988-2.873 3.283-4.329 4.44c-1.474 1.157-2.892 1.735-4.272 1.735-1.512 0-2.781-.56-3.807-1.66-1.026-1.101-1.773-2.593-2.239-4.44-.467-1.847-.616-3.955-.467-6.324.15-2.369.654-4.85 1.493-7.424.84-2.612 1.941-5.056 3.266-7.294 1.324-2.239 2.836-4.179 4.534-5.802s3.489-2.891 5.392-3.824 3.844-1.362 5.803-1.269c1.997.094 3.62.485 4.87 1.194s2.183 1.698 2.799 2.929l-2.332 6.921zm1.157 22.814c-.784 1.175-1.568 2.052-2.37 2.63-.803.579-1.586.896-2.333.933-.765.037-1.38-.131-1.903-.541-.504-.392-.858-.989-1.063-1.772-.206-.784-.131-1.698.224-2.761l2.201-7.592 5.934-21.378c.448-1.605.84-3.116 1.194-4.571.355-1.436.653-2.761.896-3.936.242-1.175.429-2.182.541-3.003s.149-1.381.093-1.698c-.093-.261-.28-.429-.56-.466-.298-.037-.615-.037-.97.037-.354.075-.709.131-1.063.168-.355.037-.672.019-.933-.075l.671-.858c.709-.093 1.437-.224 2.165-.391.727-.187 1.474-.374 2.202-.56.727-.205 1.474-.373 2.239-.541.746-.149 1.53-.224 2.332-.224-1.829 6.361-3.639 12.666-5.43 18.953s-3.526 12.648-5.168 19.084c-.318 1.026-.597 1.977-.84 2.872-.243.896-.466 1.698-.634 2.425-.168.728-.299 1.381-.374 1.959-.074.578-.074 1.063-.037 1.474.261.578.634.671 1.101.298.466-.373.933-.932 1.399-1.66.467-.727.859-1.492 1.195-2.257.335-.784.522-1.269.559-1.492l.672.335c-.541 1.903-1.194 3.451-1.959 4.627z"/><path d="m231.13 28.4294h-1.996c-8.658-25.3141-67.528-32.42146-79.078-18.87831v65.06681h50.212c3.993 0 5.113-10.6517 5.113-12.8716h1.548v26.8624h-1.548c0-2.2199-.896-11.7709-5.113-11.7709h-50.212v69.9542c0 1.996 0 7.107 10.226 7.779v1.119h-55.082v-1.119c10.225-.672 10.225-5.783 10.225-7.779v-137.89382c0-1.99603 0-7.10735-10.225-7.77891v-1.11927h117.944l8.005 28.4294z"/><path d="m217.435 155.616c2.089-.075 4.254.018 6.381.354 7.52-26.788 25.582-48.166 53.216-48.166 17.334 0 33.325 12.89 39.091 35.089h1.996l-8.452-34.641-4.217 3.563c-7.557-3.563-17.335-5.988-28.437-6.212-47.338-1.604-76.092 25.109-85.552 57.027h.093c7.52-4.421 17.26-6.679 25.862-6.977z"/><path d="m279.7 264.054c-28.623-.466-46.536-19.121-54.69-43.278-.914 1.231-2.164 2.182-3.638 2.518-4.74 1.082-9.815 1.53-14.666 1.362-3.956-.131-8.378-.672-11.905-2.705 12.035 27.179 40.136 47.569 84.918 44.099 14.218-.895 24.443-5.988 25.992-6.436l5.989 5.335 4.665-32.197h-1.772c-2.221 7.107-13.323 31.75-34.874 31.321z"/></g></svg>