<svg width="1314" height="1004" viewBox="0 0 1314 1004" fill="none" xmlns="http://www.w3.org/2000/svg">
<path d="M1.05379 814.022C1.89681 810.862 2.88035 806.999 4.07464 802.504C5.26893 798.009 6.46322 793.092 7.86826 787.684C9.20306 782.346 10.4676 777.36 11.6619 772.794C12.8562 768.229 13.8397 764.296 14.6827 761.135C15.5258 757.975 15.9473 756.289 15.9473 756.149L21.4972 755.868C18.8276 766.403 17.4226 775.463 17.3523 783.119C17.2821 790.704 18.1954 797.025 20.0922 801.942C21.989 806.858 24.8693 810.51 28.7332 812.828C32.5971 815.146 37.0932 816.27 42.2919 816.059C47.4906 816.059 52.619 815.216 57.7474 813.39C62.8759 811.634 67.5828 809.106 71.9384 805.875C76.2941 802.644 80.0174 798.5 83.1085 793.584C86.1996 788.667 88.518 782.978 89.9933 776.657C92.0306 767.948 91.8901 760.503 89.7123 754.182C87.5344 747.931 84.3028 742.242 80.0174 737.115C75.732 731.988 70.9549 727.282 65.686 722.787C60.417 718.362 55.7101 713.727 51.495 708.881C47.2798 704.034 44.1887 698.626 42.0812 692.727C39.9736 686.827 39.9736 679.803 41.9407 671.797C43.978 664.141 47.0691 657.469 51.214 651.99C55.3589 646.442 60.136 641.947 65.405 638.435C70.6739 634.923 76.2238 632.325 81.9845 630.639C87.7452 628.953 93.2951 628.11 98.7046 628.11C103.06 628.11 106.713 628.532 109.734 629.375C112.755 630.218 115.354 631.201 117.602 632.254C119.851 633.378 121.888 634.502 123.644 635.626C125.4 636.749 127.227 637.803 129.054 638.646L133.339 630.85L138.608 630.569C138.608 630.569 138.257 632.395 137.484 635.485C136.711 638.575 135.798 642.438 134.744 647.004C133.69 651.569 132.496 656.556 131.231 661.823C129.967 667.091 128.843 672.007 127.719 676.643C126.595 681.278 125.681 685.071 124.979 688.161C124.206 691.252 123.855 692.867 123.855 693.078H119.359C120.694 682.683 121.256 673.763 121.115 666.248C120.975 658.733 119.991 652.482 118.375 647.566C116.689 642.649 114.301 638.997 111.069 636.679C107.908 634.361 103.973 633.167 99.2666 633.167C94.9109 633.167 90.6255 633.87 86.3402 635.204C82.0548 636.539 78.1206 638.575 74.5378 641.244C70.9549 643.913 67.7935 647.214 64.9834 651.007C62.2436 654.87 60.0658 659.225 58.5905 664.071C56.5532 671.445 56.6937 677.907 58.8715 683.526C61.0493 689.145 64.2809 694.342 68.5663 699.048C72.8517 703.824 77.6289 708.459 82.8978 712.954C88.1667 717.449 92.9439 722.436 97.2293 727.844C101.515 733.252 104.606 739.362 106.643 746.175C108.68 752.918 108.54 760.995 106.362 770.406C104.325 778.624 101.093 785.928 96.597 792.32C92.1008 798.781 86.8319 804.189 80.9307 808.614C75.0295 813.039 68.5663 816.41 61.6113 818.658C54.6563 820.905 47.7716 822.029 40.8869 822.029C34.7047 822.029 28.944 821.046 23.6048 819.149C18.2656 817.253 13.91 814.584 10.5379 811.283L5.54994 819.079H0C0 819.079 0.421514 817.253 1.26454 814.092L1.05379 814.022Z" fill="#7A1C44"/>
<path d="M218.204 697.362C217.923 695.044 217.22 692.867 215.956 690.83C214.691 688.793 212.794 687.178 210.195 685.844C207.595 684.509 204.013 684.017 199.516 684.369C195.02 684.72 190.805 685.914 186.941 688.021C183.077 690.128 179.565 692.867 176.263 696.309C173.031 699.75 170.01 703.613 167.341 707.968C164.671 712.322 162.212 716.817 160.035 721.523C157.857 726.229 155.96 730.864 154.274 735.429C152.588 740.065 151.183 744.349 149.989 748.353C147.459 757.062 145.984 765.42 145.633 773.567C145.211 781.714 145.914 788.738 147.74 794.637C149.567 800.607 152.518 805.173 156.663 808.403C160.737 811.634 165.936 812.898 172.118 812.056C176.965 811.353 181.813 809.597 186.66 806.788C191.508 803.979 196.144 800.537 200.57 796.604C204.996 792.671 209.071 788.386 212.864 783.821C216.658 779.256 219.819 774.831 222.559 770.617L226.845 771.39C224.526 775.604 221.435 780.45 217.571 786.069C213.707 791.688 209.141 797.025 203.802 802.152C198.463 807.28 192.421 811.704 185.607 815.427C178.862 819.22 171.416 821.327 163.407 821.818C155.187 822.31 148.373 820.835 142.963 817.464C137.554 814.022 133.479 809.035 130.95 802.574C128.421 796.112 127.157 788.176 127.297 778.975C127.438 769.774 129.124 759.59 132.285 748.353C135.165 737.958 138.889 728.476 143.596 719.907C148.303 711.269 153.642 703.964 159.754 697.854C165.866 691.743 172.399 686.967 179.424 683.526C186.45 680.084 193.615 678.399 200.992 678.399C210.827 678.399 218.695 680.576 224.456 684.931C230.217 689.285 233.659 694.412 234.853 700.242C236.048 706.071 234.853 711.971 231.2 717.8C227.617 723.63 221.295 728.055 212.232 731.075C206.05 733.252 200.43 735.008 195.301 736.342C190.173 737.677 185.115 738.941 180.127 740.135C175.139 741.329 170.01 742.383 164.812 743.366C159.613 744.349 153.782 745.543 147.249 746.878L149.286 742.593L195.723 729.319C198.392 728.476 200.992 727.282 203.521 725.667C206.05 724.051 208.298 722.085 210.265 719.767C212.302 717.449 213.988 714.851 215.394 712.111C216.799 709.372 217.712 706.493 218.063 703.473C218.414 701.787 218.414 699.82 218.204 697.432V697.362Z" fill="#7A1C44"/>
<path d="M346.133 704.877C345.361 706.914 344.307 708.459 342.902 709.513C341.497 710.636 339.881 711.268 338.125 711.549C336.368 711.83 334.823 711.549 333.488 710.917C329.835 709.232 327.657 706.914 326.955 704.034C326.252 701.084 325.831 698.205 325.55 695.255C325.269 692.305 324.636 689.847 323.512 687.74C322.388 685.633 319.719 684.579 315.363 684.579C309.181 684.579 303.42 686.897 298.081 691.462C292.742 696.098 287.894 701.716 283.679 708.389C279.394 715.061 275.811 722.155 272.79 729.6C269.769 737.045 267.451 743.576 265.765 749.265C263.938 756.289 262.674 763.804 261.971 771.811C261.269 779.818 261.69 787.192 263.095 793.865C264.5 800.537 267.1 806.015 270.893 810.159C274.687 814.373 280.026 815.989 287.051 815.146C291.758 814.654 296.395 813.179 300.961 810.791C305.528 808.333 309.883 805.313 313.888 801.661C317.892 798.008 321.545 793.935 324.777 789.651C328.008 785.296 330.537 781.012 332.153 776.868L336.439 777.64C334.963 781.503 332.575 785.928 329.273 791.055C326.041 796.182 321.967 801.029 317.119 805.594C312.272 810.159 306.722 814.233 300.399 817.604C294.147 821.045 287.192 823.012 279.675 823.504C270.823 824.206 263.587 822.52 258.107 818.517C252.557 814.514 248.623 808.965 246.164 801.942C243.706 794.918 242.722 786.841 243.143 777.64C243.565 768.44 245.111 759.028 247.78 749.265C250.45 739.573 254.103 730.443 258.81 721.804C263.517 713.165 268.856 705.72 274.968 699.328C281.08 693.007 287.683 687.95 294.779 684.298C301.874 680.646 309.181 678.75 316.698 678.75C321.053 678.75 324.917 679.241 328.219 680.225C331.591 681.208 334.472 682.542 337.001 684.228C339.53 685.914 341.567 687.88 343.183 690.128C344.799 692.375 345.852 694.833 346.344 697.502C346.836 700.382 346.695 702.77 345.993 704.807L346.133 704.877Z" fill="#7A1C44"/>
<path d="M447.297 682.823C452.566 686.476 456.57 691.603 459.24 698.135C461.909 704.666 463.314 712.322 463.384 721.101C463.455 729.881 462.05 739.362 459.24 749.546C456.359 759.59 452.495 769.142 447.578 778.273C442.66 787.403 436.97 795.34 430.506 802.223C424.043 809.106 417.088 814.514 409.712 818.517C402.265 822.521 394.818 824.557 387.231 824.557C379.644 824.557 373.11 822.521 367.912 818.517C362.713 814.514 358.849 809.106 356.25 802.223C353.65 795.34 352.386 787.403 352.456 778.273C352.526 769.142 354.002 759.59 356.812 749.546C359.481 739.503 363.275 730.091 368.193 721.312C373.11 712.533 378.73 704.877 384.983 698.345C391.235 691.813 398.05 686.686 405.286 682.894C412.592 679.101 420.039 677.275 427.767 677.275C435.494 677.275 441.958 679.101 447.226 682.823H447.297ZM445.821 726.72C447.226 718.854 447.718 711.69 447.226 705.158C446.735 698.626 444.908 693.218 441.677 689.004C438.515 684.72 433.387 682.613 426.362 682.613C419.336 682.613 413.084 684.72 407.674 689.004C402.265 693.288 397.418 698.696 393.273 705.298C389.057 711.901 385.545 719.135 382.594 727.001C379.644 734.867 377.185 742.383 375.218 749.546C373.18 756.921 371.424 764.717 369.949 772.864C368.474 781.082 367.912 788.597 368.333 795.41C368.755 802.293 370.441 807.982 373.461 812.477C376.482 816.972 381.47 819.22 388.495 819.22C395.521 819.22 402.054 816.902 407.534 812.336C413.084 807.771 417.931 802.012 422.076 795.129C426.291 788.246 429.874 780.731 432.895 772.584C435.916 764.366 438.445 756.71 440.412 749.476C442.59 742.102 444.416 734.516 445.821 726.65V726.72Z" fill="#7A1C44"/>
<path d="M468.232 819.571L483.547 763.383C484.881 758.677 486.216 754.112 487.411 749.617C488.675 745.122 489.869 740.697 491.064 736.342C493.944 726.299 496.122 717.59 497.738 710.285C499.353 702.911 499.775 697.432 499.143 693.71C499.002 691.673 498.089 691.392 496.473 692.867C494.857 694.272 493.171 696.379 491.345 699.118C489.518 701.857 487.832 704.666 486.357 707.406C484.882 710.145 484.038 711.971 483.828 712.814L481.58 711.83C483.266 706.001 485.444 700.733 488.113 696.168C490.783 691.603 493.593 687.81 496.543 684.86C499.494 681.91 502.374 679.944 505.325 678.82C508.276 677.766 510.945 677.837 513.474 679.171C515.301 680.155 516.355 682.542 516.636 686.195C516.917 689.847 516.565 694.412 515.652 699.75C514.739 705.088 513.404 710.988 511.788 717.449C510.102 723.911 508.346 730.372 506.519 736.904L484.46 819.711H468.372L468.232 819.571ZM488.324 795.972C490.01 792.46 492.469 787.122 495.7 780.028C498.932 772.935 502.655 765.068 506.73 756.43C510.805 747.791 515.371 739.011 520.289 729.951C525.206 720.891 530.265 712.673 535.463 705.228C540.662 697.783 545.931 691.673 551.41 686.897C556.82 682.121 562.089 679.733 567.077 679.733C570.098 679.733 572.978 680.295 575.718 681.348C578.458 682.472 580.706 684.228 582.462 686.757C584.218 689.285 585.413 692.726 586.115 697.011C586.747 701.365 586.537 706.774 585.342 713.305C584.71 716.466 583.516 720.75 581.97 726.088C580.354 731.426 578.598 737.255 576.561 743.506C574.523 749.757 572.486 756.289 570.308 762.961C568.131 769.634 566.234 775.955 564.548 781.784C562.862 787.614 561.527 792.741 560.543 797.096C559.56 801.45 559.208 804.47 559.56 806.156C560.403 808.333 561.667 808.684 563.424 807.28C565.18 805.875 566.866 803.768 568.552 801.029C570.238 798.289 571.713 795.41 573.048 792.39C574.383 789.37 575.226 787.544 575.577 786.841L577.825 788.105C576.139 793.794 574.242 798.641 572.065 802.644C569.887 806.648 567.569 809.878 565.18 812.336C562.791 814.795 560.333 816.551 557.874 817.604C555.415 818.728 553.167 819.149 550.989 819.009C549.162 818.868 547.547 818.236 546.071 817.253C544.666 816.27 543.542 814.935 542.699 813.25C541.856 811.564 541.364 809.597 541.224 807.35C541.083 805.102 541.364 802.574 542.207 799.694C544.245 793.162 546.282 786.631 548.46 780.099C550.638 773.567 552.816 767.105 555.134 760.644C557.382 754.182 559.56 747.65 561.667 741.048C563.775 734.446 565.672 727.844 567.287 721.382C570.308 709.513 571.924 700.663 572.205 694.763C572.486 688.934 570.519 685.984 566.304 685.984C562.089 685.843 557.452 688.302 552.394 693.359C547.266 698.486 541.997 705.088 536.447 713.305C530.897 721.523 525.417 730.653 520.008 740.767C514.598 750.881 509.47 760.925 504.693 770.898C499.916 780.871 495.63 790.142 491.766 798.711C487.902 807.35 484.881 814.233 482.704 819.43L488.254 795.831L488.324 795.972Z" fill="#7A1C44"/>
<path d="M695.007 720.469C696.341 713.586 696.903 707.827 696.763 703.192C696.622 698.486 695.779 694.693 694.374 691.814C692.969 688.864 690.932 686.827 688.333 685.563C685.733 684.298 682.712 683.666 679.2 683.666C672.175 683.666 665.641 685.773 659.599 689.917C653.558 694.131 648.078 699.329 643.02 705.58C638.032 711.83 633.676 718.784 629.953 726.369C626.3 733.954 623.279 741.189 620.89 748.072C618.712 755.095 616.886 762.61 615.34 770.617C613.795 778.624 613.092 786.069 613.092 792.952C613.092 799.835 614.006 805.524 615.832 810.019C617.659 814.514 620.75 816.761 625.105 816.761C628.969 816.761 634.027 813.531 640.28 806.999C646.532 800.467 653.347 791.758 660.583 780.942C667.889 770.055 675.195 757.553 682.642 743.436C690.089 729.319 696.833 714.64 702.875 699.399L698.87 718.433C697.887 721.101 696.06 725.526 693.32 731.707C690.581 737.888 687.349 744.771 683.415 752.426C679.481 760.012 674.985 767.948 669.997 776.236C665.009 784.524 659.81 792.039 654.471 798.781C649.132 805.524 643.652 811.143 638.172 815.497C632.622 819.852 627.283 822.029 622.085 822.029C616.394 822.029 611.617 819.922 607.753 815.778C603.889 811.634 601.079 806.015 599.323 799.062C597.566 792.109 597.004 784.172 597.566 775.253C598.129 766.333 600.025 756.992 603.187 747.299C606.348 737.466 610.493 728.265 615.481 719.837C620.469 711.409 626.159 704.105 632.552 697.994C638.945 691.884 645.689 687.108 652.855 683.596C660.021 680.084 667.327 678.469 674.704 678.82C682.221 679.171 688.333 680.646 693.039 683.315C697.746 685.984 701.259 689.707 703.577 694.342L694.796 720.399L695.007 720.469ZM699.362 806.367C696.412 810.791 693.461 814.093 690.44 816.27C687.419 818.447 684.469 819.641 681.659 819.782C678.778 819.922 676.46 819.29 674.493 817.745C672.596 816.27 671.261 814.022 670.488 811.072C669.716 808.123 669.997 804.681 671.331 800.678L679.621 772.092L701.961 691.603C703.648 685.563 705.123 679.874 706.458 674.395C707.792 668.987 708.917 664.001 709.83 659.576C710.743 655.151 711.446 651.358 711.867 648.268C712.289 645.178 712.429 643.071 712.218 641.877C711.867 640.893 711.165 640.261 710.111 640.121C708.987 639.98 707.792 639.98 706.458 640.261C705.123 640.542 703.788 640.753 702.453 640.893C701.118 641.034 699.924 640.963 698.941 640.612L701.47 637.382C704.139 637.03 706.879 636.539 709.619 635.907C712.359 635.204 715.169 634.502 717.909 633.8C720.649 633.027 723.459 632.395 726.339 631.763C729.149 631.201 732.1 630.92 735.121 630.92C728.236 654.87 721.421 678.609 714.677 702.279C707.933 725.948 701.399 749.898 695.217 774.129C694.023 777.992 692.969 781.574 692.056 784.945C691.143 788.316 690.3 791.336 689.667 794.076C689.035 796.815 688.543 799.273 688.262 801.45C687.981 803.628 687.981 805.454 688.122 806.999C689.105 809.176 690.51 809.527 692.267 808.123C694.023 806.718 695.779 804.611 697.536 801.872C699.292 799.132 700.767 796.253 702.032 793.373C703.296 790.423 703.999 788.597 704.139 787.754L706.668 789.019C704.631 796.183 702.172 802.012 699.292 806.437L699.362 806.367Z" fill="#7A1C44"/>
<path d="M765.75 819.571L767.015 816.34C768.35 816.34 770.036 816.129 772.143 815.708C774.251 815.286 775.867 814.444 777.061 813.039C778.888 811.002 780.925 806.929 783.243 800.748C785.491 794.567 787.88 787.333 790.409 779.045C792.938 770.758 795.467 761.908 798.066 752.426C800.666 743.015 803.125 733.884 805.443 725.175C807.621 717.52 810.009 709.021 812.609 699.75C815.208 690.479 817.597 681.559 819.915 673.061C822.233 664.562 823.919 656.977 825.043 650.515C826.238 643.984 826.448 639.699 825.816 637.733C825.324 636.398 824.13 635.485 822.303 635.064C820.477 634.642 818.861 634.432 817.526 634.432L818.299 630.92H859.959L858.975 634.151C857.64 634.151 855.954 634.432 853.847 634.923C851.739 635.415 850.053 636.328 848.718 637.662C846.892 639.699 844.854 643.492 842.677 649.181C840.499 654.87 838.321 661.472 836.003 668.987C833.755 676.502 831.507 684.509 829.258 693.078C827.01 701.576 824.762 709.794 822.584 717.66C821.882 719.837 820.828 723.489 819.353 728.546C817.878 733.674 816.191 739.433 814.365 745.965C812.538 752.496 810.642 759.379 808.745 766.543C806.848 773.707 805.092 780.52 803.616 786.841C802.141 793.233 801.017 798.711 800.385 803.417C799.682 808.123 799.612 811.283 800.104 812.969C800.595 814.303 801.79 815.216 803.616 815.638C805.443 816.059 807.129 816.27 808.604 816.27L807.621 819.501H765.961L765.75 819.571ZM818.721 717.73H898.738L896.982 723.489H816.964L818.721 717.73ZM869.373 803.627C871.199 799.062 873.166 793.654 875.133 787.473C877.171 781.293 879.138 774.691 881.175 767.667C883.212 760.644 885.109 753.901 886.936 747.369C888.762 740.838 890.378 734.938 891.713 729.67C893.048 724.403 894.101 720.399 894.944 717.73C897.122 710.004 899.37 701.857 901.689 693.288C904.007 684.65 906.185 676.573 908.082 668.987C909.978 661.402 911.454 654.659 912.437 648.9C913.421 643.141 913.632 639.348 912.929 637.522C912.437 636.188 911.243 635.274 909.416 634.853C907.59 634.432 905.904 634.221 904.428 634.221L905.693 630.99H947.072L946.088 634.221C944.613 634.221 942.857 634.432 940.819 634.853C938.782 635.274 937.166 636.188 935.831 637.522C934.005 639.699 931.827 643.984 929.438 650.445C926.979 656.907 924.591 664.352 922.132 672.92C919.673 681.489 917.214 690.409 914.756 699.75C912.226 709.091 909.838 717.8 907.449 725.807C905.131 734.516 902.532 743.506 899.792 752.918C897.052 762.259 894.593 771.039 892.486 779.256C890.378 787.473 888.832 794.567 887.708 800.678C886.584 806.788 886.444 810.932 887.076 813.109C887.568 814.444 888.762 815.357 890.589 815.778C892.415 816.2 894.101 816.41 895.577 816.41L894.593 819.641H853.215L854.198 816.41C855.673 816.41 857.43 816.2 859.326 815.778C861.223 815.357 862.909 814.514 864.244 813.109C865.719 811.424 867.405 808.333 869.232 803.698L869.373 803.627Z" fill="#7A1C44"/>
<path d="M929.509 815.146C925.926 811.072 923.397 805.734 921.992 799.062C920.586 792.46 920.306 784.734 921.149 775.955C921.992 767.175 923.888 757.904 926.909 748.212C930.071 738.52 934.215 729.389 939.203 720.75C944.191 712.111 950.022 704.666 956.626 698.416C963.23 692.165 970.536 687.248 978.474 683.736C986.413 680.225 994.913 678.609 1003.91 678.96C1005.59 678.96 1007.56 678.96 1009.95 679.101C1012.27 679.171 1014.94 679.593 1017.96 680.225C1020.98 680.927 1024.28 681.981 1028 683.455C1031.66 684.93 1035.66 687.248 1040.02 690.198L1029.2 730.864C1027.16 738.239 1024.98 745.613 1022.52 752.918C1020.06 760.292 1018.03 767.316 1016.34 773.988C1014.02 781.714 1012.13 788.316 1010.72 793.935C1009.32 799.554 1008.82 803.838 1009.32 806.858C1009.67 807.56 1010.02 808.052 1010.44 808.333C1010.86 808.684 1011.21 808.825 1011.56 808.825C1012.76 808.825 1014.09 807.841 1015.71 805.805C1017.32 803.768 1018.73 801.52 1020.06 799.062C1021.4 796.534 1022.59 794.146 1023.58 791.898C1024.56 789.651 1025.19 788.176 1025.33 787.544L1027.86 788.808C1026.18 794.356 1024.28 799.062 1022.24 802.995C1020.13 806.928 1017.96 810.089 1015.71 812.547C1013.46 815.005 1011.14 816.761 1008.82 817.955C1006.51 819.149 1004.26 819.711 1002.08 819.711C998.075 819.711 994.984 817.885 992.946 814.303C990.839 810.721 990.698 806.086 992.595 800.397L1016.9 719.907C1017.25 719.065 1017.53 718.222 1017.75 717.238C1018.03 716.325 1018.24 715.412 1018.38 714.569C1020.06 708.529 1020.77 703.683 1020.63 699.89C1020.49 696.098 1019.71 693.078 1018.38 690.76C1016.9 688.091 1014.87 686.265 1012.34 685.352C1009.81 684.439 1007.21 683.877 1004.54 683.736C996.81 683.385 989.785 685.352 983.462 689.496C977.069 693.71 971.449 699.048 966.391 705.579C961.403 712.111 957.047 719.275 953.324 727.001C949.671 734.797 946.72 742.102 944.543 748.985C942.224 756.008 940.187 763.383 938.501 771.038C936.815 778.764 935.831 785.858 935.62 792.39C935.339 798.922 936.042 804.33 937.658 808.684C939.274 813.039 942.224 815.357 946.58 815.708C952.411 816.199 958.733 813.039 965.548 806.296C972.292 799.554 979.177 790.423 986.132 779.045C993.087 767.667 999.972 754.744 1006.86 740.275C1013.74 725.807 1020.34 711.128 1026.67 696.238L1018.17 726.088C1016.13 730.091 1013.81 735.359 1011 741.75C1008.26 748.212 1005.1 755.025 1001.59 762.189C998.075 769.353 994.211 776.587 989.926 783.891C985.64 791.196 981.074 797.657 976.156 803.346C971.238 809.035 966.04 813.601 960.63 817.112C955.221 820.624 949.46 822.099 943.419 821.607C937.728 821.256 933.091 819.079 929.509 814.935V815.146Z" fill="#7A1C44"/>
<path d="M1047.04 819.571L1062.36 763.383C1063.69 758.677 1065.03 754.112 1066.22 749.617C1067.48 745.122 1068.68 740.697 1069.87 736.342C1072.75 726.299 1074.93 717.59 1076.55 710.285C1078.16 702.911 1078.58 697.432 1077.95 693.71C1077.81 691.673 1076.9 691.392 1075.28 692.867C1073.67 694.272 1071.98 696.379 1070.15 699.118C1068.33 701.857 1066.64 704.666 1065.17 707.406C1063.69 710.145 1062.85 711.971 1062.64 712.814L1060.39 711.83C1062.07 706.001 1064.25 700.733 1066.92 696.168C1069.59 691.603 1072.4 687.81 1075.35 684.86C1078.3 681.91 1081.18 679.944 1084.13 678.82C1087.08 677.766 1089.75 677.837 1092.28 679.171C1094.11 680.155 1095.16 682.542 1095.44 686.195C1095.73 689.847 1095.37 694.412 1094.46 699.75C1093.55 705.088 1092.21 710.988 1090.6 717.449C1088.91 723.911 1087.15 730.372 1085.33 736.904L1063.27 819.711H1047.18L1047.04 819.571ZM1067.13 795.972C1068.82 792.46 1071.28 787.122 1074.51 780.028C1077.74 772.935 1081.46 765.068 1085.54 756.43C1089.61 747.791 1094.18 739.011 1099.1 729.951C1104.02 720.891 1109.07 712.673 1114.27 705.228C1119.47 697.783 1124.74 691.673 1130.22 686.897C1135.63 682.121 1140.9 679.733 1145.89 679.733C1148.91 679.733 1151.79 680.295 1154.53 681.348C1157.27 682.472 1159.51 684.228 1161.27 686.757C1163.03 689.285 1164.22 692.726 1164.92 697.011C1165.56 701.365 1165.35 706.774 1164.15 713.305C1163.52 716.466 1162.33 720.75 1160.78 726.088C1159.16 731.426 1157.41 737.255 1155.37 743.506C1153.33 749.757 1151.3 756.289 1149.12 762.961C1146.94 769.634 1145.04 775.955 1143.36 781.784C1141.67 787.614 1140.34 792.741 1139.35 797.096C1138.37 801.45 1138.02 804.47 1138.37 806.156C1139.21 808.333 1140.48 808.684 1142.23 807.28C1143.99 805.875 1145.68 803.768 1147.36 801.029C1149.05 798.289 1150.52 795.41 1151.86 792.39C1153.19 789.37 1154.04 787.544 1154.39 786.841L1156.63 788.105C1154.95 793.794 1153.05 798.641 1150.87 802.644C1148.7 806.648 1146.38 809.878 1143.99 812.336C1141.6 814.795 1139.14 816.551 1136.68 817.604C1134.22 818.728 1131.98 819.149 1129.8 819.009C1127.97 818.868 1126.36 818.236 1124.88 817.253C1123.48 816.27 1122.35 814.935 1121.51 813.25C1120.67 811.564 1120.17 809.597 1120.03 807.35C1119.89 805.102 1120.17 802.574 1121.02 799.694C1123.05 793.162 1125.09 786.631 1127.27 780.099C1129.45 773.567 1131.62 767.105 1133.94 760.644C1136.19 754.182 1138.37 747.65 1140.48 741.048C1142.58 734.446 1144.48 727.844 1146.1 721.382C1149.12 709.513 1150.73 700.663 1151.01 694.763C1151.3 688.934 1149.33 685.984 1145.11 685.984C1140.9 685.843 1136.26 688.302 1131.2 693.359C1126.07 698.486 1120.81 705.088 1115.26 713.305C1109.71 721.523 1104.23 730.653 1098.82 740.767C1093.41 750.881 1088.28 760.925 1083.5 770.898C1078.72 780.871 1074.44 790.142 1070.58 798.711C1066.71 807.35 1063.69 814.233 1061.51 819.43L1067.06 795.831L1067.13 795.972Z" fill="#7A1C44"/>
<path d="M1273.89 720.469C1275.22 713.586 1275.78 707.827 1275.64 703.192C1275.5 698.486 1274.66 694.693 1273.25 691.814C1271.85 688.864 1269.81 686.827 1267.21 685.563C1264.61 684.298 1261.59 683.666 1258.08 683.666C1251.05 683.666 1244.52 685.773 1238.48 689.917C1232.44 694.131 1226.96 699.329 1221.9 705.58C1216.91 711.83 1212.56 718.784 1208.83 726.369C1205.18 733.954 1202.16 741.189 1199.77 748.072C1197.59 755.095 1195.77 762.61 1194.22 770.617C1192.67 778.624 1191.97 786.069 1191.97 792.952C1191.97 799.835 1192.89 805.524 1194.71 810.019C1196.54 814.514 1199.63 816.761 1203.98 816.761C1207.85 816.761 1212.91 813.531 1219.16 806.999C1225.41 800.467 1232.23 791.758 1239.46 780.942C1246.77 770.055 1254.07 757.553 1261.52 743.436C1268.97 729.319 1275.71 714.64 1281.75 699.399L1277.75 718.433C1276.77 721.101 1274.94 725.526 1272.2 731.707C1269.46 737.888 1266.23 744.771 1262.29 752.426C1258.36 760.012 1253.86 767.948 1248.88 776.236C1243.89 784.524 1238.69 792.039 1233.35 798.781C1228.01 805.524 1222.53 811.143 1217.05 815.497C1211.5 819.852 1206.16 822.029 1200.96 822.029C1195.27 822.029 1190.5 819.922 1186.63 815.778C1182.77 811.634 1179.96 806.015 1178.2 799.062C1176.45 792.109 1175.88 784.172 1176.45 775.253C1177.01 766.333 1178.9 756.992 1182.07 747.299C1185.23 737.466 1189.37 728.265 1194.36 719.837C1199.35 711.409 1205.04 704.105 1211.43 697.994C1217.82 691.884 1224.57 687.108 1231.73 683.596C1238.9 680.084 1246.21 678.469 1253.58 678.82C1261.1 679.171 1267.21 680.646 1271.92 683.315C1276.63 685.984 1280.14 689.707 1282.46 694.342L1273.68 720.399L1273.89 720.469ZM1278.24 806.367C1275.29 810.791 1272.34 814.093 1269.32 816.27C1266.3 818.447 1263.35 819.641 1260.54 819.782C1257.66 819.922 1255.34 819.29 1253.37 817.745C1251.48 816.27 1250.14 814.022 1249.37 811.072C1248.6 808.123 1248.88 804.681 1250.21 800.678L1258.5 772.092L1280.84 691.603C1282.53 685.563 1284 679.874 1285.34 674.395C1286.67 668.987 1287.8 664.001 1288.71 659.576C1289.62 655.151 1290.33 651.358 1290.75 648.268C1291.17 645.178 1291.31 643.071 1291.1 641.877C1290.75 640.893 1290.04 640.261 1288.99 640.121C1287.87 639.98 1286.67 639.98 1285.34 640.261C1284 640.542 1282.67 640.753 1281.33 640.893C1280 641.034 1278.8 640.963 1277.82 640.612L1280.35 637.382C1283.02 637.03 1285.76 636.539 1288.5 635.907C1291.24 635.204 1294.05 634.502 1296.79 633.8C1299.53 633.027 1302.34 632.395 1305.22 631.763C1308.03 631.201 1310.98 630.92 1314 630.92C1307.12 654.87 1300.3 678.609 1293.56 702.279C1286.81 725.948 1280.28 749.898 1274.1 774.129C1272.9 777.992 1271.85 781.574 1270.94 784.945C1270.02 788.316 1269.18 791.336 1268.55 794.076C1267.91 796.815 1267.42 799.273 1267.14 801.45C1266.86 803.628 1266.86 805.454 1267 806.999C1267.98 809.176 1269.39 809.527 1271.15 808.123C1272.9 806.718 1274.66 804.611 1276.42 801.872C1278.17 799.132 1279.65 796.253 1280.91 793.373C1282.18 790.423 1282.88 788.597 1283.02 787.754L1285.55 789.019C1283.51 796.183 1281.05 802.012 1278.17 806.437L1278.24 806.367Z" fill="#7A1C44"/>
<path d="M870.216 107.038H862.699C830.101 11.7292 608.455 -15.0303 564.969 35.9602V280.939H754.018C769.052 280.939 773.267 240.835 773.267 232.477H779.098V333.616H773.267C773.267 325.258 769.895 289.297 754.018 289.297H564.969V552.678C564.969 560.193 564.969 579.438 603.467 581.966V586.18H396.082V581.966C434.581 579.438 434.581 560.193 434.581 552.678V33.502C434.581 25.9869 434.581 6.74255 396.082 4.21409V0H840.148L870.286 107.038H870.216Z" fill="#7A1C44"/>
<path d="M818.65 585.9C826.519 585.619 834.668 585.97 842.677 587.234C870.988 486.377 938.993 405.888 1043.04 405.888C1108.3 405.888 1168.51 454.42 1190.22 537.999H1197.73L1165.91 407.573L1150.03 420.988C1121.58 407.573 1084.77 398.443 1042.97 397.6C864.736 391.56 756.477 492.136 720.859 612.308C721 612.308 721.14 612.308 721.21 612.308C749.522 595.662 786.194 587.164 818.58 586.04L818.65 585.9Z" fill="#7A1C44"/>
<path d="M1053.08 994.174C945.315 992.419 877.873 922.184 847.173 831.229C843.73 835.865 839.023 839.447 833.474 840.711C815.629 844.785 796.521 846.47 778.255 845.838C763.362 845.347 746.712 843.31 733.434 835.654C778.747 937.987 884.547 1014.75 1053.15 1001.69C1106.68 998.318 1145.18 979.144 1151.01 977.459L1173.57 997.546L1191.13 876.32H1184.45C1176.09 903.08 1134.29 995.86 1053.15 994.245L1053.08 994.174Z" fill="#7A1C44"/>
</svg>
